<ttFont>
    <TTGlyph name=".notdef" xMin="112" yMin="-18" xMax="2013" yMax="1803">
      <contour>
        <pt x="192" y="-18" on="0"/>
        <pt x="112" y="54" on="0"/>
        <pt x="112" y="148" on="0"/>
        <pt x="139" y="221" on="0"/>
        <pt x="160" y="291" on="1"/>
        <pt x="470" y="1360" on="1"/>
        <pt x="529" y="1546" on="1"/>
        <pt x="571" y="1674" on="0"/>
        <pt x="610" y="1742" on="0"/>
        <pt x="629" y="1760" on="1"/>
        <pt x="673" y="1803" on="0"/>
        <pt x="738" y="1803" on="1"/>
        <pt x="1896" y="1803" on="1"/>
        <pt x="1984" y="1803" on="0"/>
        <pt x="2006" y="1738" on="1"/>
        <pt x="2013" y="1719" on="0"/>
        <pt x="2013" y="1667" on="0"/>
        <pt x="1991" y="1604" on="0"/>
        <pt x="1970" y="1532" on="1"/>
        <pt x="1650" y="430" on="1"/>
        <pt x="1590" y="240" on="1"/>
        <pt x="1544" y="102" on="0"/>
        <pt x="1506" y="43" on="0"/>
        <pt x="1485" y="24" on="1"/>
        <pt x="1437" y="-18" on="0"/>
        <pt x="1371" y="-18" on="1"/>
        <pt x="263" y="-18" on="1"/>
      </contour>
      <contour>
        <pt x="556" y="362" on="0"/>
        <pt x="587" y="349" on="0"/>
        <pt x="634" y="349" on="0"/>
        <pt x="720" y="412" on="0"/>
        <pt x="765" y="458" on="1"/>
        <pt x="845" y="541" on="0"/>
        <pt x="920" y="651" on="1"/>
        <pt x="981" y="496" on="0"/>
        <pt x="1111" y="348" on="0"/>
        <pt x="1191" y="348" on="1"/>
        <pt x="1293" y="348" on="0"/>
        <pt x="1364" y="426" on="1"/>
        <pt x="1412" y="478" on="0"/>
        <pt x="1412" y="560" on="0"/>
        <pt x="1391" y="560" on="1"/>
        <pt x="1381" y="560" on="0"/>
        <pt x="1370" y="554" on="1"/>
        <pt x="1346" y="542" on="1"/>
        <pt x="1308" y="524" on="0"/>
        <pt x="1233" y="524" on="0"/>
        <pt x="1178" y="583" on="0"/>
        <pt x="1134" y="678" on="0"/>
        <pt x="1116" y="738" on="1"/>
        <pt x="1081" y="857" on="1"/>
        <pt x="1188" y="1001" on="0"/>
        <pt x="1376" y="1162" on="1"/>
        <pt x="1490" y="1260" on="0"/>
        <pt x="1573" y="1296" on="1"/>
        <pt x="1598" y="1308" on="1"/>
        <pt x="1607" y="1311" on="0"/>
        <pt x="1620" y="1332" on="0"/>
        <pt x="1602" y="1361" on="0"/>
        <pt x="1582" y="1371" on="1"/>
        <pt x="1540" y="1393" on="0"/>
        <pt x="1452" y="1393" on="0"/>
        <pt x="1382" y="1366" on="0"/>
        <pt x="1290" y="1303" on="0"/>
        <pt x="1248" y="1264" on="1"/>
        <pt x="1142" y="1167" on="0"/>
        <pt x="1070" y="1053" on="1"/>
        <pt x="1037" y="998" on="1"/>
        <pt x="1008" y="1173" on="0"/>
        <pt x="1016" y="1312" on="0"/>
        <pt x="1016" y="1365" on="0"/>
        <pt x="1004" y="1393" on="0"/>
        <pt x="953" y="1393" on="0"/>
        <pt x="885" y="1366" on="0"/>
        <pt x="856" y="1341" on="1"/>
        <pt x="791" y="1283" on="0"/>
        <pt x="787" y="1203" on="1"/>
        <pt x="780" y="1041" on="0"/>
        <pt x="867" y="797" on="1"/>
        <pt x="760" y="639" on="0"/>
        <pt x="596" y="504" on="1"/>
        <pt x="530" y="451" on="1"/>
        <pt x="513" y="438" on="0"/>
        <pt x="513" y="408" on="0"/>
        <pt x="530" y="383" on="0"/>
      </contour>
    </TTGlyph>
    <TTGlyph name="A" xMin="-174" yMin="-10" xMax="1339" yMax="1555">
      <contour>
        <pt x="744" y="227" on="1"/>
        <pt x="744" y="362" on="0"/>
        <pt x="821" y="641" on="1"/>
        <pt x="580" y="635" on="0"/>
        <pt x="452" y="627" on="1"/>
        <pt x="413" y="556" on="0"/>
        <pt x="381" y="492" on="1"/>
        <pt x="319" y="369" on="1"/>
        <pt x="196" y="127" on="0"/>
        <pt x="98" y="50" on="1"/>
        <pt x="23" y="-10" on="0"/>
        <pt x="-61" y="-10" on="1"/>
        <pt x="-125" y="-10" on="0"/>
        <pt x="-158" y="32" on="1"/>
        <pt x="-170" y="49" on="0"/>
        <pt x="-174" y="80" on="0"/>
        <pt x="-165" y="85" on="1"/>
        <pt x="-50" y="128" on="0"/>
        <pt x="22" y="216" on="1"/>
        <pt x="85" y="295" on="0"/>
        <pt x="148" y="409" on="1"/>
        <pt x="261" y="611" on="1"/>
        <pt x="198" y="602" on="1"/>
        <pt x="138" y="591" on="0"/>
        <pt x="138" y="621" on="1"/>
        <pt x="138" y="651" on="0"/>
        <pt x="174" y="678" on="1"/>
        <pt x="237" y="725" on="0"/>
        <pt x="297" y="740" on="1"/>
        <pt x="340" y="750" on="1"/>
        <pt x="504" y="1021" on="0"/>
        <pt x="677" y="1237" on="0"/>
        <pt x="820" y="1381" on="0"/>
        <pt x="899" y="1436" on="1"/>
        <pt x="1072" y="1555" on="0"/>
        <pt x="1240" y="1555" on="1"/>
        <pt x="1291" y="1555" on="0"/>
        <pt x="1309" y="1534" on="1"/>
        <pt x="1339" y="1501" on="0"/>
        <pt x="1317" y="1426" on="0"/>
        <pt x="1292" y="1356" on="1"/>
        <pt x="1132" y="920" on="0"/>
        <pt x="1097" y="816" on="1"/>
        <pt x="1113" y="817" on="0"/>
        <pt x="1126" y="817" on="1"/>
        <pt x="1148" y="817" on="1"/>
        <pt x="1260" y="817" on="0"/>
        <pt x="1268" y="795" on="1"/>
        <pt x="1270" y="788" on="0"/>
        <pt x="1270" y="751" on="0"/>
        <pt x="1247" y="703" on="0"/>
        <pt x="1221" y="686" on="1"/>
        <pt x="1168" y="650" on="0"/>
        <pt x="1043" y="644" on="1"/>
        <pt x="975" y="409" on="0"/>
        <pt x="956" y="229" on="0"/>
        <pt x="987" y="166" on="0"/>
        <pt x="1044" y="166" on="0"/>
        <pt x="1080" y="177" on="0"/>
        <pt x="1094" y="184" on="1"/>
        <pt x="1120" y="196" on="1"/>
        <pt x="1130" y="202" on="0"/>
        <pt x="1151" y="202" on="0"/>
        <pt x="1165" y="175" on="0"/>
        <pt x="1165" y="131" on="0"/>
        <pt x="1128" y="70" on="0"/>
        <pt x="1098" y="46" on="1"/>
        <pt x="1028" y="-10" on="0"/>
        <pt x="940" y="-10" on="1"/>
        <pt x="805" y="-10" on="0"/>
        <pt x="760" y="110" on="1"/>
        <pt x="744" y="152" on="0"/>
        <pt x="744" y="185" on="1"/>
      </contour>
      <contour>
        <pt x="544" y="785" on="1"/>
        <pt x="722" y="808" on="0"/>
        <pt x="874" y="812" on="1"/>
        <pt x="902" y="898" on="0"/>
        <pt x="934" y="982" on="1"/>
        <pt x="996" y="1142" on="1"/>
        <pt x="1028" y="1218" on="0"/>
        <pt x="1059" y="1286" on="1"/>
        <pt x="1117" y="1409" on="1"/>
        <pt x="909" y="1355" on="0"/>
        <pt x="706" y="1050" on="1"/>
        <pt x="663" y="986" on="0"/>
        <pt x="622" y="918" on="1"/>
      </contour>
    </TTGlyph>
    <TTGlyph name="AE" xMin="-156" yMin="-10" xMax="1954" yMax="1555">
      <contour>
        <pt x="1799" y="1333" on="1"/>
        <pt x="1799" y="1417" on="0"/>
        <pt x="1699" y="1417" on="1"/>
        <pt x="1508" y="1417" on="0"/>
        <pt x="1352" y="1240" on="1"/>
        <pt x="1260" y="1136" on="0"/>
        <pt x="1223" y="1015" on="1"/>
        <pt x="1205" y="956" on="0"/>
        <pt x="1205" y="866" on="0"/>
        <pt x="1226" y="813" on="0"/>
        <pt x="1242" y="796" on="1"/>
        <pt x="1276" y="760" on="0"/>
        <pt x="1321" y="768" on="1"/>
        <pt x="1370" y="788" on="0"/>
        <pt x="1445" y="788" on="0"/>
        <pt x="1490" y="769" on="0"/>
        <pt x="1504" y="755" on="1"/>
        <pt x="1533" y="727" on="0"/>
        <pt x="1533" y="701" on="1"/>
        <pt x="1533" y="650" on="0"/>
        <pt x="1499" y="648" on="1"/>
        <pt x="1447" y="643" on="0"/>
        <pt x="1333" y="595" on="0"/>
        <pt x="1217" y="518" on="0"/>
        <pt x="1172" y="470" on="1"/>
        <pt x="1069" y="360" on="0"/>
        <pt x="1069" y="249" on="1"/>
        <pt x="1069" y="196" on="0"/>
        <pt x="1094" y="169" on="1"/>
        <pt x="1167" y="88" on="0"/>
        <pt x="1308" y="144" on="1"/>
        <pt x="1433" y="195" on="0"/>
        <pt x="1540" y="324" on="1"/>
        <pt x="1572" y="362" on="0"/>
        <pt x="1620" y="362" on="0"/>
        <pt x="1645" y="305" on="0"/>
        <pt x="1645" y="273" on="1"/>
        <pt x="1645" y="207" on="0"/>
        <pt x="1595" y="144" on="0"/>
        <pt x="1520" y="81" on="0"/>
        <pt x="1468" y="54" on="1"/>
        <pt x="1343" y="-10" on="0"/>
        <pt x="1200" y="-10" on="1"/>
        <pt x="959" y="-10" on="0"/>
        <pt x="870" y="148" on="1"/>
        <pt x="838" y="207" on="0"/>
        <pt x="838" y="324" on="0"/>
        <pt x="868" y="420" on="0"/>
        <pt x="892" y="462" on="1"/>
        <pt x="936" y="539" on="0"/>
        <pt x="1009" y="603" on="1"/>
        <pt x="989" y="603" on="1"/>
        <pt x="745" y="603" on="0"/>
        <pt x="465" y="587" on="1"/>
        <pt x="328" y="352" on="1"/>
        <pt x="266" y="245" on="0"/>
        <pt x="224" y="187" on="1"/>
        <pt x="162" y="102" on="1"/>
        <pt x="77" y="-10" on="0"/>
        <pt x="-43" y="-10" on="1"/>
        <pt x="-107" y="-10" on="0"/>
        <pt x="-140" y="32" on="1"/>
        <pt x="-152" y="49" on="0"/>
        <pt x="-156" y="80" on="0"/>
        <pt x="-147" y="85" on="1"/>
        <pt x="-90" y="106" on="0"/>
        <pt x="-67" y="123" on="1"/>
        <pt x="-30" y="150" on="1"/>
        <pt x="12" y="189" on="0"/>
        <pt x="66" y="274" on="1"/>
        <pt x="243" y="566" on="1"/>
        <pt x="216" y="562" on="1"/>
        <pt x="156" y="551" on="0"/>
        <pt x="156" y="581" on="1"/>
        <pt x="156" y="611" on="0"/>
        <pt x="192" y="638" on="1"/>
        <pt x="256" y="686" on="0"/>
        <pt x="328" y="703" on="1"/>
        <pt x="368" y="766" on="1"/>
        <pt x="389" y="797" on="0"/>
        <pt x="412" y="829" on="1"/>
        <pt x="543" y="1031" on="1"/>
        <pt x="793" y="1404" on="0"/>
        <pt x="994" y="1507" on="1"/>
        <pt x="1081" y="1553" on="0"/>
        <pt x="1292" y="1553" on="0"/>
        <pt x="1353" y="1488" on="1"/>
        <pt x="1483" y="1555" on="0"/>
        <pt x="1720" y="1555" on="0"/>
        <pt x="1847" y="1506" on="0"/>
        <pt x="1885" y="1468" on="1"/>
        <pt x="1954" y="1398" on="0"/>
        <pt x="1954" y="1289" on="1"/>
        <pt x="1954" y="1165" on="0"/>
        <pt x="1850" y="1038" on="1"/>
        <pt x="1787" y="962" on="0"/>
        <pt x="1686" y="908" on="0"/>
        <pt x="1629" y="903" on="0"/>
        <pt x="1580" y="922" on="0"/>
        <pt x="1562" y="938" on="1"/>
        <pt x="1521" y="975" on="0"/>
        <pt x="1521" y="1005" on="1"/>
        <pt x="1521" y="1042" on="0"/>
        <pt x="1547" y="1062" on="1"/>
        <pt x="1637" y="1126" on="1"/>
        <pt x="1799" y="1245" on="0"/>
      </contour>
      <contour>
        <pt x="1182" y="1366" on="1"/>
        <pt x="1162" y="1370" on="0"/>
        <pt x="1132" y="1370" on="1"/>
        <pt x="998" y="1370" on="0"/>
        <pt x="768" y="1062" on="1"/>
        <pt x="667" y="928" on="0"/>
        <pt x="565" y="756" on="1"/>
        <pt x="558" y="745" on="1"/>
        <pt x="747" y="772" on="0"/>
        <pt x="928" y="772" on="0"/>
        <pt x="966" y="773" on="1"/>
        <pt x="1045" y="775" on="1"/>
        <pt x="990" y="851" on="0"/>
        <pt x="990" y="954" on="1"/>
        <pt x="990" y="1117" on="0"/>
        <pt x="1102" y="1274" on="1"/>
        <pt x="1138" y="1323" on="0"/>
      </contour>
    </TTGlyph>
    <TTGlyph name="AEacute" xMin="-156" yMin="-10" xMax="1954" yMax="2005">
      <contour>
        <pt x="1799" y="1333" on="1"/>
        <pt x="1799" y="1417" on="0"/>
        <pt x="1699" y="1417" on="1"/>
        <pt x="1508" y="1417" on="0"/>
        <pt x="1352" y="1240" on="1"/>
        <pt x="1260" y="1136" on="0"/>
        <pt x="1223" y="1015" on="1"/>
        <pt x="1205" y="956" on="0"/>
        <pt x="1205" y="866" on="0"/>
        <pt x="1226" y="813" on="0"/>
        <pt x="1242" y="796" on="1"/>
        <pt x="1276" y="760" on="0"/>
        <pt x="1321" y="768" on="1"/>
        <pt x="1370" y="788" on="0"/>
        <pt x="1445" y="788" on="0"/>
        <pt x="1490" y="769" on="0"/>
        <pt x="1504" y="755" on="1"/>
        <pt x="1533" y="727" on="0"/>
        <pt x="1533" y="701" on="1"/>
        <pt x="1533" y="650" on="0"/>
        <pt x="1499" y="648" on="1"/>
        <pt x="1447" y="643" on="0"/>
        <pt x="1333" y="595" on="0"/>
        <pt x="1217" y="518" on="0"/>
        <pt x="1172" y="470" on="1"/>
        <pt x="1069" y="360" on="0"/>
        <pt x="1069" y="249" on="1"/>
        <pt x="1069" y="196" on="0"/>
        <pt x="1094" y="169" on="1"/>
        <pt x="1167" y="88" on="0"/>
        <pt x="1308" y="144" on="1"/>
        <pt x="1433" y="195" on="0"/>
        <pt x="1540" y="324" on="1"/>
        <pt x="1572" y="362" on="0"/>
        <pt x="1620" y="362" on="0"/>
        <pt x="1645" y="305" on="0"/>
        <pt x="1645" y="273" on="1"/>
        <pt x="1645" y="207" on="0"/>
        <pt x="1595" y="144" on="0"/>
        <pt x="1520" y="81" on="0"/>
        <pt x="1468" y="54" on="1"/>
        <pt x="1343" y="-10" on="0"/>
        <pt x="1200" y="-10" on="1"/>
        <pt x="959" y="-10" on="0"/>
        <pt x="870" y="148" on="1"/>
        <pt x="838" y="207" on="0"/>
        <pt x="838" y="324" on="0"/>
        <pt x="868" y="420" on="0"/>
        <pt x="892" y="462" on="1"/>
        <pt x="936" y="539" on="0"/>
        <pt x="1009" y="603" on="1"/>
        <pt x="989" y="603" on="1"/>
        <pt x="745" y="603" on="0"/>
        <pt x="465" y="587" on="1"/>
        <pt x="328" y="352" on="1"/>
        <pt x="266" y="245" on="0"/>
        <pt x="224" y="187" on="1"/>
        <pt x="162" y="102" on="1"/>
        <pt x="77" y="-10" on="0"/>
        <pt x="-43" y="-10" on="1"/>
        <pt x="-107" y="-10" on="0"/>
        <pt x="-140" y="32" on="1"/>
        <pt x="-152" y="49" on="0"/>
        <pt x="-156" y="80" on="0"/>
        <pt x="-147" y="85" on="1"/>
        <pt x="-90" y="106" on="0"/>
        <pt x="-67" y="123" on="1"/>
        <pt x="-30" y="150" on="1"/>
        <pt x="12" y="189" on="0"/>
        <pt x="66" y="274" on="1"/>
        <pt x="243" y="566" on="1"/>
        <pt x="216" y="562" on="1"/>
        <pt x="156" y="551" on="0"/>
        <pt x="156" y="581" on="1"/>
        <pt x="156" y="611" on="0"/>
        <pt x="192" y="638" on="1"/>
        <pt x="256" y="686" on="0"/>
        <pt x="328" y="703" on="1"/>
        <pt x="368" y="766" on="1"/>
        <pt x="389" y="797" on="0"/>
        <pt x="412" y="829" on="1"/>
        <pt x="543" y="1031" on="1"/>
        <pt x="793" y="1404" on="0"/>
        <pt x="994" y="1507" on="1"/>
        <pt x="1081" y="1553" on="0"/>
        <pt x="1292" y="1553" on="0"/>
        <pt x="1353" y="1488" on="1"/>
        <pt x="1483" y="1555" on="0"/>
        <pt x="1720" y="1555" on="0"/>
        <pt x="1847" y="1506" on="0"/>
        <pt x="1885" y="1468" on="1"/>
        <pt x="1954" y="1398" on="0"/>
        <pt x="1954" y="1289" on="1"/>
        <pt x="1954" y="1165" on="0"/>
        <pt x="1850" y="1038" on="1"/>
        <pt x="1787" y="962" on="0"/>
        <pt x="1686" y="908" on="0"/>
        <pt x="1629" y="903" on="0"/>
        <pt x="1580" y="922" on="0"/>
        <pt x="1562" y="938" on="1"/>
        <pt x="1521" y="975" on="0"/>
        <pt x="1521" y="1005" on="1"/>
        <pt x="1521" y="1042" on="0"/>
        <pt x="1547" y="1062" on="1"/>
        <pt x="1637" y="1126" on="1"/>
        <pt x="1799" y="1245" on="0"/>
      </contour>
      <contour>
        <pt x="1182" y="1366" on="1"/>
        <pt x="1162" y="1370" on="0"/>
        <pt x="1132" y="1370" on="1"/>
        <pt x="998" y="1370" on="0"/>
        <pt x="768" y="1062" on="1"/>
        <pt x="667" y="928" on="0"/>
        <pt x="565" y="756" on="1"/>
        <pt x="558" y="745" on="1"/>
        <pt x="747" y="772" on="0"/>
        <pt x="928" y="772" on="0"/>
        <pt x="966" y="773" on="1"/>
        <pt x="1045" y="775" on="1"/>
        <pt x="990" y="851" on="0"/>
        <pt x="990" y="954" on="1"/>
        <pt x="990" y="1117" on="0"/>
        <pt x="1102" y="1274" on="1"/>
        <pt x="1138" y="1323" on="0"/>
      </contour>
      <contour>
        <pt x="1466" y="1671" on="0"/>
        <pt x="1354" y="1630" on="0"/>
        <pt x="1281" y="1628" on="0"/>
        <pt x="1272" y="1640" on="1"/>
        <pt x="1253" y="1666" on="0"/>
        <pt x="1275" y="1687" on="1"/>
        <pt x="1321" y="1731" on="1"/>
        <pt x="1415" y="1817" on="0"/>
        <pt x="1449" y="1910" on="1"/>
        <pt x="1468" y="1965" on="1"/>
        <pt x="1481" y="2005" on="0"/>
        <pt x="1543" y="1998" on="1"/>
        <pt x="1596" y="1992" on="0"/>
        <pt x="1662" y="1911" on="0"/>
        <pt x="1644" y="1819" on="0"/>
        <pt x="1568" y="1737" on="0"/>
      </contour>
    </TTGlyph>
    <TTGlyph name="Aacute" xMin="-174" yMin="-10" xMax="1453" yMax="2005">
      <contour>
        <pt x="744" y="227" on="1"/>
        <pt x="744" y="362" on="0"/>
        <pt x="821" y="641" on="1"/>
        <pt x="580" y="635" on="0"/>
        <pt x="452" y="627" on="1"/>
        <pt x="413" y="556" on="0"/>
        <pt x="381" y="492" on="1"/>
        <pt x="319" y="369" on="1"/>
        <pt x="196" y="127" on="0"/>
        <pt x="98" y="50" on="1"/>
        <pt x="23" y="-10" on="0"/>
        <pt x="-61" y="-10" on="1"/>
        <pt x="-125" y="-10" on="0"/>
        <pt x="-158" y="32" on="1"/>
        <pt x="-170" y="49" on="0"/>
        <pt x="-174" y="80" on="0"/>
        <pt x="-165" y="85" on="1"/>
        <pt x="-50" y="128" on="0"/>
        <pt x="22" y="216" on="1"/>
        <pt x="85" y="295" on="0"/>
        <pt x="148" y="409" on="1"/>
        <pt x="261" y="611" on="1"/>
        <pt x="198" y="602" on="1"/>
        <pt x="138" y="591" on="0"/>
        <pt x="138" y="621" on="1"/>
        <pt x="138" y="651" on="0"/>
        <pt x="174" y="678" on="1"/>
        <pt x="237" y="725" on="0"/>
        <pt x="297" y="740" on="1"/>
        <pt x="340" y="750" on="1"/>
        <pt x="504" y="1021" on="0"/>
        <pt x="677" y="1237" on="0"/>
        <pt x="820" y="1381" on="0"/>
        <pt x="899" y="1436" on="1"/>
        <pt x="1072" y="1555" on="0"/>
        <pt x="1240" y="1555" on="1"/>
        <pt x="1291" y="1555" on="0"/>
        <pt x="1309" y="1534" on="1"/>
        <pt x="1339" y="1501" on="0"/>
        <pt x="1317" y="1426" on="0"/>
        <pt x="1292" y="1356" on="1"/>
        <pt x="1132" y="920" on="0"/>
        <pt x="1097" y="816" on="1"/>
        <pt x="1113" y="817" on="0"/>
        <pt x="1126" y="817" on="1"/>
        <pt x="1148" y="817" on="1"/>
        <pt x="1260" y="817" on="0"/>
        <pt x="1268" y="795" on="1"/>
        <pt x="1270" y="788" on="0"/>
        <pt x="1270" y="751" on="0"/>
        <pt x="1247" y="703" on="0"/>
        <pt x="1221" y="686" on="1"/>
        <pt x="1168" y="650" on="0"/>
        <pt x="1043" y="644" on="1"/>
        <pt x="975" y="409" on="0"/>
        <pt x="956" y="229" on="0"/>
        <pt x="987" y="166" on="0"/>
        <pt x="1044" y="166" on="0"/>
        <pt x="1080" y="177" on="0"/>
        <pt x="1094" y="184" on="1"/>
        <pt x="1120" y="196" on="1"/>
        <pt x="1130" y="202" on="0"/>
        <pt x="1151" y="202" on="0"/>
        <pt x="1165" y="175" on="0"/>
        <pt x="1165" y="131" on="0"/>
        <pt x="1128" y="70" on="0"/>
        <pt x="1098" y="46" on="1"/>
        <pt x="1028" y="-10" on="0"/>
        <pt x="940" y="-10" on="1"/>
        <pt x="805" y="-10" on="0"/>
        <pt x="760" y="110" on="1"/>
        <pt x="744" y="152" on="0"/>
        <pt x="744" y="185" on="1"/>
      </contour>
      <contour>
        <pt x="544" y="785" on="1"/>
        <pt x="722" y="808" on="0"/>
        <pt x="874" y="812" on="1"/>
        <pt x="902" y="898" on="0"/>
        <pt x="934" y="982" on="1"/>
        <pt x="996" y="1142" on="1"/>
        <pt x="1028" y="1218" on="0"/>
        <pt x="1059" y="1286" on="1"/>
        <pt x="1117" y="1409" on="1"/>
        <pt x="909" y="1355" on="0"/>
        <pt x="706" y="1050" on="1"/>
        <pt x="663" y="986" on="0"/>
        <pt x="622" y="918" on="1"/>
      </contour>
      <contour>
        <pt x="1257" y="1671" on="0"/>
        <pt x="1145" y="1630" on="0"/>
        <pt x="1072" y="1628" on="0"/>
        <pt x="1063" y="1640" on="1"/>
        <pt x="1044" y="1666" on="0"/>
        <pt x="1066" y="1687" on="1"/>
        <pt x="1112" y="1731" on="1"/>
        <pt x="1206" y="1817" on="0"/>
        <pt x="1240" y="1910" on="1"/>
        <pt x="1259" y="1965" on="1"/>
        <pt x="1272" y="2005" on="0"/>
        <pt x="1334" y="1998" on="1"/>
        <pt x="1387" y="1992" on="0"/>
        <pt x="1453" y="1911" on="0"/>
        <pt x="1435" y="1819" on="0"/>
        <pt x="1359" y="1737" on="0"/>
      </contour>
    </TTGlyph>
    <TTGlyph name="Abreve" xMin="-174" yMin="-10" xMax="1545" yMax="1999">
      <contour>
        <pt x="744" y="227" on="1"/>
        <pt x="744" y="362" on="0"/>
        <pt x="821" y="641" on="1"/>
        <pt x="580" y="635" on="0"/>
        <pt x="452" y="627" on="1"/>
        <pt x="413" y="556" on="0"/>
        <pt x="381" y="492" on="1"/>
        <pt x="319" y="369" on="1"/>
        <pt x="196" y="127" on="0"/>
        <pt x="98" y="50" on="1"/>
        <pt x="23" y="-10" on="0"/>
        <pt x="-61" y="-10" on="1"/>
        <pt x="-125" y="-10" on="0"/>
        <pt x="-158" y="32" on="1"/>
        <pt x="-170" y="49" on="0"/>
        <pt x="-174" y="80" on="0"/>
        <pt x="-165" y="85" on="1"/>
        <pt x="-50" y="128" on="0"/>
        <pt x="22" y="216" on="1"/>
        <pt x="85" y="295" on="0"/>
        <pt x="148" y="409" on="1"/>
        <pt x="261" y="611" on="1"/>
        <pt x="198" y="602" on="1"/>
        <pt x="138" y="591" on="0"/>
        <pt x="138" y="621" on="1"/>
        <pt x="138" y="651" on="0"/>
        <pt x="174" y="678" on="1"/>
        <pt x="237" y="725" on="0"/>
        <pt x="297" y="740" on="1"/>
        <pt x="340" y="750" on="1"/>
        <pt x="504" y="1021" on="0"/>
        <pt x="677" y="1237" on="0"/>
        <pt x="820" y="1381" on="0"/>
        <pt x="899" y="1436" on="1"/>
        <pt x="1072" y="1555" on="0"/>
        <pt x="1240" y="1555" on="1"/>
        <pt x="1291" y="1555" on="0"/>
        <pt x="1309" y="1534" on="1"/>
        <pt x="1339" y="1501" on="0"/>
        <pt x="1317" y="1426" on="0"/>
        <pt x="1292" y="1356" on="1"/>
        <pt x="1132" y="920" on="0"/>
        <pt x="1097" y="816" on="1"/>
        <pt x="1113" y="817" on="0"/>
        <pt x="1126" y="817" on="1"/>
        <pt x="1148" y="817" on="1"/>
        <pt x="1260" y="817" on="0"/>
        <pt x="1268" y="795" on="1"/>
        <pt x="1270" y="788" on="0"/>
        <pt x="1270" y="751" on="0"/>
        <pt x="1247" y="703" on="0"/>
        <pt x="1221" y="686" on="1"/>
        <pt x="1168" y="650" on="0"/>
        <pt x="1043" y="644" on="1"/>
        <pt x="975" y="409" on="0"/>
        <pt x="956" y="229" on="0"/>
        <pt x="987" y="166" on="0"/>
        <pt x="1044" y="166" on="0"/>
        <pt x="1080" y="177" on="0"/>
        <pt x="1094" y="184" on="1"/>
        <pt x="1120" y="196" on="1"/>
        <pt x="1130" y="202" on="0"/>
        <pt x="1151" y="202" on="0"/>
        <pt x="1165" y="175" on="0"/>
        <pt x="1165" y="131" on="0"/>
        <pt x="1128" y="70" on="0"/>
        <pt x="1098" y="46" on="1"/>
        <pt x="1028" y="-10" on="0"/>
        <pt x="940" y="-10" on="1"/>
        <pt x="805" y="-10" on="0"/>
        <pt x="760" y="110" on="1"/>
        <pt x="744" y="152" on="0"/>
        <pt x="744" y="185" on="1"/>
      </contour>
      <contour>
        <pt x="544" y="785" on="1"/>
        <pt x="722" y="808" on="0"/>
        <pt x="874" y="812" on="1"/>
        <pt x="902" y="898" on="0"/>
        <pt x="934" y="982" on="1"/>
        <pt x="996" y="1142" on="1"/>
        <pt x="1028" y="1218" on="0"/>
        <pt x="1059" y="1286" on="1"/>
        <pt x="1117" y="1409" on="1"/>
        <pt x="909" y="1355" on="0"/>
        <pt x="706" y="1050" on="1"/>
        <pt x="663" y="986" on="0"/>
        <pt x="622" y="918" on="1"/>
      </contour>
      <contour>
        <pt x="1234" y="1658" on="1"/>
        <pt x="1184" y="1644" on="0"/>
        <pt x="1080" y="1644" on="0"/>
        <pt x="994" y="1673" on="0"/>
        <pt x="962" y="1700" on="1"/>
        <pt x="890" y="1761" on="0"/>
        <pt x="890" y="1855" on="1"/>
        <pt x="890" y="1925" on="0"/>
        <pt x="942" y="1967" on="1"/>
        <pt x="983" y="1999" on="0"/>
        <pt x="1036" y="1999" on="0"/>
        <pt x="1062" y="1992" on="0"/>
        <pt x="1066" y="1942" on="0"/>
        <pt x="1080" y="1884" on="0"/>
        <pt x="1095" y="1862" on="1"/>
        <pt x="1129" y="1811" on="0"/>
        <pt x="1236" y="1811" on="0"/>
        <pt x="1318" y="1848" on="0"/>
        <pt x="1351" y="1874" on="1"/>
        <pt x="1416" y="1926" on="0"/>
        <pt x="1440" y="1975" on="1"/>
        <pt x="1450" y="1997" on="0"/>
        <pt x="1483" y="1997" on="0"/>
        <pt x="1499" y="1987" on="0"/>
        <pt x="1506" y="1977" on="1"/>
        <pt x="1545" y="1916" on="0"/>
        <pt x="1458" y="1807" on="1"/>
        <pt x="1370" y="1696" on="0"/>
      </contour>
    </TTGlyph>
    <TTGlyph name="Acircumflex" xMin="-174" yMin="-10" xMax="1472" yMax="2005">
      <contour>
        <pt x="744" y="227" on="1"/>
        <pt x="744" y="362" on="0"/>
        <pt x="821" y="641" on="1"/>
        <pt x="580" y="635" on="0"/>
        <pt x="452" y="627" on="1"/>
        <pt x="413" y="556" on="0"/>
        <pt x="381" y="492" on="1"/>
        <pt x="319" y="369" on="1"/>
        <pt x="196" y="127" on="0"/>
        <pt x="98" y="50" on="1"/>
        <pt x="23" y="-10" on="0"/>
        <pt x="-61" y="-10" on="1"/>
        <pt x="-125" y="-10" on="0"/>
        <pt x="-158" y="32" on="1"/>
        <pt x="-170" y="49" on="0"/>
        <pt x="-174" y="80" on="0"/>
        <pt x="-165" y="85" on="1"/>
        <pt x="-50" y="128" on="0"/>
        <pt x="22" y="216" on="1"/>
        <pt x="85" y="295" on="0"/>
        <pt x="148" y="409" on="1"/>
        <pt x="261" y="611" on="1"/>
        <pt x="198" y="602" on="1"/>
        <pt x="138" y="591" on="0"/>
        <pt x="138" y="621" on="1"/>
        <pt x="138" y="651" on="0"/>
        <pt x="174" y="678" on="1"/>
        <pt x="237" y="725" on="0"/>
        <pt x="297" y="740" on="1"/>
        <pt x="340" y="750" on="1"/>
        <pt x="504" y="1021" on="0"/>
        <pt x="677" y="1237" on="0"/>
        <pt x="820" y="1381" on="0"/>
        <pt x="899" y="1436" on="1"/>
        <pt x="1072" y="1555" on="0"/>
        <pt x="1240" y="1555" on="1"/>
        <pt x="1291" y="1555" on="0"/>
        <pt x="1309" y="1534" on="1"/>
        <pt x="1339" y="1501" on="0"/>
        <pt x="1317" y="1426" on="0"/>
        <pt x="1292" y="1356" on="1"/>
        <pt x="1132" y="920" on="0"/>
        <pt x="1097" y="816" on="1"/>
        <pt x="1113" y="817" on="0"/>
        <pt x="1126" y="817" on="1"/>
        <pt x="1148" y="817" on="1"/>
        <pt x="1260" y="817" on="0"/>
        <pt x="1268" y="795" on="1"/>
        <pt x="1270" y="788" on="0"/>
        <pt x="1270" y="751" on="0"/>
        <pt x="1247" y="703" on="0"/>
        <pt x="1221" y="686" on="1"/>
        <pt x="1168" y="650" on="0"/>
        <pt x="1043" y="644" on="1"/>
        <pt x="975" y="409" on="0"/>
        <pt x="956" y="229" on="0"/>
        <pt x="987" y="166" on="0"/>
        <pt x="1044" y="166" on="0"/>
        <pt x="1080" y="177" on="0"/>
        <pt x="1094" y="184" on="1"/>
        <pt x="1120" y="196" on="1"/>
        <pt x="1130" y="202" on="0"/>
        <pt x="1151" y="202" on="0"/>
        <pt x="1165" y="175" on="0"/>
        <pt x="1165" y="131" on="0"/>
        <pt x="1128" y="70" on="0"/>
        <pt x="1098" y="46" on="1"/>
        <pt x="1028" y="-10" on="0"/>
        <pt x="940" y="-10" on="1"/>
        <pt x="805" y="-10" on="0"/>
        <pt x="760" y="110" on="1"/>
        <pt x="744" y="152" on="0"/>
        <pt x="744" y="185" on="1"/>
      </contour>
      <contour>
        <pt x="544" y="785" on="1"/>
        <pt x="722" y="808" on="0"/>
        <pt x="874" y="812" on="1"/>
        <pt x="902" y="898" on="0"/>
        <pt x="934" y="982" on="1"/>
        <pt x="996" y="1142" on="1"/>
        <pt x="1028" y="1218" on="0"/>
        <pt x="1059" y="1286" on="1"/>
        <pt x="1117" y="1409" on="1"/>
        <pt x="909" y="1355" on="0"/>
        <pt x="706" y="1050" on="1"/>
        <pt x="663" y="986" on="0"/>
        <pt x="622" y="918" on="1"/>
      </contour>
      <contour>
        <pt x="1178" y="1793" on="1"/>
        <pt x="1048" y="1683" on="0"/>
        <pt x="931" y="1641" on="1"/>
        <pt x="913" y="1633" on="0"/>
        <pt x="867" y="1633" on="0"/>
        <pt x="834" y="1645" on="0"/>
        <pt x="822" y="1654" on="1"/>
        <pt x="796" y="1675" on="0"/>
        <pt x="796" y="1722" on="0"/>
        <pt x="850" y="1739" on="0"/>
        <pt x="930" y="1777" on="0"/>
        <pt x="980" y="1808" on="1"/>
        <pt x="1093" y="1879" on="0"/>
        <pt x="1212" y="1992" on="1"/>
        <pt x="1225" y="2005" on="0"/>
        <pt x="1260" y="1986" on="1"/>
        <pt x="1326" y="1952" on="0"/>
        <pt x="1336" y="1896" on="0"/>
        <pt x="1363" y="1831" on="0"/>
        <pt x="1381" y="1800" on="1"/>
        <pt x="1414" y="1743" on="0"/>
        <pt x="1459" y="1687" on="1"/>
        <pt x="1472" y="1667" on="0"/>
        <pt x="1438" y="1648" on="1"/>
        <pt x="1404" y="1628" on="0"/>
        <pt x="1298" y="1636" on="0"/>
        <pt x="1198" y="1716" on="0"/>
      </contour>
    </TTGlyph>
    <TTGlyph name="Adieresis" xMin="-174" yMin="-10" xMax="1542" yMax="1957">
      <contour>
        <pt x="744" y="227" on="1"/>
        <pt x="744" y="362" on="0"/>
        <pt x="821" y="641" on="1"/>
        <pt x="580" y="635" on="0"/>
        <pt x="452" y="627" on="1"/>
        <pt x="413" y="556" on="0"/>
        <pt x="381" y="492" on="1"/>
        <pt x="319" y="369" on="1"/>
        <pt x="196" y="127" on="0"/>
        <pt x="98" y="50" on="1"/>
        <pt x="23" y="-10" on="0"/>
        <pt x="-61" y="-10" on="1"/>
        <pt x="-125" y="-10" on="0"/>
        <pt x="-158" y="32" on="1"/>
        <pt x="-170" y="49" on="0"/>
        <pt x="-174" y="80" on="0"/>
        <pt x="-165" y="85" on="1"/>
        <pt x="-50" y="128" on="0"/>
        <pt x="22" y="216" on="1"/>
        <pt x="85" y="295" on="0"/>
        <pt x="148" y="409" on="1"/>
        <pt x="261" y="611" on="1"/>
        <pt x="198" y="602" on="1"/>
        <pt x="138" y="591" on="0"/>
        <pt x="138" y="621" on="1"/>
        <pt x="138" y="651" on="0"/>
        <pt x="174" y="678" on="1"/>
        <pt x="237" y="725" on="0"/>
        <pt x="297" y="740" on="1"/>
        <pt x="340" y="750" on="1"/>
        <pt x="504" y="1021" on="0"/>
        <pt x="677" y="1237" on="0"/>
        <pt x="820" y="1381" on="0"/>
        <pt x="899" y="1436" on="1"/>
        <pt x="1072" y="1555" on="0"/>
        <pt x="1240" y="1555" on="1"/>
        <pt x="1291" y="1555" on="0"/>
        <pt x="1309" y="1534" on="1"/>
        <pt x="1339" y="1501" on="0"/>
        <pt x="1317" y="1426" on="0"/>
        <pt x="1292" y="1356" on="1"/>
        <pt x="1132" y="920" on="0"/>
        <pt x="1097" y="816" on="1"/>
        <pt x="1113" y="817" on="0"/>
        <pt x="1126" y="817" on="1"/>
        <pt x="1148" y="817" on="1"/>
        <pt x="1260" y="817" on="0"/>
        <pt x="1268" y="795" on="1"/>
        <pt x="1270" y="788" on="0"/>
        <pt x="1270" y="751" on="0"/>
        <pt x="1247" y="703" on="0"/>
        <pt x="1221" y="686" on="1"/>
        <pt x="1168" y="650" on="0"/>
        <pt x="1043" y="644" on="1"/>
        <pt x="975" y="409" on="0"/>
        <pt x="956" y="229" on="0"/>
        <pt x="987" y="166" on="0"/>
        <pt x="1044" y="166" on="0"/>
        <pt x="1080" y="177" on="0"/>
        <pt x="1094" y="184" on="1"/>
        <pt x="1120" y="196" on="1"/>
        <pt x="1130" y="202" on="0"/>
        <pt x="1151" y="202" on="0"/>
        <pt x="1165" y="175" on="0"/>
        <pt x="1165" y="131" on="0"/>
        <pt x="1128" y="70" on="0"/>
        <pt x="1098" y="46" on="1"/>
        <pt x="1028" y="-10" on="0"/>
        <pt x="940" y="-10" on="1"/>
        <pt x="805" y="-10" on="0"/>
        <pt x="760" y="110" on="1"/>
        <pt x="744" y="152" on="0"/>
        <pt x="744" y="185" on="1"/>
      </contour>
      <contour>
        <pt x="544" y="785" on="1"/>
        <pt x="722" y="808" on="0"/>
        <pt x="874" y="812" on="1"/>
        <pt x="902" y="898" on="0"/>
        <pt x="934" y="982" on="1"/>
        <pt x="996" y="1142" on="1"/>
        <pt x="1028" y="1218" on="0"/>
        <pt x="1059" y="1286" on="1"/>
        <pt x="1117" y="1409" on="1"/>
        <pt x="909" y="1355" on="0"/>
        <pt x="706" y="1050" on="1"/>
        <pt x="663" y="986" on="0"/>
        <pt x="622" y="918" on="1"/>
      </contour>
      <contour>
        <pt x="1471" y="1693" on="0"/>
        <pt x="1415" y="1664" on="0"/>
        <pt x="1353" y="1657" on="0"/>
        <pt x="1298" y="1683" on="0"/>
        <pt x="1278" y="1706" on="1"/>
        <pt x="1235" y="1757" on="0"/>
        <pt x="1235" y="1859" on="0"/>
        <pt x="1268" y="1910" on="0"/>
        <pt x="1293" y="1926" on="1"/>
        <pt x="1341" y="1957" on="0"/>
        <pt x="1426" y="1957" on="0"/>
        <pt x="1473" y="1945" on="0"/>
        <pt x="1494" y="1931" on="1"/>
        <pt x="1542" y="1898" on="0"/>
        <pt x="1542" y="1803" on="0"/>
        <pt x="1515" y="1740" on="0"/>
      </contour>
      <contour>
        <pt x="1011" y="1693" on="0"/>
        <pt x="955" y="1664" on="0"/>
        <pt x="893" y="1657" on="0"/>
        <pt x="838" y="1683" on="0"/>
        <pt x="818" y="1706" on="1"/>
        <pt x="775" y="1757" on="0"/>
        <pt x="775" y="1859" on="0"/>
        <pt x="808" y="1910" on="0"/>
        <pt x="833" y="1926" on="1"/>
        <pt x="881" y="1957" on="0"/>
        <pt x="966" y="1957" on="0"/>
        <pt x="1013" y="1945" on="0"/>
        <pt x="1034" y="1931" on="1"/>
        <pt x="1082" y="1898" on="0"/>
        <pt x="1082" y="1803" on="0"/>
        <pt x="1055" y="1740" on="0"/>
      </contour>
    </TTGlyph>
    <TTGlyph name="Agrave" xMin="-174" yMin="-10" xMax="1339" yMax="1999">
      <contour>
        <pt x="744" y="227" on="1"/>
        <pt x="744" y="362" on="0"/>
        <pt x="821" y="641" on="1"/>
        <pt x="580" y="635" on="0"/>
        <pt x="452" y="627" on="1"/>
        <pt x="413" y="556" on="0"/>
        <pt x="381" y="492" on="1"/>
        <pt x="319" y="369" on="1"/>
        <pt x="196" y="127" on="0"/>
        <pt x="98" y="50" on="1"/>
        <pt x="23" y="-10" on="0"/>
        <pt x="-61" y="-10" on="1"/>
        <pt x="-125" y="-10" on="0"/>
        <pt x="-158" y="32" on="1"/>
        <pt x="-170" y="49" on="0"/>
        <pt x="-174" y="80" on="0"/>
        <pt x="-165" y="85" on="1"/>
        <pt x="-50" y="128" on="0"/>
        <pt x="22" y="216" on="1"/>
        <pt x="85" y="295" on="0"/>
        <pt x="148" y="409" on="1"/>
        <pt x="261" y="611" on="1"/>
        <pt x="198" y="602" on="1"/>
        <pt x="138" y="591" on="0"/>
        <pt x="138" y="621" on="1"/>
        <pt x="138" y="651" on="0"/>
        <pt x="174" y="678" on="1"/>
        <pt x="237" y="725" on="0"/>
        <pt x="297" y="740" on="1"/>
        <pt x="340" y="750" on="1"/>
        <pt x="504" y="1021" on="0"/>
        <pt x="677" y="1237" on="0"/>
        <pt x="820" y="1381" on="0"/>
        <pt x="899" y="1436" on="1"/>
        <pt x="1072" y="1555" on="0"/>
        <pt x="1240" y="1555" on="1"/>
        <pt x="1291" y="1555" on="0"/>
        <pt x="1309" y="1534" on="1"/>
        <pt x="1339" y="1501" on="0"/>
        <pt x="1317" y="1426" on="0"/>
        <pt x="1292" y="1356" on="1"/>
        <pt x="1132" y="920" on="0"/>
        <pt x="1097" y="816" on="1"/>
        <pt x="1113" y="817" on="0"/>
        <pt x="1126" y="817" on="1"/>
        <pt x="1148" y="817" on="1"/>
        <pt x="1260" y="817" on="0"/>
        <pt x="1268" y="795" on="1"/>
        <pt x="1270" y="788" on="0"/>
        <pt x="1270" y="751" on="0"/>
        <pt x="1247" y="703" on="0"/>
        <pt x="1221" y="686" on="1"/>
        <pt x="1168" y="650" on="0"/>
        <pt x="1043" y="644" on="1"/>
        <pt x="975" y="409" on="0"/>
        <pt x="956" y="229" on="0"/>
        <pt x="987" y="166" on="0"/>
        <pt x="1044" y="166" on="0"/>
        <pt x="1080" y="177" on="0"/>
        <pt x="1094" y="184" on="1"/>
        <pt x="1120" y="196" on="1"/>
        <pt x="1130" y="202" on="0"/>
        <pt x="1151" y="202" on="0"/>
        <pt x="1165" y="175" on="0"/>
        <pt x="1165" y="131" on="0"/>
        <pt x="1128" y="70" on="0"/>
        <pt x="1098" y="46" on="1"/>
        <pt x="1028" y="-10" on="0"/>
        <pt x="940" y="-10" on="1"/>
        <pt x="805" y="-10" on="0"/>
        <pt x="760" y="110" on="1"/>
        <pt x="744" y="152" on="0"/>
        <pt x="744" y="185" on="1"/>
      </contour>
      <contour>
        <pt x="544" y="785" on="1"/>
        <pt x="722" y="808" on="0"/>
        <pt x="874" y="812" on="1"/>
        <pt x="902" y="898" on="0"/>
        <pt x="934" y="982" on="1"/>
        <pt x="996" y="1142" on="1"/>
        <pt x="1028" y="1218" on="0"/>
        <pt x="1059" y="1286" on="1"/>
        <pt x="1117" y="1409" on="1"/>
        <pt x="909" y="1355" on="0"/>
        <pt x="706" y="1050" on="1"/>
        <pt x="663" y="986" on="0"/>
        <pt x="622" y="918" on="1"/>
      </contour>
      <contour>
        <pt x="1265" y="1670" on="1"/>
        <pt x="1265" y="1633" on="0"/>
        <pt x="1223" y="1633" on="1"/>
        <pt x="1119" y="1633" on="0"/>
        <pt x="1015" y="1698" on="1"/>
        <pt x="901" y="1768" on="0"/>
        <pt x="898" y="1855" on="1"/>
        <pt x="898" y="1909" on="0"/>
        <pt x="928" y="1941" on="1"/>
        <pt x="981" y="1999" on="0"/>
        <pt x="1043" y="1999" on="1"/>
        <pt x="1082" y="1999" on="0"/>
        <pt x="1092" y="1955" on="1"/>
        <pt x="1123" y="1810" on="0"/>
        <pt x="1231" y="1718" on="1"/>
        <pt x="1265" y="1689" on="0"/>
      </contour>
    </TTGlyph>
    <TTGlyph name="Amacron" xMin="-174" yMin="-10" xMax="1505" yMax="1882">
      <contour>
        <pt x="744" y="227" on="1"/>
        <pt x="744" y="362" on="0"/>
        <pt x="821" y="641" on="1"/>
        <pt x="580" y="635" on="0"/>
        <pt x="452" y="627" on="1"/>
        <pt x="413" y="556" on="0"/>
        <pt x="381" y="492" on="1"/>
        <pt x="319" y="369" on="1"/>
        <pt x="196" y="127" on="0"/>
        <pt x="98" y="50" on="1"/>
        <pt x="23" y="-10" on="0"/>
        <pt x="-61" y="-10" on="1"/>
        <pt x="-125" y="-10" on="0"/>
        <pt x="-158" y="32" on="1"/>
        <pt x="-170" y="49" on="0"/>
        <pt x="-174" y="80" on="0"/>
        <pt x="-165" y="85" on="1"/>
        <pt x="-50" y="128" on="0"/>
        <pt x="22" y="216" on="1"/>
        <pt x="85" y="295" on="0"/>
        <pt x="148" y="409" on="1"/>
        <pt x="261" y="611" on="1"/>
        <pt x="198" y="602" on="1"/>
        <pt x="138" y="591" on="0"/>
        <pt x="138" y="621" on="1"/>
        <pt x="138" y="651" on="0"/>
        <pt x="174" y="678" on="1"/>
        <pt x="237" y="725" on="0"/>
        <pt x="297" y="740" on="1"/>
        <pt x="340" y="750" on="1"/>
        <pt x="504" y="1021" on="0"/>
        <pt x="677" y="1237" on="0"/>
        <pt x="820" y="1381" on="0"/>
        <pt x="899" y="1436" on="1"/>
        <pt x="1072" y="1555" on="0"/>
        <pt x="1240" y="1555" on="1"/>
        <pt x="1291" y="1555" on="0"/>
        <pt x="1309" y="1534" on="1"/>
        <pt x="1339" y="1501" on="0"/>
        <pt x="1317" y="1426" on="0"/>
        <pt x="1292" y="1356" on="1"/>
        <pt x="1132" y="920" on="0"/>
        <pt x="1097" y="816" on="1"/>
        <pt x="1113" y="817" on="0"/>
        <pt x="1126" y="817" on="1"/>
        <pt x="1148" y="817" on="1"/>
        <pt x="1260" y="817" on="0"/>
        <pt x="1268" y="795" on="1"/>
        <pt x="1270" y="788" on="0"/>
        <pt x="1270" y="751" on="0"/>
        <pt x="1247" y="703" on="0"/>
        <pt x="1221" y="686" on="1"/>
        <pt x="1168" y="650" on="0"/>
        <pt x="1043" y="644" on="1"/>
        <pt x="975" y="409" on="0"/>
        <pt x="956" y="229" on="0"/>
        <pt x="987" y="166" on="0"/>
        <pt x="1044" y="166" on="0"/>
        <pt x="1080" y="177" on="0"/>
        <pt x="1094" y="184" on="1"/>
        <pt x="1120" y="196" on="1"/>
        <pt x="1130" y="202" on="0"/>
        <pt x="1151" y="202" on="0"/>
        <pt x="1165" y="175" on="0"/>
        <pt x="1165" y="131" on="0"/>
        <pt x="1128" y="70" on="0"/>
        <pt x="1098" y="46" on="1"/>
        <pt x="1028" y="-10" on="0"/>
        <pt x="940" y="-10" on="1"/>
        <pt x="805" y="-10" on="0"/>
        <pt x="760" y="110" on="1"/>
        <pt x="744" y="152" on="0"/>
        <pt x="744" y="185" on="1"/>
      </contour>
      <contour>
        <pt x="544" y="785" on="1"/>
        <pt x="722" y="808" on="0"/>
        <pt x="874" y="812" on="1"/>
        <pt x="902" y="898" on="0"/>
        <pt x="934" y="982" on="1"/>
        <pt x="996" y="1142" on="1"/>
        <pt x="1028" y="1218" on="0"/>
        <pt x="1059" y="1286" on="1"/>
        <pt x="1117" y="1409" on="1"/>
        <pt x="909" y="1355" on="0"/>
        <pt x="706" y="1050" on="1"/>
        <pt x="663" y="986" on="0"/>
        <pt x="622" y="918" on="1"/>
      </contour>
      <contour>
        <pt x="787" y="1740" on="1"/>
        <pt x="787" y="1779" on="0"/>
        <pt x="816" y="1811" on="1"/>
        <pt x="871" y="1870" on="0"/>
        <pt x="923" y="1870" on="1"/>
        <pt x="1449" y="1880" on="1"/>
        <pt x="1505" y="1882" on="0"/>
        <pt x="1505" y="1839" on="1"/>
        <pt x="1505" y="1799" on="0"/>
        <pt x="1471" y="1762" on="1"/>
        <pt x="1411" y="1695" on="0"/>
        <pt x="1340" y="1695" on="0"/>
        <pt x="1256" y="1696" on="0"/>
        <pt x="1156" y="1697" on="0"/>
        <pt x="1101" y="1698" on="1"/>
        <pt x="993" y="1702" on="1"/>
        <pt x="871" y="1705" on="0"/>
        <pt x="787" y="1712" on="0"/>
      </contour>
    </TTGlyph>
    <TTGlyph name="Aogonek" xMin="-174" yMin="-505" xMax="1339" yMax="1555">
      <contour>
        <pt x="744" y="226" on="1"/>
        <pt x="744" y="362" on="0"/>
        <pt x="821" y="641" on="1"/>
        <pt x="580" y="635" on="0"/>
        <pt x="452" y="627" on="1"/>
        <pt x="413" y="556" on="0"/>
        <pt x="381" y="492" on="1"/>
        <pt x="319" y="369" on="1"/>
        <pt x="196" y="127" on="0"/>
        <pt x="98" y="50" on="1"/>
        <pt x="23" y="-10" on="0"/>
        <pt x="-61" y="-10" on="1"/>
        <pt x="-125" y="-10" on="0"/>
        <pt x="-158" y="32" on="1"/>
        <pt x="-170" y="49" on="0"/>
        <pt x="-174" y="80" on="0"/>
        <pt x="-165" y="85" on="1"/>
        <pt x="-50" y="128" on="0"/>
        <pt x="22" y="216" on="1"/>
        <pt x="85" y="295" on="0"/>
        <pt x="148" y="409" on="1"/>
        <pt x="261" y="611" on="1"/>
        <pt x="198" y="602" on="1"/>
        <pt x="138" y="591" on="0"/>
        <pt x="138" y="621" on="1"/>
        <pt x="138" y="651" on="0"/>
        <pt x="174" y="678" on="1"/>
        <pt x="237" y="725" on="0"/>
        <pt x="297" y="740" on="1"/>
        <pt x="340" y="750" on="1"/>
        <pt x="504" y="1021" on="0"/>
        <pt x="677" y="1237" on="0"/>
        <pt x="820" y="1381" on="0"/>
        <pt x="899" y="1436" on="1"/>
        <pt x="1072" y="1555" on="0"/>
        <pt x="1240" y="1555" on="1"/>
        <pt x="1291" y="1555" on="0"/>
        <pt x="1309" y="1534" on="1"/>
        <pt x="1339" y="1501" on="0"/>
        <pt x="1317" y="1426" on="0"/>
        <pt x="1292" y="1356" on="1"/>
        <pt x="1132" y="920" on="0"/>
        <pt x="1097" y="816" on="1"/>
        <pt x="1113" y="817" on="0"/>
        <pt x="1126" y="817" on="1"/>
        <pt x="1148" y="817" on="1"/>
        <pt x="1260" y="817" on="0"/>
        <pt x="1268" y="795" on="1"/>
        <pt x="1270" y="788" on="0"/>
        <pt x="1270" y="751" on="0"/>
        <pt x="1247" y="703" on="0"/>
        <pt x="1221" y="686" on="1"/>
        <pt x="1168" y="650" on="0"/>
        <pt x="1043" y="644" on="1"/>
        <pt x="975" y="409" on="0"/>
        <pt x="956" y="229" on="0"/>
        <pt x="987" y="166" on="0"/>
        <pt x="1044" y="166" on="0"/>
        <pt x="1080" y="177" on="0"/>
        <pt x="1094" y="184" on="1"/>
        <pt x="1120" y="196" on="1"/>
        <pt x="1130" y="202" on="0"/>
        <pt x="1151" y="202" on="0"/>
        <pt x="1165" y="175" on="0"/>
        <pt x="1165" y="136" on="0"/>
        <pt x="1140" y="85" on="0"/>
        <pt x="1118" y="63" on="1"/>
        <pt x="1069" y="16" on="0"/>
        <pt x="1000" y="-2" on="1"/>
        <pt x="982" y="-17" on="0"/>
        <pt x="938" y="-58" on="0"/>
        <pt x="884" y="-118" on="0"/>
        <pt x="864" y="-149" on="1"/>
        <pt x="822" y="-217" on="0"/>
        <pt x="822" y="-337" on="0"/>
        <pt x="868" y="-337" on="1"/>
        <pt x="881" y="-337" on="0"/>
        <pt x="895" y="-330" on="1"/>
        <pt x="923" y="-316" on="1"/>
        <pt x="982" y="-284" on="0"/>
        <pt x="985" y="-326" on="1"/>
        <pt x="987" y="-363" on="0"/>
        <pt x="931" y="-437" on="0"/>
        <pt x="902" y="-458" on="1"/>
        <pt x="836" y="-505" on="0"/>
        <pt x="747" y="-505" on="1"/>
        <pt x="652" y="-505" on="0"/>
        <pt x="620" y="-422" on="1"/>
        <pt x="611" y="-396" on="0"/>
        <pt x="611" y="-317" on="0"/>
        <pt x="653" y="-214" on="0"/>
        <pt x="688" y="-166" on="1"/>
        <pt x="757" y="-71" on="0"/>
        <pt x="860" y="4" on="1"/>
        <pt x="744" y="49" on="0"/>
        <pt x="744" y="209" on="1"/>
      </contour>
      <contour>
        <pt x="544" y="785" on="1"/>
        <pt x="722" y="808" on="0"/>
        <pt x="874" y="812" on="1"/>
        <pt x="902" y="898" on="0"/>
        <pt x="934" y="982" on="1"/>
        <pt x="996" y="1142" on="1"/>
        <pt x="1028" y="1218" on="0"/>
        <pt x="1059" y="1286" on="1"/>
        <pt x="1117" y="1409" on="1"/>
        <pt x="909" y="1355" on="0"/>
        <pt x="706" y="1050" on="1"/>
        <pt x="663" y="986" on="0"/>
        <pt x="622" y="918" on="1"/>
      </contour>
    </TTGlyph>
    <TTGlyph name="Aring" xMin="-174" yMin="-10" xMax="1447" yMax="1979">
      <contour>
        <pt x="744" y="227" on="1"/>
        <pt x="744" y="362" on="0"/>
        <pt x="821" y="641" on="1"/>
        <pt x="580" y="635" on="0"/>
        <pt x="452" y="627" on="1"/>
        <pt x="413" y="556" on="0"/>
        <pt x="381" y="492" on="1"/>
        <pt x="319" y="369" on="1"/>
        <pt x="196" y="127" on="0"/>
        <pt x="98" y="50" on="1"/>
        <pt x="23" y="-10" on="0"/>
        <pt x="-61" y="-10" on="1"/>
        <pt x="-125" y="-10" on="0"/>
        <pt x="-158" y="32" on="1"/>
        <pt x="-170" y="49" on="0"/>
        <pt x="-174" y="80" on="0"/>
        <pt x="-165" y="85" on="1"/>
        <pt x="-50" y="128" on="0"/>
        <pt x="22" y="216" on="1"/>
        <pt x="85" y="295" on="0"/>
        <pt x="148" y="409" on="1"/>
        <pt x="261" y="611" on="1"/>
        <pt x="198" y="602" on="1"/>
        <pt x="138" y="591" on="0"/>
        <pt x="138" y="621" on="1"/>
        <pt x="138" y="651" on="0"/>
        <pt x="174" y="678" on="1"/>
        <pt x="237" y="725" on="0"/>
        <pt x="297" y="740" on="1"/>
        <pt x="340" y="750" on="1"/>
        <pt x="504" y="1021" on="0"/>
        <pt x="677" y="1237" on="0"/>
        <pt x="820" y="1381" on="0"/>
        <pt x="899" y="1436" on="1"/>
        <pt x="1072" y="1555" on="0"/>
        <pt x="1240" y="1555" on="1"/>
        <pt x="1291" y="1555" on="0"/>
        <pt x="1309" y="1534" on="1"/>
        <pt x="1339" y="1501" on="0"/>
        <pt x="1317" y="1426" on="0"/>
        <pt x="1292" y="1356" on="1"/>
        <pt x="1132" y="920" on="0"/>
        <pt x="1097" y="816" on="1"/>
        <pt x="1113" y="817" on="0"/>
        <pt x="1126" y="817" on="1"/>
        <pt x="1148" y="817" on="1"/>
        <pt x="1260" y="817" on="0"/>
        <pt x="1268" y="795" on="1"/>
        <pt x="1270" y="788" on="0"/>
        <pt x="1270" y="751" on="0"/>
        <pt x="1247" y="703" on="0"/>
        <pt x="1221" y="686" on="1"/>
        <pt x="1168" y="650" on="0"/>
        <pt x="1043" y="644" on="1"/>
        <pt x="975" y="409" on="0"/>
        <pt x="956" y="229" on="0"/>
        <pt x="987" y="166" on="0"/>
        <pt x="1044" y="166" on="0"/>
        <pt x="1080" y="177" on="0"/>
        <pt x="1094" y="184" on="1"/>
        <pt x="1120" y="196" on="1"/>
        <pt x="1130" y="202" on="0"/>
        <pt x="1151" y="202" on="0"/>
        <pt x="1165" y="175" on="0"/>
        <pt x="1165" y="131" on="0"/>
        <pt x="1128" y="70" on="0"/>
        <pt x="1098" y="46" on="1"/>
        <pt x="1028" y="-10" on="0"/>
        <pt x="940" y="-10" on="1"/>
        <pt x="805" y="-10" on="0"/>
        <pt x="760" y="110" on="1"/>
        <pt x="744" y="152" on="0"/>
        <pt x="744" y="185" on="1"/>
      </contour>
      <contour>
        <pt x="544" y="785" on="1"/>
        <pt x="722" y="808" on="0"/>
        <pt x="874" y="812" on="1"/>
        <pt x="902" y="898" on="0"/>
        <pt x="934" y="982" on="1"/>
        <pt x="996" y="1142" on="1"/>
        <pt x="1028" y="1218" on="0"/>
        <pt x="1059" y="1286" on="1"/>
        <pt x="1117" y="1409" on="1"/>
        <pt x="909" y="1355" on="0"/>
        <pt x="706" y="1050" on="1"/>
        <pt x="663" y="986" on="0"/>
        <pt x="622" y="918" on="1"/>
      </contour>
      <contour>
        <pt x="1317" y="1535" on="0"/>
        <pt x="1199" y="1484" on="0"/>
        <pt x="1076" y="1484" on="0"/>
        <pt x="989" y="1507" on="0"/>
        <pt x="958" y="1531" on="1"/>
        <pt x="892" y="1582" on="0"/>
        <pt x="892" y="1680" on="1"/>
        <pt x="892" y="1798" on="0"/>
        <pt x="982" y="1885" on="1"/>
        <pt x="1080" y="1979" on="0"/>
        <pt x="1222" y="1979" on="1"/>
        <pt x="1379" y="1979" on="0"/>
        <pt x="1430" y="1869" on="1"/>
        <pt x="1447" y="1831" on="0"/>
        <pt x="1447" y="1724" on="0"/>
        <pt x="1401" y="1618" on="0"/>
      </contour>
      <contour>
        <pt x="1104" y="1582" on="1"/>
        <pt x="1117" y="1574" on="0"/>
        <pt x="1165" y="1574" on="0"/>
        <pt x="1216" y="1612" on="0"/>
        <pt x="1234" y="1642" on="1"/>
        <pt x="1273" y="1706" on="0"/>
        <pt x="1273" y="1784" on="1"/>
        <pt x="1273" y="1889" on="0"/>
        <pt x="1202" y="1889" on="1"/>
        <pt x="1151" y="1889" on="0"/>
        <pt x="1109" y="1828" on="1"/>
        <pt x="1064" y="1764" on="0"/>
        <pt x="1064" y="1675" on="1"/>
        <pt x="1064" y="1609" on="0"/>
      </contour>
    </TTGlyph>
    <TTGlyph name="Atilde" xMin="-174" yMin="-10" xMax="1552" yMax="1980">
      <contour>
        <pt x="744" y="227" on="1"/>
        <pt x="744" y="362" on="0"/>
        <pt x="821" y="641" on="1"/>
        <pt x="580" y="635" on="0"/>
        <pt x="452" y="627" on="1"/>
        <pt x="413" y="556" on="0"/>
        <pt x="381" y="492" on="1"/>
        <pt x="319" y="369" on="1"/>
        <pt x="196" y="127" on="0"/>
        <pt x="98" y="50" on="1"/>
        <pt x="23" y="-10" on="0"/>
        <pt x="-61" y="-10" on="1"/>
        <pt x="-125" y="-10" on="0"/>
        <pt x="-158" y="32" on="1"/>
        <pt x="-170" y="49" on="0"/>
        <pt x="-174" y="80" on="0"/>
        <pt x="-165" y="85" on="1"/>
        <pt x="-50" y="128" on="0"/>
        <pt x="22" y="216" on="1"/>
        <pt x="85" y="295" on="0"/>
        <pt x="148" y="409" on="1"/>
        <pt x="261" y="611" on="1"/>
        <pt x="198" y="602" on="1"/>
        <pt x="138" y="591" on="0"/>
        <pt x="138" y="621" on="1"/>
        <pt x="138" y="651" on="0"/>
        <pt x="174" y="678" on="1"/>
        <pt x="237" y="725" on="0"/>
        <pt x="297" y="740" on="1"/>
        <pt x="340" y="750" on="1"/>
        <pt x="504" y="1021" on="0"/>
        <pt x="677" y="1237" on="0"/>
        <pt x="820" y="1381" on="0"/>
        <pt x="899" y="1436" on="1"/>
        <pt x="1072" y="1555" on="0"/>
        <pt x="1240" y="1555" on="1"/>
        <pt x="1291" y="1555" on="0"/>
        <pt x="1309" y="1534" on="1"/>
        <pt x="1339" y="1501" on="0"/>
        <pt x="1317" y="1426" on="0"/>
        <pt x="1292" y="1356" on="1"/>
        <pt x="1132" y="920" on="0"/>
        <pt x="1097" y="816" on="1"/>
        <pt x="1113" y="817" on="0"/>
        <pt x="1126" y="817" on="1"/>
        <pt x="1148" y="817" on="1"/>
        <pt x="1260" y="817" on="0"/>
        <pt x="1268" y="795" on="1"/>
        <pt x="1270" y="788" on="0"/>
        <pt x="1270" y="751" on="0"/>
        <pt x="1247" y="703" on="0"/>
        <pt x="1221" y="686" on="1"/>
        <pt x="1168" y="650" on="0"/>
        <pt x="1043" y="644" on="1"/>
        <pt x="975" y="409" on="0"/>
        <pt x="956" y="229" on="0"/>
        <pt x="987" y="166" on="0"/>
        <pt x="1044" y="166" on="0"/>
        <pt x="1080" y="177" on="0"/>
        <pt x="1094" y="184" on="1"/>
        <pt x="1120" y="196" on="1"/>
        <pt x="1130" y="202" on="0"/>
        <pt x="1151" y="202" on="0"/>
        <pt x="1165" y="175" on="0"/>
        <pt x="1165" y="131" on="0"/>
        <pt x="1128" y="70" on="0"/>
        <pt x="1098" y="46" on="1"/>
        <pt x="1028" y="-10" on="0"/>
        <pt x="940" y="-10" on="1"/>
        <pt x="805" y="-10" on="0"/>
        <pt x="760" y="110" on="1"/>
        <pt x="744" y="152" on="0"/>
        <pt x="744" y="185" on="1"/>
      </contour>
      <contour>
        <pt x="544" y="785" on="1"/>
        <pt x="722" y="808" on="0"/>
        <pt x="874" y="812" on="1"/>
        <pt x="902" y="898" on="0"/>
        <pt x="934" y="982" on="1"/>
        <pt x="996" y="1142" on="1"/>
        <pt x="1028" y="1218" on="0"/>
        <pt x="1059" y="1286" on="1"/>
        <pt x="1117" y="1409" on="1"/>
        <pt x="909" y="1355" on="0"/>
        <pt x="706" y="1050" on="1"/>
        <pt x="663" y="986" on="0"/>
        <pt x="622" y="918" on="1"/>
      </contour>
      <contour>
        <pt x="816" y="1656" on="1"/>
        <pt x="767" y="1656" on="0"/>
        <pt x="773" y="1761" on="0"/>
        <pt x="828" y="1854" on="0"/>
        <pt x="871" y="1892" on="1"/>
        <pt x="967" y="1980" on="0"/>
        <pt x="1067" y="1980" on="1"/>
        <pt x="1151" y="1980" on="0"/>
        <pt x="1215" y="1904" on="1"/>
        <pt x="1247" y="1868" on="1"/>
        <pt x="1282" y="1829" on="0"/>
        <pt x="1344" y="1829" on="0"/>
        <pt x="1389" y="1849" on="0"/>
        <pt x="1407" y="1864" on="1"/>
        <pt x="1432" y="1885" on="0"/>
        <pt x="1463" y="1933" on="1"/>
        <pt x="1476" y="1967" on="0"/>
        <pt x="1500" y="1967" on="1"/>
        <pt x="1552" y="1967" on="0"/>
        <pt x="1548" y="1905" on="1"/>
        <pt x="1542" y="1815" on="0"/>
        <pt x="1443" y="1729" on="1"/>
        <pt x="1343" y="1642" on="0"/>
        <pt x="1240" y="1642" on="1"/>
        <pt x="1155" y="1642" on="0"/>
        <pt x="1093" y="1718" on="1"/>
        <pt x="1062" y="1754" on="1"/>
        <pt x="1028" y="1793" on="0"/>
        <pt x="966" y="1793" on="0"/>
        <pt x="926" y="1773" on="0"/>
        <pt x="910" y="1758" on="1"/>
        <pt x="885" y="1734" on="0"/>
        <pt x="838" y="1656" on="0"/>
      </contour>
    </TTGlyph>
    <TTGlyph name="B" xMin="91" yMin="-10" xMax="1228" yMax="1555">
      <contour>
        <pt x="112" y="148" on="1"/>
        <pt x="91" y="204" on="0"/>
        <pt x="95" y="363" on="0"/>
        <pt x="136" y="587" on="0"/>
        <pt x="178" y="715" on="1"/>
        <pt x="275" y="1012" on="0"/>
        <pt x="442" y="1240" on="1"/>
        <pt x="471" y="1279" on="0"/>
        <pt x="534" y="1279" on="0"/>
        <pt x="595" y="1251" on="0"/>
        <pt x="618" y="1232" on="1"/>
        <pt x="676" y="1184" on="0"/>
        <pt x="656" y="1154" on="1"/>
        <pt x="515" y="928" on="0"/>
        <pt x="425" y="746" on="1"/>
        <pt x="652" y="762" on="0"/>
        <pt x="825" y="890" on="1"/>
        <pt x="1014" y="1029" on="0"/>
        <pt x="1014" y="1228" on="1"/>
        <pt x="1014" y="1363" on="0"/>
        <pt x="880" y="1400" on="1"/>
        <pt x="839" y="1411" on="0"/>
        <pt x="726" y="1411" on="0"/>
        <pt x="605" y="1388" on="0"/>
        <pt x="549" y="1368" on="1"/>
        <pt x="438" y="1327" on="0"/>
        <pt x="346" y="1260" on="1"/>
        <pt x="320" y="1241" on="0"/>
        <pt x="276" y="1241" on="0"/>
        <pt x="224" y="1264" on="0"/>
        <pt x="204" y="1281" on="1"/>
        <pt x="126" y="1347" on="0"/>
        <pt x="226" y="1418" on="1"/>
        <pt x="371" y="1520" on="0"/>
        <pt x="654" y="1550" on="1"/>
        <pt x="707" y="1555" on="0"/>
        <pt x="884" y="1555" on="0"/>
        <pt x="1069" y="1497" on="0"/>
        <pt x="1125" y="1448" on="1"/>
        <pt x="1228" y="1356" on="0"/>
        <pt x="1228" y="1192" on="1"/>
        <pt x="1228" y="1044" on="0"/>
        <pt x="1111" y="900" on="1"/>
        <pt x="1004" y="767" on="0"/>
        <pt x="835" y="684" on="1"/>
        <pt x="916" y="648" on="0"/>
        <pt x="997" y="519" on="0"/>
        <pt x="993" y="370" on="0"/>
        <pt x="938" y="245" on="0"/>
        <pt x="845" y="144" on="0"/>
        <pt x="722" y="67" on="0"/>
        <pt x="654" y="42" on="1"/>
        <pt x="515" y="-10" on="0"/>
        <pt x="372" y="-10" on="1"/>
        <pt x="171" y="-10" on="0"/>
      </contour>
      <contour>
        <pt x="354" y="584" on="1"/>
        <pt x="278" y="395" on="0"/>
        <pt x="274" y="255" on="1"/>
        <pt x="272" y="187" on="0"/>
        <pt x="343" y="114" on="0"/>
        <pt x="467" y="114" on="0"/>
        <pt x="599" y="168" on="0"/>
        <pt x="654" y="214" on="1"/>
        <pt x="780" y="320" on="0"/>
        <pt x="784" y="454" on="1"/>
        <pt x="787" y="576" on="0"/>
        <pt x="674" y="620" on="1"/>
        <pt x="640" y="633" on="0"/>
        <pt x="601" y="637" on="1"/>
        <pt x="554" y="635" on="0"/>
        <pt x="385" y="591" on="0"/>
      </contour>
    </TTGlyph>
    <TTGlyph name="C" xMin="98" yMin="-10" xMax="1243" yMax="1555">
      <contour>
        <pt x="98" y="420" on="1"/>
        <pt x="99" y="449" on="1"/>
        <pt x="110" y="748" on="0"/>
        <pt x="250" y="1014" on="1"/>
        <pt x="379" y="1257" on="0"/>
        <pt x="575" y="1407" on="1"/>
        <pt x="769" y="1555" on="0"/>
        <pt x="953" y="1555" on="1"/>
        <pt x="1093" y="1555" on="0"/>
        <pt x="1174" y="1458" on="1"/>
        <pt x="1243" y="1374" on="0"/>
        <pt x="1243" y="1252" on="1"/>
        <pt x="1243" y="1106" on="0"/>
        <pt x="1136" y="964" on="1"/>
        <pt x="1074" y="882" on="0"/>
        <pt x="1004" y="846" on="1"/>
        <pt x="971" y="828" on="0"/>
        <pt x="914" y="828" on="0"/>
        <pt x="866" y="852" on="0"/>
        <pt x="848" y="870" on="1"/>
        <pt x="811" y="909" on="0"/>
        <pt x="811" y="971" on="0"/>
        <pt x="827" y="983" on="1"/>
        <pt x="991" y="1101" on="0"/>
        <pt x="1050" y="1226" on="1"/>
        <pt x="1073" y="1274" on="0"/>
        <pt x="1073" y="1320" on="1"/>
        <pt x="1073" y="1417" on="0"/>
        <pt x="981" y="1417" on="1"/>
        <pt x="837" y="1417" on="0"/>
        <pt x="684" y="1260" on="1"/>
        <pt x="541" y="1115" on="0"/>
        <pt x="444" y="896" on="1"/>
        <pt x="343" y="671" on="0"/>
        <pt x="337" y="483" on="1"/>
        <pt x="336" y="445" on="1"/>
        <pt x="336" y="220" on="0"/>
        <pt x="431" y="150" on="1"/>
        <pt x="465" y="125" on="0"/>
        <pt x="560" y="125" on="0"/>
        <pt x="644" y="149" on="0"/>
        <pt x="686" y="170" on="1"/>
        <pt x="754" y="205" on="0"/>
        <pt x="860" y="291" on="1"/>
        <pt x="892" y="316" on="0"/>
        <pt x="913" y="284" on="1"/>
        <pt x="931" y="258" on="0"/>
        <pt x="931" y="224" on="1"/>
        <pt x="931" y="167" on="0"/>
        <pt x="900" y="126" on="0"/>
        <pt x="825" y="70" on="0"/>
        <pt x="771" y="46" on="1"/>
        <pt x="645" y="-10" on="0"/>
        <pt x="403" y="-10" on="0"/>
        <pt x="255" y="49" on="0"/>
        <pt x="204" y="104" on="1"/>
        <pt x="98" y="220" on="0"/>
      </contour>
    </TTGlyph>
    <TTGlyph name="Cacute" xMin="98" yMin="-10" xMax="1390" yMax="2005">
      <contour>
        <pt x="98" y="420" on="1"/>
        <pt x="99" y="449" on="1"/>
        <pt x="110" y="748" on="0"/>
        <pt x="250" y="1014" on="1"/>
        <pt x="379" y="1257" on="0"/>
        <pt x="575" y="1407" on="1"/>
        <pt x="769" y="1555" on="0"/>
        <pt x="953" y="1555" on="1"/>
        <pt x="1093" y="1555" on="0"/>
        <pt x="1174" y="1458" on="1"/>
        <pt x="1243" y="1374" on="0"/>
        <pt x="1243" y="1252" on="1"/>
        <pt x="1243" y="1106" on="0"/>
        <pt x="1136" y="964" on="1"/>
        <pt x="1074" y="882" on="0"/>
        <pt x="1004" y="846" on="1"/>
        <pt x="971" y="828" on="0"/>
        <pt x="914" y="828" on="0"/>
        <pt x="866" y="852" on="0"/>
        <pt x="848" y="870" on="1"/>
        <pt x="811" y="909" on="0"/>
        <pt x="811" y="971" on="0"/>
        <pt x="827" y="983" on="1"/>
        <pt x="991" y="1101" on="0"/>
        <pt x="1050" y="1226" on="1"/>
        <pt x="1073" y="1274" on="0"/>
        <pt x="1073" y="1320" on="1"/>
        <pt x="1073" y="1417" on="0"/>
        <pt x="981" y="1417" on="1"/>
        <pt x="837" y="1417" on="0"/>
        <pt x="684" y="1260" on="1"/>
        <pt x="541" y="1115" on="0"/>
        <pt x="444" y="896" on="1"/>
        <pt x="343" y="671" on="0"/>
        <pt x="337" y="483" on="1"/>
        <pt x="336" y="445" on="1"/>
        <pt x="336" y="220" on="0"/>
        <pt x="431" y="150" on="1"/>
        <pt x="465" y="125" on="0"/>
        <pt x="560" y="125" on="0"/>
        <pt x="644" y="149" on="0"/>
        <pt x="686" y="170" on="1"/>
        <pt x="754" y="205" on="0"/>
        <pt x="860" y="291" on="1"/>
        <pt x="892" y="316" on="0"/>
        <pt x="913" y="284" on="1"/>
        <pt x="931" y="258" on="0"/>
        <pt x="931" y="224" on="1"/>
        <pt x="931" y="167" on="0"/>
        <pt x="900" y="126" on="0"/>
        <pt x="825" y="70" on="0"/>
        <pt x="771" y="46" on="1"/>
        <pt x="645" y="-10" on="0"/>
        <pt x="403" y="-10" on="0"/>
        <pt x="255" y="49" on="0"/>
        <pt x="204" y="104" on="1"/>
        <pt x="98" y="220" on="0"/>
      </contour>
      <contour>
        <pt x="1194" y="1671" on="0"/>
        <pt x="1082" y="1630" on="0"/>
        <pt x="1009" y="1628" on="0"/>
        <pt x="1000" y="1640" on="1"/>
        <pt x="981" y="1666" on="0"/>
        <pt x="1003" y="1687" on="1"/>
        <pt x="1049" y="1731" on="1"/>
        <pt x="1143" y="1817" on="0"/>
        <pt x="1177" y="1910" on="1"/>
        <pt x="1196" y="1965" on="1"/>
        <pt x="1209" y="2005" on="0"/>
        <pt x="1271" y="1998" on="1"/>
        <pt x="1324" y="1992" on="0"/>
        <pt x="1390" y="1911" on="0"/>
        <pt x="1372" y="1819" on="0"/>
        <pt x="1296" y="1737" on="0"/>
      </contour>
    </TTGlyph>
    <TTGlyph name="Ccaron" xMin="98" yMin="-10" xMax="1463" yMax="1977">
      <contour>
        <pt x="98" y="420" on="1"/>
        <pt x="99" y="449" on="1"/>
        <pt x="110" y="748" on="0"/>
        <pt x="250" y="1014" on="1"/>
        <pt x="379" y="1257" on="0"/>
        <pt x="575" y="1407" on="1"/>
        <pt x="769" y="1555" on="0"/>
        <pt x="953" y="1555" on="1"/>
        <pt x="1093" y="1555" on="0"/>
        <pt x="1174" y="1458" on="1"/>
        <pt x="1243" y="1374" on="0"/>
        <pt x="1243" y="1252" on="1"/>
        <pt x="1243" y="1106" on="0"/>
        <pt x="1136" y="964" on="1"/>
        <pt x="1074" y="882" on="0"/>
        <pt x="1004" y="846" on="1"/>
        <pt x="971" y="828" on="0"/>
        <pt x="914" y="828" on="0"/>
        <pt x="866" y="852" on="0"/>
        <pt x="848" y="870" on="1"/>
        <pt x="811" y="909" on="0"/>
        <pt x="811" y="971" on="0"/>
        <pt x="827" y="983" on="1"/>
        <pt x="991" y="1101" on="0"/>
        <pt x="1050" y="1226" on="1"/>
        <pt x="1073" y="1274" on="0"/>
        <pt x="1073" y="1320" on="1"/>
        <pt x="1073" y="1417" on="0"/>
        <pt x="981" y="1417" on="1"/>
        <pt x="837" y="1417" on="0"/>
        <pt x="684" y="1260" on="1"/>
        <pt x="541" y="1115" on="0"/>
        <pt x="444" y="896" on="1"/>
        <pt x="343" y="671" on="0"/>
        <pt x="337" y="483" on="1"/>
        <pt x="336" y="445" on="1"/>
        <pt x="336" y="220" on="0"/>
        <pt x="431" y="150" on="1"/>
        <pt x="465" y="125" on="0"/>
        <pt x="560" y="125" on="0"/>
        <pt x="644" y="149" on="0"/>
        <pt x="686" y="170" on="1"/>
        <pt x="754" y="205" on="0"/>
        <pt x="860" y="291" on="1"/>
        <pt x="892" y="316" on="0"/>
        <pt x="913" y="284" on="1"/>
        <pt x="931" y="258" on="0"/>
        <pt x="931" y="224" on="1"/>
        <pt x="931" y="167" on="0"/>
        <pt x="900" y="126" on="0"/>
        <pt x="825" y="70" on="0"/>
        <pt x="771" y="46" on="1"/>
        <pt x="645" y="-10" on="0"/>
        <pt x="403" y="-10" on="0"/>
        <pt x="255" y="49" on="0"/>
        <pt x="204" y="104" on="1"/>
        <pt x="98" y="220" on="0"/>
      </contour>
      <contour>
        <pt x="1012" y="1638" on="1"/>
        <pt x="995" y="1632" on="0"/>
        <pt x="968" y="1648" on="1"/>
        <pt x="918" y="1678" on="0"/>
        <pt x="914" y="1702" on="1"/>
        <pt x="901" y="1745" on="0"/>
        <pt x="878" y="1782" on="1"/>
        <pt x="846" y="1833" on="1"/>
        <pt x="832" y="1853" on="0"/>
        <pt x="813" y="1868" on="1"/>
        <pt x="779" y="1895" on="0"/>
        <pt x="768" y="1919" on="0"/>
        <pt x="785" y="1941" on="0"/>
        <pt x="803" y="1950" on="1"/>
        <pt x="839" y="1966" on="0"/>
        <pt x="929" y="1974" on="0"/>
        <pt x="993" y="1948" on="0"/>
        <pt x="1019" y="1924" on="1"/>
        <pt x="1068" y="1878" on="0"/>
        <pt x="1101" y="1791" on="1"/>
        <pt x="1327" y="1904" on="0"/>
        <pt x="1376" y="1961" on="1"/>
        <pt x="1389" y="1977" on="0"/>
        <pt x="1417" y="1977" on="0"/>
        <pt x="1437" y="1964" on="0"/>
        <pt x="1445" y="1953" on="1"/>
        <pt x="1463" y="1928" on="0"/>
        <pt x="1463" y="1904" on="1"/>
        <pt x="1463" y="1857" on="0"/>
        <pt x="1412" y="1802" on="0"/>
        <pt x="1331" y="1762" on="0"/>
        <pt x="1276" y="1741" on="1"/>
        <pt x="1154" y="1696" on="1"/>
        <pt x="1087" y="1671" on="0"/>
      </contour>
    </TTGlyph>
    <TTGlyph name="Ccedilla" xMin="93" yMin="-460" xMax="1243" yMax="1555">
      <contour>
        <pt x="390" y="-102" on="1"/>
        <pt x="390" y="-17" on="0"/>
        <pt x="319" y="14" on="1"/>
        <pt x="319" y="24" on="1"/>
        <pt x="208" y="72" on="0"/>
        <pt x="93" y="290" on="0"/>
        <pt x="105" y="605" on="0"/>
        <pt x="186" y="891" on="0"/>
        <pt x="315" y="1136" on="0"/>
        <pt x="482" y="1336" on="0"/>
        <pt x="575" y="1407" on="1"/>
        <pt x="769" y="1555" on="0"/>
        <pt x="953" y="1555" on="1"/>
        <pt x="1093" y="1555" on="0"/>
        <pt x="1174" y="1458" on="1"/>
        <pt x="1243" y="1374" on="0"/>
        <pt x="1243" y="1252" on="1"/>
        <pt x="1243" y="1106" on="0"/>
        <pt x="1136" y="964" on="1"/>
        <pt x="1074" y="882" on="0"/>
        <pt x="1004" y="846" on="1"/>
        <pt x="971" y="828" on="0"/>
        <pt x="914" y="828" on="0"/>
        <pt x="866" y="852" on="0"/>
        <pt x="848" y="870" on="1"/>
        <pt x="811" y="909" on="0"/>
        <pt x="811" y="971" on="0"/>
        <pt x="827" y="983" on="1"/>
        <pt x="991" y="1101" on="0"/>
        <pt x="1050" y="1226" on="1"/>
        <pt x="1073" y="1274" on="0"/>
        <pt x="1073" y="1320" on="1"/>
        <pt x="1073" y="1417" on="0"/>
        <pt x="981" y="1417" on="1"/>
        <pt x="837" y="1417" on="0"/>
        <pt x="684" y="1260" on="1"/>
        <pt x="541" y="1115" on="0"/>
        <pt x="444" y="896" on="1"/>
        <pt x="343" y="671" on="0"/>
        <pt x="337" y="483" on="1"/>
        <pt x="336" y="445" on="1"/>
        <pt x="336" y="220" on="0"/>
        <pt x="431" y="150" on="1"/>
        <pt x="465" y="125" on="0"/>
        <pt x="560" y="125" on="0"/>
        <pt x="644" y="149" on="0"/>
        <pt x="686" y="170" on="1"/>
        <pt x="754" y="205" on="0"/>
        <pt x="860" y="291" on="1"/>
        <pt x="892" y="316" on="0"/>
        <pt x="913" y="284" on="1"/>
        <pt x="931" y="258" on="0"/>
        <pt x="931" y="224" on="1"/>
        <pt x="931" y="167" on="0"/>
        <pt x="900" y="126" on="0"/>
        <pt x="825" y="70" on="0"/>
        <pt x="771" y="46" on="1"/>
        <pt x="645" y="-10" on="0"/>
        <pt x="496" y="-10" on="1"/>
        <pt x="492" y="-10" on="0"/>
        <pt x="486" y="-9" on="0"/>
        <pt x="483" y="-9" on="1"/>
        <pt x="542" y="-98" on="0"/>
        <pt x="542" y="-250" on="0"/>
        <pt x="502" y="-351" on="0"/>
        <pt x="470" y="-386" on="1"/>
        <pt x="405" y="-460" on="0"/>
        <pt x="320" y="-460" on="1"/>
        <pt x="273" y="-460" on="0"/>
        <pt x="247" y="-433" on="1"/>
        <pt x="204" y="-388" on="0"/>
        <pt x="204" y="-342" on="1"/>
        <pt x="204" y="-309" on="0"/>
        <pt x="228" y="-304" on="1"/>
        <pt x="240" y="-301" on="0"/>
        <pt x="271" y="-296" on="0"/>
        <pt x="313" y="-269" on="0"/>
        <pt x="350" y="-227" on="0"/>
        <pt x="363" y="-203" on="1"/>
        <pt x="390" y="-153" on="0"/>
      </contour>
    </TTGlyph>
    <TTGlyph name="Ccircumflex" xMin="98" yMin="-10" xMax="1409" yMax="2005">
      <contour>
        <pt x="98" y="420" on="1"/>
        <pt x="99" y="449" on="1"/>
        <pt x="110" y="748" on="0"/>
        <pt x="250" y="1014" on="1"/>
        <pt x="379" y="1257" on="0"/>
        <pt x="575" y="1407" on="1"/>
        <pt x="769" y="1555" on="0"/>
        <pt x="953" y="1555" on="1"/>
        <pt x="1093" y="1555" on="0"/>
        <pt x="1174" y="1458" on="1"/>
        <pt x="1243" y="1374" on="0"/>
        <pt x="1243" y="1252" on="1"/>
        <pt x="1243" y="1106" on="0"/>
        <pt x="1136" y="964" on="1"/>
        <pt x="1074" y="882" on="0"/>
        <pt x="1004" y="846" on="1"/>
        <pt x="971" y="828" on="0"/>
        <pt x="914" y="828" on="0"/>
        <pt x="866" y="852" on="0"/>
        <pt x="848" y="870" on="1"/>
        <pt x="811" y="909" on="0"/>
        <pt x="811" y="971" on="0"/>
        <pt x="827" y="983" on="1"/>
        <pt x="991" y="1101" on="0"/>
        <pt x="1050" y="1226" on="1"/>
        <pt x="1073" y="1274" on="0"/>
        <pt x="1073" y="1320" on="1"/>
        <pt x="1073" y="1417" on="0"/>
        <pt x="981" y="1417" on="1"/>
        <pt x="837" y="1417" on="0"/>
        <pt x="684" y="1260" on="1"/>
        <pt x="541" y="1115" on="0"/>
        <pt x="444" y="896" on="1"/>
        <pt x="343" y="671" on="0"/>
        <pt x="337" y="483" on="1"/>
        <pt x="336" y="445" on="1"/>
        <pt x="336" y="220" on="0"/>
        <pt x="431" y="150" on="1"/>
        <pt x="465" y="125" on="0"/>
        <pt x="560" y="125" on="0"/>
        <pt x="644" y="149" on="0"/>
        <pt x="686" y="170" on="1"/>
        <pt x="754" y="205" on="0"/>
        <pt x="860" y="291" on="1"/>
        <pt x="892" y="316" on="0"/>
        <pt x="913" y="284" on="1"/>
        <pt x="931" y="258" on="0"/>
        <pt x="931" y="224" on="1"/>
        <pt x="931" y="167" on="0"/>
        <pt x="900" y="126" on="0"/>
        <pt x="825" y="70" on="0"/>
        <pt x="771" y="46" on="1"/>
        <pt x="645" y="-10" on="0"/>
        <pt x="403" y="-10" on="0"/>
        <pt x="255" y="49" on="0"/>
        <pt x="204" y="104" on="1"/>
        <pt x="98" y="220" on="0"/>
      </contour>
      <contour>
        <pt x="1115" y="1793" on="1"/>
        <pt x="985" y="1683" on="0"/>
        <pt x="868" y="1641" on="1"/>
        <pt x="850" y="1633" on="0"/>
        <pt x="804" y="1633" on="0"/>
        <pt x="771" y="1645" on="0"/>
        <pt x="759" y="1654" on="1"/>
        <pt x="733" y="1675" on="0"/>
        <pt x="733" y="1722" on="0"/>
        <pt x="787" y="1739" on="0"/>
        <pt x="867" y="1777" on="0"/>
        <pt x="917" y="1808" on="1"/>
        <pt x="1030" y="1879" on="0"/>
        <pt x="1149" y="1992" on="1"/>
        <pt x="1162" y="2005" on="0"/>
        <pt x="1197" y="1986" on="1"/>
        <pt x="1263" y="1952" on="0"/>
        <pt x="1273" y="1896" on="0"/>
        <pt x="1300" y="1831" on="0"/>
        <pt x="1318" y="1800" on="1"/>
        <pt x="1351" y="1743" on="0"/>
        <pt x="1396" y="1687" on="1"/>
        <pt x="1409" y="1667" on="0"/>
        <pt x="1375" y="1648" on="1"/>
        <pt x="1341" y="1628" on="0"/>
        <pt x="1235" y="1636" on="0"/>
        <pt x="1135" y="1716" on="0"/>
      </contour>
    </TTGlyph>
    <TTGlyph name="Cdotaccent" xMin="98" yMin="-10" xMax="1243" yMax="1966">
      <contour>
        <pt x="98" y="420" on="1"/>
        <pt x="99" y="449" on="1"/>
        <pt x="110" y="748" on="0"/>
        <pt x="250" y="1014" on="1"/>
        <pt x="379" y="1257" on="0"/>
        <pt x="575" y="1407" on="1"/>
        <pt x="769" y="1555" on="0"/>
        <pt x="953" y="1555" on="1"/>
        <pt x="1093" y="1555" on="0"/>
        <pt x="1174" y="1458" on="1"/>
        <pt x="1243" y="1374" on="0"/>
        <pt x="1243" y="1252" on="1"/>
        <pt x="1243" y="1106" on="0"/>
        <pt x="1136" y="964" on="1"/>
        <pt x="1074" y="882" on="0"/>
        <pt x="1004" y="846" on="1"/>
        <pt x="971" y="828" on="0"/>
        <pt x="914" y="828" on="0"/>
        <pt x="866" y="852" on="0"/>
        <pt x="848" y="870" on="1"/>
        <pt x="811" y="909" on="0"/>
        <pt x="811" y="971" on="0"/>
        <pt x="827" y="983" on="1"/>
        <pt x="991" y="1101" on="0"/>
        <pt x="1050" y="1226" on="1"/>
        <pt x="1073" y="1274" on="0"/>
        <pt x="1073" y="1320" on="1"/>
        <pt x="1073" y="1417" on="0"/>
        <pt x="981" y="1417" on="1"/>
        <pt x="837" y="1417" on="0"/>
        <pt x="684" y="1260" on="1"/>
        <pt x="541" y="1115" on="0"/>
        <pt x="444" y="896" on="1"/>
        <pt x="343" y="671" on="0"/>
        <pt x="337" y="483" on="1"/>
        <pt x="336" y="445" on="1"/>
        <pt x="336" y="220" on="0"/>
        <pt x="431" y="150" on="1"/>
        <pt x="465" y="125" on="0"/>
        <pt x="560" y="125" on="0"/>
        <pt x="644" y="149" on="0"/>
        <pt x="686" y="170" on="1"/>
        <pt x="754" y="205" on="0"/>
        <pt x="860" y="291" on="1"/>
        <pt x="892" y="316" on="0"/>
        <pt x="913" y="284" on="1"/>
        <pt x="931" y="258" on="0"/>
        <pt x="931" y="224" on="1"/>
        <pt x="931" y="167" on="0"/>
        <pt x="900" y="126" on="0"/>
        <pt x="825" y="70" on="0"/>
        <pt x="771" y="46" on="1"/>
        <pt x="645" y="-10" on="0"/>
        <pt x="403" y="-10" on="0"/>
        <pt x="255" y="49" on="0"/>
        <pt x="204" y="104" on="1"/>
        <pt x="98" y="220" on="0"/>
      </contour>
      <contour>
        <pt x="1103" y="1702" on="0"/>
        <pt x="1047" y="1673" on="0"/>
        <pt x="985" y="1666" on="0"/>
        <pt x="930" y="1692" on="0"/>
        <pt x="910" y="1716" on="1"/>
        <pt x="867" y="1766" on="0"/>
        <pt x="867" y="1868" on="0"/>
        <pt x="900" y="1919" on="0"/>
        <pt x="925" y="1935" on="1"/>
        <pt x="973" y="1966" on="0"/>
        <pt x="1058" y="1966" on="0"/>
        <pt x="1105" y="1954" on="0"/>
        <pt x="1126" y="1940" on="1"/>
        <pt x="1174" y="1907" on="0"/>
        <pt x="1174" y="1812" on="0"/>
        <pt x="1147" y="1749" on="0"/>
      </contour>
    </TTGlyph>
    <TTGlyph name="D" xMin="68" yMin="-10" xMax="1312" yMax="1555">
      <contour>
        <pt x="83" y="236" on="1"/>
        <pt x="92" y="301" on="0"/>
        <pt x="151" y="530" on="0"/>
        <pt x="197" y="660" on="1"/>
        <pt x="302" y="958" on="0"/>
        <pt x="446" y="1191" on="1"/>
        <pt x="466" y="1223" on="0"/>
        <pt x="497" y="1228" on="1"/>
        <pt x="541" y="1234" on="0"/>
        <pt x="608" y="1234" on="0"/>
        <pt x="661" y="1219" on="0"/>
        <pt x="676" y="1207" on="1"/>
        <pt x="706" y="1182" on="0"/>
        <pt x="686" y="1154" on="1"/>
        <pt x="505" y="881" on="0"/>
        <pt x="370" y="488" on="1"/>
        <pt x="319" y="338" on="0"/>
        <pt x="299" y="221" on="0"/>
        <pt x="290" y="178" on="0"/>
        <pt x="290" y="162" on="1"/>
        <pt x="290" y="129" on="0"/>
        <pt x="374" y="129" on="0"/>
        <pt x="478" y="168" on="0"/>
        <pt x="598" y="239" on="0"/>
        <pt x="727" y="341" on="0"/>
        <pt x="851" y="468" on="0"/>
        <pt x="961" y="616" on="0"/>
        <pt x="1002" y="698" on="1"/>
        <pt x="1093" y="878" on="0"/>
        <pt x="1093" y="1053" on="1"/>
        <pt x="1093" y="1293" on="0"/>
        <pt x="898" y="1372" on="1"/>
        <pt x="830" y="1399" on="0"/>
        <pt x="683" y="1399" on="0"/>
        <pt x="581" y="1380" on="0"/>
        <pt x="534" y="1363" on="1"/>
        <pt x="439" y="1329" on="0"/>
        <pt x="374" y="1272" on="1"/>
        <pt x="357" y="1262" on="0"/>
        <pt x="309" y="1262" on="0"/>
        <pt x="254" y="1290" on="0"/>
        <pt x="232" y="1311" on="1"/>
        <pt x="182" y="1360" on="0"/>
        <pt x="192" y="1405" on="1"/>
        <pt x="203" y="1469" on="0"/>
        <pt x="384" y="1516" on="1"/>
        <pt x="536" y="1555" on="0"/>
        <pt x="844" y="1555" on="0"/>
        <pt x="1091" y="1471" on="0"/>
        <pt x="1168" y="1400" on="1"/>
        <pt x="1312" y="1266" on="0"/>
        <pt x="1312" y="1041" on="1"/>
        <pt x="1312" y="743" on="0"/>
        <pt x="1106" y="466" on="1"/>
        <pt x="917" y="209" on="0"/>
        <pt x="656" y="76" on="1"/>
        <pt x="487" y="-10" on="0"/>
        <pt x="345" y="-10" on="1"/>
        <pt x="234" y="-10" on="0"/>
        <pt x="154" y="55" on="1"/>
        <pt x="68" y="124" on="0"/>
      </contour>
    </TTGlyph>
    <TTGlyph name="Dcaron" xMin="68" yMin="-10" xMax="1347" yMax="1977">
      <contour>
        <pt x="83" y="236" on="1"/>
        <pt x="92" y="301" on="0"/>
        <pt x="151" y="530" on="0"/>
        <pt x="197" y="660" on="1"/>
        <pt x="302" y="958" on="0"/>
        <pt x="446" y="1191" on="1"/>
        <pt x="466" y="1223" on="0"/>
        <pt x="497" y="1228" on="1"/>
        <pt x="541" y="1234" on="0"/>
        <pt x="608" y="1234" on="0"/>
        <pt x="661" y="1219" on="0"/>
        <pt x="676" y="1207" on="1"/>
        <pt x="706" y="1182" on="0"/>
        <pt x="686" y="1154" on="1"/>
        <pt x="505" y="881" on="0"/>
        <pt x="370" y="488" on="1"/>
        <pt x="319" y="338" on="0"/>
        <pt x="299" y="221" on="0"/>
        <pt x="290" y="178" on="0"/>
        <pt x="290" y="162" on="1"/>
        <pt x="290" y="129" on="0"/>
        <pt x="374" y="129" on="0"/>
        <pt x="478" y="168" on="0"/>
        <pt x="598" y="239" on="0"/>
        <pt x="727" y="341" on="0"/>
        <pt x="851" y="468" on="0"/>
        <pt x="961" y="616" on="0"/>
        <pt x="1002" y="698" on="1"/>
        <pt x="1093" y="878" on="0"/>
        <pt x="1093" y="1053" on="1"/>
        <pt x="1093" y="1293" on="0"/>
        <pt x="898" y="1372" on="1"/>
        <pt x="830" y="1399" on="0"/>
        <pt x="683" y="1399" on="0"/>
        <pt x="581" y="1380" on="0"/>
        <pt x="534" y="1363" on="1"/>
        <pt x="439" y="1329" on="0"/>
        <pt x="374" y="1272" on="1"/>
        <pt x="357" y="1262" on="0"/>
        <pt x="309" y="1262" on="0"/>
        <pt x="254" y="1290" on="0"/>
        <pt x="232" y="1311" on="1"/>
        <pt x="182" y="1360" on="0"/>
        <pt x="192" y="1405" on="1"/>
        <pt x="203" y="1469" on="0"/>
        <pt x="384" y="1516" on="1"/>
        <pt x="536" y="1555" on="0"/>
        <pt x="844" y="1555" on="0"/>
        <pt x="1091" y="1471" on="0"/>
        <pt x="1168" y="1400" on="1"/>
        <pt x="1312" y="1266" on="0"/>
        <pt x="1312" y="1041" on="1"/>
        <pt x="1312" y="743" on="0"/>
        <pt x="1106" y="466" on="1"/>
        <pt x="917" y="209" on="0"/>
        <pt x="656" y="76" on="1"/>
        <pt x="487" y="-10" on="0"/>
        <pt x="345" y="-10" on="1"/>
        <pt x="234" y="-10" on="0"/>
        <pt x="154" y="55" on="1"/>
        <pt x="68" y="124" on="0"/>
      </contour>
      <contour>
        <pt x="896" y="1638" on="1"/>
        <pt x="879" y="1632" on="0"/>
        <pt x="852" y="1648" on="1"/>
        <pt x="802" y="1678" on="0"/>
        <pt x="798" y="1702" on="1"/>
        <pt x="785" y="1745" on="0"/>
        <pt x="762" y="1782" on="1"/>
        <pt x="730" y="1833" on="1"/>
        <pt x="716" y="1853" on="0"/>
        <pt x="697" y="1868" on="1"/>
        <pt x="663" y="1895" on="0"/>
        <pt x="652" y="1919" on="0"/>
        <pt x="669" y="1941" on="0"/>
        <pt x="687" y="1950" on="1"/>
        <pt x="723" y="1966" on="0"/>
        <pt x="813" y="1974" on="0"/>
        <pt x="877" y="1948" on="0"/>
        <pt x="903" y="1924" on="1"/>
        <pt x="952" y="1878" on="0"/>
        <pt x="985" y="1791" on="1"/>
        <pt x="1211" y="1904" on="0"/>
        <pt x="1260" y="1961" on="1"/>
        <pt x="1273" y="1977" on="0"/>
        <pt x="1301" y="1977" on="0"/>
        <pt x="1321" y="1964" on="0"/>
        <pt x="1329" y="1953" on="1"/>
        <pt x="1347" y="1928" on="0"/>
        <pt x="1347" y="1904" on="1"/>
        <pt x="1347" y="1857" on="0"/>
        <pt x="1296" y="1802" on="0"/>
        <pt x="1215" y="1762" on="0"/>
        <pt x="1160" y="1741" on="1"/>
        <pt x="1038" y="1696" on="1"/>
        <pt x="971" y="1671" on="0"/>
      </contour>
    </TTGlyph>
    <TTGlyph name="Dcroat" xMin="56" yMin="-10" xMax="1312" yMax="1555">
      <contour>
        <pt x="113" y="774" on="1"/>
        <pt x="56" y="774" on="0"/>
        <pt x="56" y="813" on="1"/>
        <pt x="56" y="848" on="0"/>
        <pt x="85" y="879" on="1"/>
        <pt x="137" y="936" on="0"/>
        <pt x="166" y="934" on="1"/>
        <pt x="788" y="934" on="1"/>
        <pt x="832" y="934" on="0"/>
        <pt x="832" y="894" on="1"/>
        <pt x="832" y="852" on="0"/>
        <pt x="804" y="817" on="1"/>
        <pt x="752" y="754" on="0"/>
        <pt x="715" y="754" on="1"/>
      </contour>
      <contour>
        <pt x="83" y="236" on="1"/>
        <pt x="92" y="301" on="0"/>
        <pt x="151" y="530" on="0"/>
        <pt x="197" y="660" on="1"/>
        <pt x="302" y="958" on="0"/>
        <pt x="446" y="1191" on="1"/>
        <pt x="466" y="1223" on="0"/>
        <pt x="497" y="1228" on="1"/>
        <pt x="541" y="1234" on="0"/>
        <pt x="608" y="1234" on="0"/>
        <pt x="661" y="1219" on="0"/>
        <pt x="676" y="1207" on="1"/>
        <pt x="706" y="1182" on="0"/>
        <pt x="686" y="1154" on="1"/>
        <pt x="505" y="881" on="0"/>
        <pt x="370" y="488" on="1"/>
        <pt x="319" y="338" on="0"/>
        <pt x="299" y="221" on="0"/>
        <pt x="290" y="178" on="0"/>
        <pt x="290" y="162" on="1"/>
        <pt x="290" y="129" on="0"/>
        <pt x="374" y="129" on="0"/>
        <pt x="478" y="168" on="0"/>
        <pt x="598" y="239" on="0"/>
        <pt x="727" y="341" on="0"/>
        <pt x="851" y="468" on="0"/>
        <pt x="961" y="616" on="0"/>
        <pt x="1002" y="698" on="1"/>
        <pt x="1093" y="878" on="0"/>
        <pt x="1093" y="1053" on="1"/>
        <pt x="1093" y="1293" on="0"/>
        <pt x="898" y="1372" on="1"/>
        <pt x="830" y="1399" on="0"/>
        <pt x="683" y="1399" on="0"/>
        <pt x="581" y="1380" on="0"/>
        <pt x="534" y="1363" on="1"/>
        <pt x="439" y="1329" on="0"/>
        <pt x="374" y="1272" on="1"/>
        <pt x="357" y="1262" on="0"/>
        <pt x="309" y="1262" on="0"/>
        <pt x="254" y="1290" on="0"/>
        <pt x="232" y="1311" on="1"/>
        <pt x="182" y="1360" on="0"/>
        <pt x="192" y="1405" on="1"/>
        <pt x="203" y="1469" on="0"/>
        <pt x="384" y="1516" on="1"/>
        <pt x="536" y="1555" on="0"/>
        <pt x="844" y="1555" on="0"/>
        <pt x="1091" y="1471" on="0"/>
        <pt x="1168" y="1400" on="1"/>
        <pt x="1312" y="1266" on="0"/>
        <pt x="1312" y="1041" on="1"/>
        <pt x="1312" y="743" on="0"/>
        <pt x="1106" y="466" on="1"/>
        <pt x="917" y="209" on="0"/>
        <pt x="656" y="76" on="1"/>
        <pt x="487" y="-10" on="0"/>
        <pt x="345" y="-10" on="1"/>
        <pt x="234" y="-10" on="0"/>
        <pt x="154" y="55" on="1"/>
        <pt x="68" y="124" on="0"/>
      </contour>
    </TTGlyph>
    <TTGlyph name="Delta" xMin="22" yMin="0" xMax="1319" yMax="1232">
      <contour>
        <pt x="122" y="0" on="1"/>
        <pt x="22" y="0" on="0"/>
        <pt x="22" y="47" on="1"/>
        <pt x="22" y="69" on="0"/>
        <pt x="38" y="100" on="1"/>
        <pt x="38" y="100" on="0"/>
        <pt x="593" y="1116" on="1"/>
        <pt x="627" y="1171" on="0"/>
        <pt x="717" y="1230" on="0"/>
        <pt x="759" y="1232" on="0"/>
        <pt x="776" y="1225" on="0"/>
        <pt x="786" y="1213" on="1"/>
        <pt x="805" y="1188" on="0"/>
        <pt x="837" y="1119" on="1"/>
        <pt x="1301" y="121" on="1"/>
        <pt x="1319" y="84" on="0"/>
        <pt x="1258" y="40" on="1"/>
        <pt x="1204" y="0" on="0"/>
        <pt x="1172" y="0" on="1"/>
      </contour>
      <contour>
        <pt x="1088" y="110" on="1"/>
        <pt x="679" y="1005" on="1"/>
        <pt x="195" y="110" on="1"/>
      </contour>
    </TTGlyph>
    <TTGlyph name="E" xMin="82" yMin="-10" xMax="1198" yMax="1555">
      <contour>
        <pt x="1043" y="1333" on="1"/>
        <pt x="1043" y="1417" on="0"/>
        <pt x="943" y="1417" on="1"/>
        <pt x="752" y="1417" on="0"/>
        <pt x="596" y="1240" on="1"/>
        <pt x="504" y="1136" on="0"/>
        <pt x="467" y="1015" on="1"/>
        <pt x="449" y="956" on="0"/>
        <pt x="449" y="866" on="0"/>
        <pt x="470" y="813" on="0"/>
        <pt x="486" y="796" on="1"/>
        <pt x="520" y="760" on="0"/>
        <pt x="565" y="768" on="1"/>
        <pt x="614" y="788" on="0"/>
        <pt x="689" y="788" on="0"/>
        <pt x="734" y="769" on="0"/>
        <pt x="748" y="755" on="1"/>
        <pt x="777" y="727" on="0"/>
        <pt x="777" y="701" on="1"/>
        <pt x="777" y="650" on="0"/>
        <pt x="743" y="648" on="1"/>
        <pt x="691" y="643" on="0"/>
        <pt x="577" y="595" on="0"/>
        <pt x="461" y="518" on="0"/>
        <pt x="416" y="470" on="1"/>
        <pt x="313" y="360" on="0"/>
        <pt x="313" y="249" on="1"/>
        <pt x="313" y="196" on="0"/>
        <pt x="338" y="169" on="1"/>
        <pt x="380" y="122" on="0"/>
        <pt x="496" y="122" on="0"/>
        <pt x="607" y="167" on="0"/>
        <pt x="652" y="199" on="1"/>
        <pt x="720" y="248" on="0"/>
        <pt x="784" y="324" on="1"/>
        <pt x="816" y="362" on="0"/>
        <pt x="864" y="362" on="0"/>
        <pt x="889" y="305" on="0"/>
        <pt x="889" y="273" on="1"/>
        <pt x="889" y="207" on="0"/>
        <pt x="839" y="144" on="0"/>
        <pt x="764" y="81" on="0"/>
        <pt x="712" y="54" on="1"/>
        <pt x="587" y="-10" on="0"/>
        <pt x="444" y="-10" on="1"/>
        <pt x="203" y="-10" on="0"/>
        <pt x="114" y="148" on="1"/>
        <pt x="82" y="207" on="0"/>
        <pt x="82" y="331" on="0"/>
        <pt x="119" y="437" on="0"/>
        <pt x="177" y="528" on="0"/>
        <pt x="249" y="601" on="0"/>
        <pt x="284" y="628" on="1"/>
        <pt x="353" y="682" on="0"/>
        <pt x="398" y="689" on="1"/>
        <pt x="285" y="734" on="0"/>
        <pt x="246" y="864" on="1"/>
        <pt x="234" y="906" on="0"/>
        <pt x="234" y="1026" on="0"/>
        <pt x="280" y="1171" on="0"/>
        <pt x="364" y="1304" on="0"/>
        <pt x="480" y="1420" on="0"/>
        <pt x="550" y="1463" on="1"/>
        <pt x="701" y="1555" on="0"/>
        <pt x="868" y="1555" on="1"/>
        <pt x="1043" y="1555" on="0"/>
        <pt x="1129" y="1468" on="1"/>
        <pt x="1198" y="1398" on="0"/>
        <pt x="1198" y="1289" on="1"/>
        <pt x="1198" y="1165" on="0"/>
        <pt x="1094" y="1038" on="1"/>
        <pt x="1031" y="962" on="0"/>
        <pt x="930" y="908" on="0"/>
        <pt x="873" y="903" on="0"/>
        <pt x="824" y="922" on="0"/>
        <pt x="806" y="938" on="1"/>
        <pt x="765" y="975" on="0"/>
        <pt x="765" y="1005" on="1"/>
        <pt x="765" y="1042" on="0"/>
        <pt x="791" y="1062" on="1"/>
        <pt x="881" y="1126" on="1"/>
        <pt x="1043" y="1245" on="0"/>
      </contour>
    </TTGlyph>
    <TTGlyph name="Eacute" xMin="82" yMin="-10" xMax="1229" yMax="2005">
      <contour>
        <pt x="1043" y="1333" on="1"/>
        <pt x="1043" y="1417" on="0"/>
        <pt x="943" y="1417" on="1"/>
        <pt x="752" y="1417" on="0"/>
        <pt x="596" y="1240" on="1"/>
        <pt x="504" y="1136" on="0"/>
        <pt x="467" y="1015" on="1"/>
        <pt x="449" y="956" on="0"/>
        <pt x="449" y="866" on="0"/>
        <pt x="470" y="813" on="0"/>
        <pt x="486" y="796" on="1"/>
        <pt x="520" y="760" on="0"/>
        <pt x="565" y="768" on="1"/>
        <pt x="614" y="788" on="0"/>
        <pt x="689" y="788" on="0"/>
        <pt x="734" y="769" on="0"/>
        <pt x="748" y="755" on="1"/>
        <pt x="777" y="727" on="0"/>
        <pt x="777" y="701" on="1"/>
        <pt x="777" y="650" on="0"/>
        <pt x="743" y="648" on="1"/>
        <pt x="691" y="643" on="0"/>
        <pt x="577" y="595" on="0"/>
        <pt x="461" y="518" on="0"/>
        <pt x="416" y="470" on="1"/>
        <pt x="313" y="360" on="0"/>
        <pt x="313" y="249" on="1"/>
        <pt x="313" y="196" on="0"/>
        <pt x="338" y="169" on="1"/>
        <pt x="380" y="122" on="0"/>
        <pt x="496" y="122" on="0"/>
        <pt x="607" y="167" on="0"/>
        <pt x="652" y="199" on="1"/>
        <pt x="720" y="248" on="0"/>
        <pt x="784" y="324" on="1"/>
        <pt x="816" y="362" on="0"/>
        <pt x="864" y="362" on="0"/>
        <pt x="889" y="305" on="0"/>
        <pt x="889" y="273" on="1"/>
        <pt x="889" y="207" on="0"/>
        <pt x="839" y="144" on="0"/>
        <pt x="764" y="81" on="0"/>
        <pt x="712" y="54" on="1"/>
        <pt x="587" y="-10" on="0"/>
        <pt x="444" y="-10" on="1"/>
        <pt x="203" y="-10" on="0"/>
        <pt x="114" y="148" on="1"/>
        <pt x="82" y="207" on="0"/>
        <pt x="82" y="331" on="0"/>
        <pt x="119" y="437" on="0"/>
        <pt x="177" y="528" on="0"/>
        <pt x="249" y="601" on="0"/>
        <pt x="284" y="628" on="1"/>
        <pt x="353" y="682" on="0"/>
        <pt x="398" y="689" on="1"/>
        <pt x="285" y="734" on="0"/>
        <pt x="246" y="864" on="1"/>
        <pt x="234" y="906" on="0"/>
        <pt x="234" y="1026" on="0"/>
        <pt x="280" y="1171" on="0"/>
        <pt x="364" y="1304" on="0"/>
        <pt x="480" y="1420" on="0"/>
        <pt x="550" y="1463" on="1"/>
        <pt x="701" y="1555" on="0"/>
        <pt x="868" y="1555" on="1"/>
        <pt x="1043" y="1555" on="0"/>
        <pt x="1129" y="1468" on="1"/>
        <pt x="1198" y="1398" on="0"/>
        <pt x="1198" y="1289" on="1"/>
        <pt x="1198" y="1165" on="0"/>
        <pt x="1094" y="1038" on="1"/>
        <pt x="1031" y="962" on="0"/>
        <pt x="930" y="908" on="0"/>
        <pt x="873" y="903" on="0"/>
        <pt x="824" y="922" on="0"/>
        <pt x="806" y="938" on="1"/>
        <pt x="765" y="975" on="0"/>
        <pt x="765" y="1005" on="1"/>
        <pt x="765" y="1042" on="0"/>
        <pt x="791" y="1062" on="1"/>
        <pt x="881" y="1126" on="1"/>
        <pt x="1043" y="1245" on="0"/>
      </contour>
      <contour>
        <pt x="1033" y="1671" on="0"/>
        <pt x="921" y="1630" on="0"/>
        <pt x="848" y="1628" on="0"/>
        <pt x="839" y="1640" on="1"/>
        <pt x="820" y="1666" on="0"/>
        <pt x="842" y="1687" on="1"/>
        <pt x="888" y="1731" on="1"/>
        <pt x="982" y="1817" on="0"/>
        <pt x="1016" y="1910" on="1"/>
        <pt x="1035" y="1965" on="1"/>
        <pt x="1048" y="2005" on="0"/>
        <pt x="1110" y="1998" on="1"/>
        <pt x="1163" y="1992" on="0"/>
        <pt x="1229" y="1911" on="0"/>
        <pt x="1211" y="1819" on="0"/>
        <pt x="1135" y="1737" on="0"/>
      </contour>
    </TTGlyph>
    <TTGlyph name="Ebreve" xMin="82" yMin="-10" xMax="1311" yMax="1999">
      <contour>
        <pt x="1043" y="1333" on="1"/>
        <pt x="1043" y="1417" on="0"/>
        <pt x="943" y="1417" on="1"/>
        <pt x="752" y="1417" on="0"/>
        <pt x="596" y="1240" on="1"/>
        <pt x="504" y="1136" on="0"/>
        <pt x="467" y="1015" on="1"/>
        <pt x="449" y="956" on="0"/>
        <pt x="449" y="866" on="0"/>
        <pt x="470" y="813" on="0"/>
        <pt x="486" y="796" on="1"/>
        <pt x="520" y="760" on="0"/>
        <pt x="565" y="768" on="1"/>
        <pt x="614" y="788" on="0"/>
        <pt x="689" y="788" on="0"/>
        <pt x="734" y="769" on="0"/>
        <pt x="748" y="755" on="1"/>
        <pt x="777" y="727" on="0"/>
        <pt x="777" y="701" on="1"/>
        <pt x="777" y="650" on="0"/>
        <pt x="743" y="648" on="1"/>
        <pt x="691" y="643" on="0"/>
        <pt x="577" y="595" on="0"/>
        <pt x="461" y="518" on="0"/>
        <pt x="416" y="470" on="1"/>
        <pt x="313" y="360" on="0"/>
        <pt x="313" y="249" on="1"/>
        <pt x="313" y="196" on="0"/>
        <pt x="338" y="169" on="1"/>
        <pt x="380" y="122" on="0"/>
        <pt x="496" y="122" on="0"/>
        <pt x="607" y="167" on="0"/>
        <pt x="652" y="199" on="1"/>
        <pt x="720" y="248" on="0"/>
        <pt x="784" y="324" on="1"/>
        <pt x="816" y="362" on="0"/>
        <pt x="864" y="362" on="0"/>
        <pt x="889" y="305" on="0"/>
        <pt x="889" y="273" on="1"/>
        <pt x="889" y="207" on="0"/>
        <pt x="839" y="144" on="0"/>
        <pt x="764" y="81" on="0"/>
        <pt x="712" y="54" on="1"/>
        <pt x="587" y="-10" on="0"/>
        <pt x="444" y="-10" on="1"/>
        <pt x="203" y="-10" on="0"/>
        <pt x="114" y="148" on="1"/>
        <pt x="82" y="207" on="0"/>
        <pt x="82" y="331" on="0"/>
        <pt x="119" y="437" on="0"/>
        <pt x="177" y="528" on="0"/>
        <pt x="249" y="601" on="0"/>
        <pt x="284" y="628" on="1"/>
        <pt x="353" y="682" on="0"/>
        <pt x="398" y="689" on="1"/>
        <pt x="285" y="734" on="0"/>
        <pt x="246" y="864" on="1"/>
        <pt x="234" y="906" on="0"/>
        <pt x="234" y="1026" on="0"/>
        <pt x="280" y="1171" on="0"/>
        <pt x="364" y="1304" on="0"/>
        <pt x="480" y="1420" on="0"/>
        <pt x="550" y="1463" on="1"/>
        <pt x="701" y="1555" on="0"/>
        <pt x="868" y="1555" on="1"/>
        <pt x="1043" y="1555" on="0"/>
        <pt x="1129" y="1468" on="1"/>
        <pt x="1198" y="1398" on="0"/>
        <pt x="1198" y="1289" on="1"/>
        <pt x="1198" y="1165" on="0"/>
        <pt x="1094" y="1038" on="1"/>
        <pt x="1031" y="962" on="0"/>
        <pt x="930" y="908" on="0"/>
        <pt x="873" y="903" on="0"/>
        <pt x="824" y="922" on="0"/>
        <pt x="806" y="938" on="1"/>
        <pt x="765" y="975" on="0"/>
        <pt x="765" y="1005" on="1"/>
        <pt x="765" y="1042" on="0"/>
        <pt x="791" y="1062" on="1"/>
        <pt x="881" y="1126" on="1"/>
        <pt x="1043" y="1245" on="0"/>
      </contour>
      <contour>
        <pt x="1000" y="1658" on="1"/>
        <pt x="950" y="1644" on="0"/>
        <pt x="846" y="1644" on="0"/>
        <pt x="760" y="1673" on="0"/>
        <pt x="728" y="1700" on="1"/>
        <pt x="656" y="1761" on="0"/>
        <pt x="656" y="1855" on="1"/>
        <pt x="656" y="1925" on="0"/>
        <pt x="708" y="1967" on="1"/>
        <pt x="749" y="1999" on="0"/>
        <pt x="802" y="1999" on="0"/>
        <pt x="828" y="1992" on="0"/>
        <pt x="832" y="1942" on="0"/>
        <pt x="846" y="1884" on="0"/>
        <pt x="861" y="1862" on="1"/>
        <pt x="895" y="1811" on="0"/>
        <pt x="1002" y="1811" on="0"/>
        <pt x="1084" y="1848" on="0"/>
        <pt x="1117" y="1874" on="1"/>
        <pt x="1182" y="1926" on="0"/>
        <pt x="1206" y="1975" on="1"/>
        <pt x="1216" y="1997" on="0"/>
        <pt x="1249" y="1997" on="0"/>
        <pt x="1265" y="1987" on="0"/>
        <pt x="1272" y="1977" on="1"/>
        <pt x="1311" y="1916" on="0"/>
        <pt x="1224" y="1807" on="1"/>
        <pt x="1136" y="1696" on="0"/>
      </contour>
    </TTGlyph>
    <TTGlyph name="Ecaron" xMin="82" yMin="-10" xMax="1302" yMax="1977">
      <contour>
        <pt x="1043" y="1333" on="1"/>
        <pt x="1043" y="1417" on="0"/>
        <pt x="943" y="1417" on="1"/>
        <pt x="752" y="1417" on="0"/>
        <pt x="596" y="1240" on="1"/>
        <pt x="504" y="1136" on="0"/>
        <pt x="467" y="1015" on="1"/>
        <pt x="449" y="956" on="0"/>
        <pt x="449" y="866" on="0"/>
        <pt x="470" y="813" on="0"/>
        <pt x="486" y="796" on="1"/>
        <pt x="520" y="760" on="0"/>
        <pt x="565" y="768" on="1"/>
        <pt x="614" y="788" on="0"/>
        <pt x="689" y="788" on="0"/>
        <pt x="734" y="769" on="0"/>
        <pt x="748" y="755" on="1"/>
        <pt x="777" y="727" on="0"/>
        <pt x="777" y="701" on="1"/>
        <pt x="777" y="650" on="0"/>
        <pt x="743" y="648" on="1"/>
        <pt x="691" y="643" on="0"/>
        <pt x="577" y="595" on="0"/>
        <pt x="461" y="518" on="0"/>
        <pt x="416" y="470" on="1"/>
        <pt x="313" y="360" on="0"/>
        <pt x="313" y="249" on="1"/>
        <pt x="313" y="196" on="0"/>
        <pt x="338" y="169" on="1"/>
        <pt x="380" y="122" on="0"/>
        <pt x="496" y="122" on="0"/>
        <pt x="607" y="167" on="0"/>
        <pt x="652" y="199" on="1"/>
        <pt x="720" y="248" on="0"/>
        <pt x="784" y="324" on="1"/>
        <pt x="816" y="362" on="0"/>
        <pt x="864" y="362" on="0"/>
        <pt x="889" y="305" on="0"/>
        <pt x="889" y="273" on="1"/>
        <pt x="889" y="207" on="0"/>
        <pt x="839" y="144" on="0"/>
        <pt x="764" y="81" on="0"/>
        <pt x="712" y="54" on="1"/>
        <pt x="587" y="-10" on="0"/>
        <pt x="444" y="-10" on="1"/>
        <pt x="203" y="-10" on="0"/>
        <pt x="114" y="148" on="1"/>
        <pt x="82" y="207" on="0"/>
        <pt x="82" y="331" on="0"/>
        <pt x="119" y="437" on="0"/>
        <pt x="177" y="528" on="0"/>
        <pt x="249" y="601" on="0"/>
        <pt x="284" y="628" on="1"/>
        <pt x="353" y="682" on="0"/>
        <pt x="398" y="689" on="1"/>
        <pt x="285" y="734" on="0"/>
        <pt x="246" y="864" on="1"/>
        <pt x="234" y="906" on="0"/>
        <pt x="234" y="1026" on="0"/>
        <pt x="280" y="1171" on="0"/>
        <pt x="364" y="1304" on="0"/>
        <pt x="480" y="1420" on="0"/>
        <pt x="550" y="1463" on="1"/>
        <pt x="701" y="1555" on="0"/>
        <pt x="868" y="1555" on="1"/>
        <pt x="1043" y="1555" on="0"/>
        <pt x="1129" y="1468" on="1"/>
        <pt x="1198" y="1398" on="0"/>
        <pt x="1198" y="1289" on="1"/>
        <pt x="1198" y="1165" on="0"/>
        <pt x="1094" y="1038" on="1"/>
        <pt x="1031" y="962" on="0"/>
        <pt x="930" y="908" on="0"/>
        <pt x="873" y="903" on="0"/>
        <pt x="824" y="922" on="0"/>
        <pt x="806" y="938" on="1"/>
        <pt x="765" y="975" on="0"/>
        <pt x="765" y="1005" on="1"/>
        <pt x="765" y="1042" on="0"/>
        <pt x="791" y="1062" on="1"/>
        <pt x="881" y="1126" on="1"/>
        <pt x="1043" y="1245" on="0"/>
      </contour>
      <contour>
        <pt x="851" y="1638" on="1"/>
        <pt x="834" y="1632" on="0"/>
        <pt x="807" y="1648" on="1"/>
        <pt x="757" y="1678" on="0"/>
        <pt x="753" y="1702" on="1"/>
        <pt x="740" y="1745" on="0"/>
        <pt x="717" y="1782" on="1"/>
        <pt x="685" y="1833" on="1"/>
        <pt x="671" y="1853" on="0"/>
        <pt x="652" y="1868" on="1"/>
        <pt x="618" y="1895" on="0"/>
        <pt x="607" y="1919" on="0"/>
        <pt x="624" y="1941" on="0"/>
        <pt x="642" y="1950" on="1"/>
        <pt x="678" y="1966" on="0"/>
        <pt x="768" y="1974" on="0"/>
        <pt x="832" y="1948" on="0"/>
        <pt x="858" y="1924" on="1"/>
        <pt x="907" y="1878" on="0"/>
        <pt x="940" y="1791" on="1"/>
        <pt x="1166" y="1904" on="0"/>
        <pt x="1215" y="1961" on="1"/>
        <pt x="1228" y="1977" on="0"/>
        <pt x="1256" y="1977" on="0"/>
        <pt x="1276" y="1964" on="0"/>
        <pt x="1284" y="1953" on="1"/>
        <pt x="1302" y="1928" on="0"/>
        <pt x="1302" y="1904" on="1"/>
        <pt x="1302" y="1857" on="0"/>
        <pt x="1251" y="1802" on="0"/>
        <pt x="1170" y="1762" on="0"/>
        <pt x="1115" y="1741" on="1"/>
        <pt x="993" y="1696" on="1"/>
        <pt x="926" y="1671" on="0"/>
      </contour>
    </TTGlyph>
    <TTGlyph name="Ecircumflex" xMin="82" yMin="-10" xMax="1248" yMax="2005">
      <contour>
        <pt x="1043" y="1333" on="1"/>
        <pt x="1043" y="1417" on="0"/>
        <pt x="943" y="1417" on="1"/>
        <pt x="752" y="1417" on="0"/>
        <pt x="596" y="1240" on="1"/>
        <pt x="504" y="1136" on="0"/>
        <pt x="467" y="1015" on="1"/>
        <pt x="449" y="956" on="0"/>
        <pt x="449" y="866" on="0"/>
        <pt x="470" y="813" on="0"/>
        <pt x="486" y="796" on="1"/>
        <pt x="520" y="760" on="0"/>
        <pt x="565" y="768" on="1"/>
        <pt x="614" y="788" on="0"/>
        <pt x="689" y="788" on="0"/>
        <pt x="734" y="769" on="0"/>
        <pt x="748" y="755" on="1"/>
        <pt x="777" y="727" on="0"/>
        <pt x="777" y="701" on="1"/>
        <pt x="777" y="650" on="0"/>
        <pt x="743" y="648" on="1"/>
        <pt x="691" y="643" on="0"/>
        <pt x="577" y="595" on="0"/>
        <pt x="461" y="518" on="0"/>
        <pt x="416" y="470" on="1"/>
        <pt x="313" y="360" on="0"/>
        <pt x="313" y="249" on="1"/>
        <pt x="313" y="196" on="0"/>
        <pt x="338" y="169" on="1"/>
        <pt x="380" y="122" on="0"/>
        <pt x="496" y="122" on="0"/>
        <pt x="607" y="167" on="0"/>
        <pt x="652" y="199" on="1"/>
        <pt x="720" y="248" on="0"/>
        <pt x="784" y="324" on="1"/>
        <pt x="816" y="362" on="0"/>
        <pt x="864" y="362" on="0"/>
        <pt x="889" y="305" on="0"/>
        <pt x="889" y="273" on="1"/>
        <pt x="889" y="207" on="0"/>
        <pt x="839" y="144" on="0"/>
        <pt x="764" y="81" on="0"/>
        <pt x="712" y="54" on="1"/>
        <pt x="587" y="-10" on="0"/>
        <pt x="444" y="-10" on="1"/>
        <pt x="203" y="-10" on="0"/>
        <pt x="114" y="148" on="1"/>
        <pt x="82" y="207" on="0"/>
        <pt x="82" y="331" on="0"/>
        <pt x="119" y="437" on="0"/>
        <pt x="177" y="528" on="0"/>
        <pt x="249" y="601" on="0"/>
        <pt x="284" y="628" on="1"/>
        <pt x="353" y="682" on="0"/>
        <pt x="398" y="689" on="1"/>
        <pt x="285" y="734" on="0"/>
        <pt x="246" y="864" on="1"/>
        <pt x="234" y="906" on="0"/>
        <pt x="234" y="1026" on="0"/>
        <pt x="280" y="1171" on="0"/>
        <pt x="364" y="1304" on="0"/>
        <pt x="480" y="1420" on="0"/>
        <pt x="550" y="1463" on="1"/>
        <pt x="701" y="1555" on="0"/>
        <pt x="868" y="1555" on="1"/>
        <pt x="1043" y="1555" on="0"/>
        <pt x="1129" y="1468" on="1"/>
        <pt x="1198" y="1398" on="0"/>
        <pt x="1198" y="1289" on="1"/>
        <pt x="1198" y="1165" on="0"/>
        <pt x="1094" y="1038" on="1"/>
        <pt x="1031" y="962" on="0"/>
        <pt x="930" y="908" on="0"/>
        <pt x="873" y="903" on="0"/>
        <pt x="824" y="922" on="0"/>
        <pt x="806" y="938" on="1"/>
        <pt x="765" y="975" on="0"/>
        <pt x="765" y="1005" on="1"/>
        <pt x="765" y="1042" on="0"/>
        <pt x="791" y="1062" on="1"/>
        <pt x="881" y="1126" on="1"/>
        <pt x="1043" y="1245" on="0"/>
      </contour>
      <contour>
        <pt x="954" y="1793" on="1"/>
        <pt x="824" y="1683" on="0"/>
        <pt x="707" y="1641" on="1"/>
        <pt x="689" y="1633" on="0"/>
        <pt x="643" y="1633" on="0"/>
        <pt x="610" y="1645" on="0"/>
        <pt x="598" y="1654" on="1"/>
        <pt x="572" y="1675" on="0"/>
        <pt x="572" y="1722" on="0"/>
        <pt x="626" y="1739" on="0"/>
        <pt x="706" y="1777" on="0"/>
        <pt x="756" y="1808" on="1"/>
        <pt x="869" y="1879" on="0"/>
        <pt x="988" y="1992" on="1"/>
        <pt x="1001" y="2005" on="0"/>
        <pt x="1036" y="1986" on="1"/>
        <pt x="1102" y="1952" on="0"/>
        <pt x="1112" y="1896" on="0"/>
        <pt x="1139" y="1831" on="0"/>
        <pt x="1157" y="1800" on="1"/>
        <pt x="1190" y="1743" on="0"/>
        <pt x="1235" y="1687" on="1"/>
        <pt x="1248" y="1667" on="0"/>
        <pt x="1214" y="1648" on="1"/>
        <pt x="1180" y="1628" on="0"/>
        <pt x="1074" y="1636" on="0"/>
        <pt x="974" y="1716" on="0"/>
      </contour>
    </TTGlyph>
    <TTGlyph name="Edieresis" xMin="82" yMin="-10" xMax="1318" yMax="1957">
      <contour>
        <pt x="1043" y="1333" on="1"/>
        <pt x="1043" y="1417" on="0"/>
        <pt x="943" y="1417" on="1"/>
        <pt x="752" y="1417" on="0"/>
        <pt x="596" y="1240" on="1"/>
        <pt x="504" y="1136" on="0"/>
        <pt x="467" y="1015" on="1"/>
        <pt x="449" y="956" on="0"/>
        <pt x="449" y="866" on="0"/>
        <pt x="470" y="813" on="0"/>
        <pt x="486" y="796" on="1"/>
        <pt x="520" y="760" on="0"/>
        <pt x="565" y="768" on="1"/>
        <pt x="614" y="788" on="0"/>
        <pt x="689" y="788" on="0"/>
        <pt x="734" y="769" on="0"/>
        <pt x="748" y="755" on="1"/>
        <pt x="777" y="727" on="0"/>
        <pt x="777" y="701" on="1"/>
        <pt x="777" y="650" on="0"/>
        <pt x="743" y="648" on="1"/>
        <pt x="691" y="643" on="0"/>
        <pt x="577" y="595" on="0"/>
        <pt x="461" y="518" on="0"/>
        <pt x="416" y="470" on="1"/>
        <pt x="313" y="360" on="0"/>
        <pt x="313" y="249" on="1"/>
        <pt x="313" y="196" on="0"/>
        <pt x="338" y="169" on="1"/>
        <pt x="380" y="122" on="0"/>
        <pt x="496" y="122" on="0"/>
        <pt x="607" y="167" on="0"/>
        <pt x="652" y="199" on="1"/>
        <pt x="720" y="248" on="0"/>
        <pt x="784" y="324" on="1"/>
        <pt x="816" y="362" on="0"/>
        <pt x="864" y="362" on="0"/>
        <pt x="889" y="305" on="0"/>
        <pt x="889" y="273" on="1"/>
        <pt x="889" y="207" on="0"/>
        <pt x="839" y="144" on="0"/>
        <pt x="764" y="81" on="0"/>
        <pt x="712" y="54" on="1"/>
        <pt x="587" y="-10" on="0"/>
        <pt x="444" y="-10" on="1"/>
        <pt x="203" y="-10" on="0"/>
        <pt x="114" y="148" on="1"/>
        <pt x="82" y="207" on="0"/>
        <pt x="82" y="331" on="0"/>
        <pt x="119" y="437" on="0"/>
        <pt x="177" y="528" on="0"/>
        <pt x="249" y="601" on="0"/>
        <pt x="284" y="628" on="1"/>
        <pt x="353" y="682" on="0"/>
        <pt x="398" y="689" on="1"/>
        <pt x="285" y="734" on="0"/>
        <pt x="246" y="864" on="1"/>
        <pt x="234" y="906" on="0"/>
        <pt x="234" y="1026" on="0"/>
        <pt x="280" y="1171" on="0"/>
        <pt x="364" y="1304" on="0"/>
        <pt x="480" y="1420" on="0"/>
        <pt x="550" y="1463" on="1"/>
        <pt x="701" y="1555" on="0"/>
        <pt x="868" y="1555" on="1"/>
        <pt x="1043" y="1555" on="0"/>
        <pt x="1129" y="1468" on="1"/>
        <pt x="1198" y="1398" on="0"/>
        <pt x="1198" y="1289" on="1"/>
        <pt x="1198" y="1165" on="0"/>
        <pt x="1094" y="1038" on="1"/>
        <pt x="1031" y="962" on="0"/>
        <pt x="930" y="908" on="0"/>
        <pt x="873" y="903" on="0"/>
        <pt x="824" y="922" on="0"/>
        <pt x="806" y="938" on="1"/>
        <pt x="765" y="975" on="0"/>
        <pt x="765" y="1005" on="1"/>
        <pt x="765" y="1042" on="0"/>
        <pt x="791" y="1062" on="1"/>
        <pt x="881" y="1126" on="1"/>
        <pt x="1043" y="1245" on="0"/>
      </contour>
      <contour>
        <pt x="1247" y="1693" on="0"/>
        <pt x="1191" y="1664" on="0"/>
        <pt x="1129" y="1657" on="0"/>
        <pt x="1074" y="1683" on="0"/>
        <pt x="1054" y="1706" on="1"/>
        <pt x="1011" y="1757" on="0"/>
        <pt x="1011" y="1859" on="0"/>
        <pt x="1044" y="1910" on="0"/>
        <pt x="1069" y="1926" on="1"/>
        <pt x="1117" y="1957" on="0"/>
        <pt x="1202" y="1957" on="0"/>
        <pt x="1249" y="1945" on="0"/>
        <pt x="1270" y="1931" on="1"/>
        <pt x="1318" y="1898" on="0"/>
        <pt x="1318" y="1803" on="0"/>
        <pt x="1291" y="1740" on="0"/>
      </contour>
      <contour>
        <pt x="787" y="1693" on="0"/>
        <pt x="731" y="1664" on="0"/>
        <pt x="669" y="1657" on="0"/>
        <pt x="614" y="1683" on="0"/>
        <pt x="594" y="1706" on="1"/>
        <pt x="551" y="1757" on="0"/>
        <pt x="551" y="1859" on="0"/>
        <pt x="584" y="1910" on="0"/>
        <pt x="609" y="1926" on="1"/>
        <pt x="657" y="1957" on="0"/>
        <pt x="742" y="1957" on="0"/>
        <pt x="789" y="1945" on="0"/>
        <pt x="810" y="1931" on="1"/>
        <pt x="858" y="1898" on="0"/>
        <pt x="858" y="1803" on="0"/>
        <pt x="831" y="1740" on="0"/>
      </contour>
    </TTGlyph>
    <TTGlyph name="Edotaccent" xMin="82" yMin="-10" xMax="1198" yMax="1966">
      <contour>
        <pt x="1043" y="1333" on="1"/>
        <pt x="1043" y="1417" on="0"/>
        <pt x="943" y="1417" on="1"/>
        <pt x="752" y="1417" on="0"/>
        <pt x="596" y="1240" on="1"/>
        <pt x="504" y="1136" on="0"/>
        <pt x="467" y="1015" on="1"/>
        <pt x="449" y="956" on="0"/>
        <pt x="449" y="866" on="0"/>
        <pt x="470" y="813" on="0"/>
        <pt x="486" y="796" on="1"/>
        <pt x="520" y="760" on="0"/>
        <pt x="565" y="768" on="1"/>
        <pt x="614" y="788" on="0"/>
        <pt x="689" y="788" on="0"/>
        <pt x="734" y="769" on="0"/>
        <pt x="748" y="755" on="1"/>
        <pt x="777" y="727" on="0"/>
        <pt x="777" y="701" on="1"/>
        <pt x="777" y="650" on="0"/>
        <pt x="743" y="648" on="1"/>
        <pt x="691" y="643" on="0"/>
        <pt x="577" y="595" on="0"/>
        <pt x="461" y="518" on="0"/>
        <pt x="416" y="470" on="1"/>
        <pt x="313" y="360" on="0"/>
        <pt x="313" y="249" on="1"/>
        <pt x="313" y="196" on="0"/>
        <pt x="338" y="169" on="1"/>
        <pt x="380" y="122" on="0"/>
        <pt x="496" y="122" on="0"/>
        <pt x="607" y="167" on="0"/>
        <pt x="652" y="199" on="1"/>
        <pt x="720" y="248" on="0"/>
        <pt x="784" y="324" on="1"/>
        <pt x="816" y="362" on="0"/>
        <pt x="864" y="362" on="0"/>
        <pt x="889" y="305" on="0"/>
        <pt x="889" y="273" on="1"/>
        <pt x="889" y="207" on="0"/>
        <pt x="839" y="144" on="0"/>
        <pt x="764" y="81" on="0"/>
        <pt x="712" y="54" on="1"/>
        <pt x="587" y="-10" on="0"/>
        <pt x="444" y="-10" on="1"/>
        <pt x="203" y="-10" on="0"/>
        <pt x="114" y="148" on="1"/>
        <pt x="82" y="207" on="0"/>
        <pt x="82" y="331" on="0"/>
        <pt x="119" y="437" on="0"/>
        <pt x="177" y="528" on="0"/>
        <pt x="249" y="601" on="0"/>
        <pt x="284" y="628" on="1"/>
        <pt x="353" y="682" on="0"/>
        <pt x="398" y="689" on="1"/>
        <pt x="285" y="734" on="0"/>
        <pt x="246" y="864" on="1"/>
        <pt x="234" y="906" on="0"/>
        <pt x="234" y="1026" on="0"/>
        <pt x="280" y="1171" on="0"/>
        <pt x="364" y="1304" on="0"/>
        <pt x="480" y="1420" on="0"/>
        <pt x="550" y="1463" on="1"/>
        <pt x="701" y="1555" on="0"/>
        <pt x="868" y="1555" on="1"/>
        <pt x="1043" y="1555" on="0"/>
        <pt x="1129" y="1468" on="1"/>
        <pt x="1198" y="1398" on="0"/>
        <pt x="1198" y="1289" on="1"/>
        <pt x="1198" y="1165" on="0"/>
        <pt x="1094" y="1038" on="1"/>
        <pt x="1031" y="962" on="0"/>
        <pt x="930" y="908" on="0"/>
        <pt x="873" y="903" on="0"/>
        <pt x="824" y="922" on="0"/>
        <pt x="806" y="938" on="1"/>
        <pt x="765" y="975" on="0"/>
        <pt x="765" y="1005" on="1"/>
        <pt x="765" y="1042" on="0"/>
        <pt x="791" y="1062" on="1"/>
        <pt x="881" y="1126" on="1"/>
        <pt x="1043" y="1245" on="0"/>
      </contour>
      <contour>
        <pt x="942" y="1702" on="0"/>
        <pt x="886" y="1673" on="0"/>
        <pt x="824" y="1666" on="0"/>
        <pt x="769" y="1692" on="0"/>
        <pt x="749" y="1716" on="1"/>
        <pt x="706" y="1766" on="0"/>
        <pt x="706" y="1868" on="0"/>
        <pt x="739" y="1919" on="0"/>
        <pt x="764" y="1935" on="1"/>
        <pt x="812" y="1966" on="0"/>
        <pt x="897" y="1966" on="0"/>
        <pt x="944" y="1954" on="0"/>
        <pt x="965" y="1940" on="1"/>
        <pt x="1013" y="1907" on="0"/>
        <pt x="1013" y="1812" on="0"/>
        <pt x="986" y="1749" on="0"/>
      </contour>
    </TTGlyph>
    <TTGlyph name="Egrave" xMin="82" yMin="-10" xMax="1198" yMax="1999">
      <contour>
        <pt x="1043" y="1333" on="1"/>
        <pt x="1043" y="1417" on="0"/>
        <pt x="943" y="1417" on="1"/>
        <pt x="752" y="1417" on="0"/>
        <pt x="596" y="1240" on="1"/>
        <pt x="504" y="1136" on="0"/>
        <pt x="467" y="1015" on="1"/>
        <pt x="449" y="956" on="0"/>
        <pt x="449" y="866" on="0"/>
        <pt x="470" y="813" on="0"/>
        <pt x="486" y="796" on="1"/>
        <pt x="520" y="760" on="0"/>
        <pt x="565" y="768" on="1"/>
        <pt x="614" y="788" on="0"/>
        <pt x="689" y="788" on="0"/>
        <pt x="734" y="769" on="0"/>
        <pt x="748" y="755" on="1"/>
        <pt x="777" y="727" on="0"/>
        <pt x="777" y="701" on="1"/>
        <pt x="777" y="650" on="0"/>
        <pt x="743" y="648" on="1"/>
        <pt x="691" y="643" on="0"/>
        <pt x="577" y="595" on="0"/>
        <pt x="461" y="518" on="0"/>
        <pt x="416" y="470" on="1"/>
        <pt x="313" y="360" on="0"/>
        <pt x="313" y="249" on="1"/>
        <pt x="313" y="196" on="0"/>
        <pt x="338" y="169" on="1"/>
        <pt x="380" y="122" on="0"/>
        <pt x="496" y="122" on="0"/>
        <pt x="607" y="167" on="0"/>
        <pt x="652" y="199" on="1"/>
        <pt x="720" y="248" on="0"/>
        <pt x="784" y="324" on="1"/>
        <pt x="816" y="362" on="0"/>
        <pt x="864" y="362" on="0"/>
        <pt x="889" y="305" on="0"/>
        <pt x="889" y="273" on="1"/>
        <pt x="889" y="207" on="0"/>
        <pt x="839" y="144" on="0"/>
        <pt x="764" y="81" on="0"/>
        <pt x="712" y="54" on="1"/>
        <pt x="587" y="-10" on="0"/>
        <pt x="444" y="-10" on="1"/>
        <pt x="203" y="-10" on="0"/>
        <pt x="114" y="148" on="1"/>
        <pt x="82" y="207" on="0"/>
        <pt x="82" y="331" on="0"/>
        <pt x="119" y="437" on="0"/>
        <pt x="177" y="528" on="0"/>
        <pt x="249" y="601" on="0"/>
        <pt x="284" y="628" on="1"/>
        <pt x="353" y="682" on="0"/>
        <pt x="398" y="689" on="1"/>
        <pt x="285" y="734" on="0"/>
        <pt x="246" y="864" on="1"/>
        <pt x="234" y="906" on="0"/>
        <pt x="234" y="1026" on="0"/>
        <pt x="280" y="1171" on="0"/>
        <pt x="364" y="1304" on="0"/>
        <pt x="480" y="1420" on="0"/>
        <pt x="550" y="1463" on="1"/>
        <pt x="701" y="1555" on="0"/>
        <pt x="868" y="1555" on="1"/>
        <pt x="1043" y="1555" on="0"/>
        <pt x="1129" y="1468" on="1"/>
        <pt x="1198" y="1398" on="0"/>
        <pt x="1198" y="1289" on="1"/>
        <pt x="1198" y="1165" on="0"/>
        <pt x="1094" y="1038" on="1"/>
        <pt x="1031" y="962" on="0"/>
        <pt x="930" y="908" on="0"/>
        <pt x="873" y="903" on="0"/>
        <pt x="824" y="922" on="0"/>
        <pt x="806" y="938" on="1"/>
        <pt x="765" y="975" on="0"/>
        <pt x="765" y="1005" on="1"/>
        <pt x="765" y="1042" on="0"/>
        <pt x="791" y="1062" on="1"/>
        <pt x="881" y="1126" on="1"/>
        <pt x="1043" y="1245" on="0"/>
      </contour>
      <contour>
        <pt x="1041" y="1670" on="1"/>
        <pt x="1041" y="1633" on="0"/>
        <pt x="999" y="1633" on="1"/>
        <pt x="895" y="1633" on="0"/>
        <pt x="791" y="1698" on="1"/>
        <pt x="677" y="1768" on="0"/>
        <pt x="674" y="1855" on="1"/>
        <pt x="674" y="1909" on="0"/>
        <pt x="704" y="1941" on="1"/>
        <pt x="757" y="1999" on="0"/>
        <pt x="819" y="1999" on="1"/>
        <pt x="858" y="1999" on="0"/>
        <pt x="868" y="1955" on="1"/>
        <pt x="899" y="1810" on="0"/>
        <pt x="1007" y="1718" on="1"/>
        <pt x="1041" y="1689" on="0"/>
      </contour>
    </TTGlyph>
    <TTGlyph name="Emacron" xMin="82" yMin="-10" xMax="1271" yMax="1882">
      <contour>
        <pt x="1043" y="1333" on="1"/>
        <pt x="1043" y="1417" on="0"/>
        <pt x="943" y="1417" on="1"/>
        <pt x="752" y="1417" on="0"/>
        <pt x="596" y="1240" on="1"/>
        <pt x="504" y="1136" on="0"/>
        <pt x="467" y="1015" on="1"/>
        <pt x="449" y="956" on="0"/>
        <pt x="449" y="866" on="0"/>
        <pt x="470" y="813" on="0"/>
        <pt x="486" y="796" on="1"/>
        <pt x="520" y="760" on="0"/>
        <pt x="565" y="768" on="1"/>
        <pt x="614" y="788" on="0"/>
        <pt x="689" y="788" on="0"/>
        <pt x="734" y="769" on="0"/>
        <pt x="748" y="755" on="1"/>
        <pt x="777" y="727" on="0"/>
        <pt x="777" y="701" on="1"/>
        <pt x="777" y="650" on="0"/>
        <pt x="743" y="648" on="1"/>
        <pt x="691" y="643" on="0"/>
        <pt x="577" y="595" on="0"/>
        <pt x="461" y="518" on="0"/>
        <pt x="416" y="470" on="1"/>
        <pt x="313" y="360" on="0"/>
        <pt x="313" y="249" on="1"/>
        <pt x="313" y="196" on="0"/>
        <pt x="338" y="169" on="1"/>
        <pt x="380" y="122" on="0"/>
        <pt x="496" y="122" on="0"/>
        <pt x="607" y="167" on="0"/>
        <pt x="652" y="199" on="1"/>
        <pt x="720" y="248" on="0"/>
        <pt x="784" y="324" on="1"/>
        <pt x="816" y="362" on="0"/>
        <pt x="864" y="362" on="0"/>
        <pt x="889" y="305" on="0"/>
        <pt x="889" y="273" on="1"/>
        <pt x="889" y="207" on="0"/>
        <pt x="839" y="144" on="0"/>
        <pt x="764" y="81" on="0"/>
        <pt x="712" y="54" on="1"/>
        <pt x="587" y="-10" on="0"/>
        <pt x="444" y="-10" on="1"/>
        <pt x="203" y="-10" on="0"/>
        <pt x="114" y="148" on="1"/>
        <pt x="82" y="207" on="0"/>
        <pt x="82" y="331" on="0"/>
        <pt x="119" y="437" on="0"/>
        <pt x="177" y="528" on="0"/>
        <pt x="249" y="601" on="0"/>
        <pt x="284" y="628" on="1"/>
        <pt x="353" y="682" on="0"/>
        <pt x="398" y="689" on="1"/>
        <pt x="285" y="734" on="0"/>
        <pt x="246" y="864" on="1"/>
        <pt x="234" y="906" on="0"/>
        <pt x="234" y="1026" on="0"/>
        <pt x="280" y="1171" on="0"/>
        <pt x="364" y="1304" on="0"/>
        <pt x="480" y="1420" on="0"/>
        <pt x="550" y="1463" on="1"/>
        <pt x="701" y="1555" on="0"/>
        <pt x="868" y="1555" on="1"/>
        <pt x="1043" y="1555" on="0"/>
        <pt x="1129" y="1468" on="1"/>
        <pt x="1198" y="1398" on="0"/>
        <pt x="1198" y="1289" on="1"/>
        <pt x="1198" y="1165" on="0"/>
        <pt x="1094" y="1038" on="1"/>
        <pt x="1031" y="962" on="0"/>
        <pt x="930" y="908" on="0"/>
        <pt x="873" y="903" on="0"/>
        <pt x="824" y="922" on="0"/>
        <pt x="806" y="938" on="1"/>
        <pt x="765" y="975" on="0"/>
        <pt x="765" y="1005" on="1"/>
        <pt x="765" y="1042" on="0"/>
        <pt x="791" y="1062" on="1"/>
        <pt x="881" y="1126" on="1"/>
        <pt x="1043" y="1245" on="0"/>
      </contour>
      <contour>
        <pt x="553" y="1740" on="1"/>
        <pt x="553" y="1779" on="0"/>
        <pt x="582" y="1811" on="1"/>
        <pt x="637" y="1870" on="0"/>
        <pt x="689" y="1870" on="1"/>
        <pt x="1215" y="1880" on="1"/>
        <pt x="1271" y="1882" on="0"/>
        <pt x="1271" y="1839" on="1"/>
        <pt x="1271" y="1799" on="0"/>
        <pt x="1237" y="1762" on="1"/>
        <pt x="1177" y="1695" on="0"/>
        <pt x="1106" y="1695" on="0"/>
        <pt x="1022" y="1696" on="0"/>
        <pt x="922" y="1697" on="0"/>
        <pt x="867" y="1698" on="1"/>
        <pt x="759" y="1702" on="1"/>
        <pt x="637" y="1705" on="0"/>
        <pt x="553" y="1712" on="0"/>
      </contour>
    </TTGlyph>
    <TTGlyph name="Eng" xMin="20" yMin="-560" xMax="1568" yMax="1557">
      <contour>
        <pt x="31" y="62" on="1"/>
        <pt x="20" y="88" on="0"/>
        <pt x="20" y="182" on="0"/>
        <pt x="55" y="363" on="0"/>
        <pt x="117" y="582" on="0"/>
        <pt x="205" y="825" on="0"/>
        <pt x="310" y="1063" on="0"/>
        <pt x="431" y="1279" on="0"/>
        <pt x="496" y="1362" on="1"/>
        <pt x="637" y="1544" on="0"/>
        <pt x="761" y="1550" on="1"/>
        <pt x="829" y="1554" on="0"/>
        <pt x="847" y="1529" on="1"/>
        <pt x="867" y="1501" on="0"/>
        <pt x="850" y="1432" on="1"/>
        <pt x="817" y="1305" on="0"/>
        <pt x="817" y="1067" on="0"/>
        <pt x="832" y="889" on="0"/>
        <pt x="860" y="712" on="0"/>
        <pt x="899" y="540" on="0"/>
        <pt x="922" y="463" on="1"/>
        <pt x="972" y="302" on="0"/>
        <pt x="1027" y="211" on="1"/>
        <pt x="1229" y="657" on="0"/>
        <pt x="1296" y="1005" on="1"/>
        <pt x="1321" y="1131" on="0"/>
        <pt x="1321" y="1264" on="0"/>
        <pt x="1317" y="1323" on="0"/>
        <pt x="1310" y="1349" on="1"/>
        <pt x="1296" y="1407" on="0"/>
        <pt x="1256" y="1427" on="1"/>
        <pt x="1240" y="1434" on="0"/>
        <pt x="1233" y="1472" on="0"/>
        <pt x="1254" y="1510" on="0"/>
        <pt x="1272" y="1524" on="1"/>
        <pt x="1311" y="1557" on="0"/>
        <pt x="1408" y="1557" on="0"/>
        <pt x="1490" y="1516" on="0"/>
        <pt x="1516" y="1482" on="1"/>
        <pt x="1568" y="1417" on="0"/>
        <pt x="1568" y="1227" on="0"/>
        <pt x="1510" y="969" on="0"/>
        <pt x="1458" y="820" on="1"/>
        <pt x="1197" y="82" on="0"/>
        <pt x="772" y="-334" on="1"/>
        <pt x="542" y="-560" on="0"/>
        <pt x="386" y="-560" on="1"/>
        <pt x="338" y="-560" on="0"/>
        <pt x="312" y="-524" on="1"/>
        <pt x="305" y="-514" on="0"/>
        <pt x="305" y="-488" on="0"/>
        <pt x="314" y="-476" on="0"/>
        <pt x="405" y="-442" on="0"/>
        <pt x="552" y="-334" on="0"/>
        <pt x="621" y="-262" on="1"/>
        <pt x="763" y="-115" on="0"/>
        <pt x="860" y="66" on="1"/>
        <pt x="668" y="316" on="0"/>
        <pt x="617" y="773" on="1"/>
        <pt x="602" y="908" on="0"/>
        <pt x="602" y="1008" on="1"/>
        <pt x="602" y="1177" on="0"/>
        <pt x="618" y="1299" on="1"/>
        <pt x="587" y="1268" on="0"/>
        <pt x="473" y="1046" on="0"/>
        <pt x="387" y="838" on="0"/>
        <pt x="309" y="605" on="0"/>
        <pt x="276" y="486" on="1"/>
        <pt x="209" y="238" on="0"/>
        <pt x="183" y="19" on="1"/>
        <pt x="179" y="-11" on="0"/>
        <pt x="134" y="-11" on="1"/>
        <pt x="63" y="-11" on="0"/>
      </contour>
    </TTGlyph>
    <TTGlyph name="Eogonek" xMin="82" yMin="-505" xMax="1198" yMax="1555">
      <contour>
        <pt x="424" y="-275" on="1"/>
        <pt x="424" y="-337" on="0"/>
        <pt x="470" y="-337" on="1"/>
        <pt x="483" y="-337" on="0"/>
        <pt x="497" y="-330" on="1"/>
        <pt x="525" y="-316" on="1"/>
        <pt x="584" y="-284" on="0"/>
        <pt x="587" y="-326" on="1"/>
        <pt x="589" y="-363" on="0"/>
        <pt x="533" y="-437" on="0"/>
        <pt x="504" y="-458" on="1"/>
        <pt x="438" y="-505" on="0"/>
        <pt x="349" y="-505" on="1"/>
        <pt x="254" y="-505" on="0"/>
        <pt x="222" y="-422" on="1"/>
        <pt x="213" y="-396" on="0"/>
        <pt x="213" y="-319" on="0"/>
        <pt x="251" y="-222" on="0"/>
        <pt x="283" y="-176" on="1"/>
        <pt x="344" y="-87" on="0"/>
        <pt x="443" y="-10" on="1"/>
        <pt x="258" y="-10" on="0"/>
        <pt x="159" y="89" on="1"/>
        <pt x="82" y="166" on="0"/>
        <pt x="82" y="272" on="1"/>
        <pt x="82" y="472" on="0"/>
        <pt x="284" y="628" on="1"/>
        <pt x="353" y="682" on="0"/>
        <pt x="398" y="689" on="1"/>
        <pt x="285" y="734" on="0"/>
        <pt x="246" y="864" on="1"/>
        <pt x="234" y="906" on="0"/>
        <pt x="234" y="1026" on="0"/>
        <pt x="280" y="1171" on="0"/>
        <pt x="364" y="1304" on="0"/>
        <pt x="480" y="1420" on="0"/>
        <pt x="550" y="1463" on="1"/>
        <pt x="701" y="1555" on="0"/>
        <pt x="868" y="1555" on="1"/>
        <pt x="1043" y="1555" on="0"/>
        <pt x="1129" y="1468" on="1"/>
        <pt x="1198" y="1398" on="0"/>
        <pt x="1198" y="1289" on="1"/>
        <pt x="1198" y="1165" on="0"/>
        <pt x="1094" y="1038" on="1"/>
        <pt x="1031" y="962" on="0"/>
        <pt x="930" y="908" on="0"/>
        <pt x="873" y="903" on="0"/>
        <pt x="824" y="922" on="0"/>
        <pt x="806" y="938" on="1"/>
        <pt x="765" y="975" on="0"/>
        <pt x="765" y="1005" on="1"/>
        <pt x="765" y="1042" on="0"/>
        <pt x="791" y="1062" on="1"/>
        <pt x="881" y="1126" on="1"/>
        <pt x="1043" y="1245" on="0"/>
        <pt x="1043" y="1333" on="1"/>
        <pt x="1043" y="1417" on="0"/>
        <pt x="943" y="1417" on="1"/>
        <pt x="752" y="1417" on="0"/>
        <pt x="596" y="1240" on="1"/>
        <pt x="504" y="1136" on="0"/>
        <pt x="467" y="1015" on="1"/>
        <pt x="449" y="956" on="0"/>
        <pt x="449" y="866" on="0"/>
        <pt x="470" y="813" on="0"/>
        <pt x="486" y="796" on="1"/>
        <pt x="520" y="760" on="0"/>
        <pt x="565" y="768" on="1"/>
        <pt x="614" y="788" on="0"/>
        <pt x="689" y="788" on="0"/>
        <pt x="734" y="769" on="0"/>
        <pt x="748" y="755" on="1"/>
        <pt x="777" y="727" on="0"/>
        <pt x="777" y="701" on="1"/>
        <pt x="777" y="650" on="0"/>
        <pt x="743" y="648" on="1"/>
        <pt x="691" y="643" on="0"/>
        <pt x="577" y="595" on="0"/>
        <pt x="461" y="518" on="0"/>
        <pt x="416" y="470" on="1"/>
        <pt x="313" y="360" on="0"/>
        <pt x="313" y="249" on="1"/>
        <pt x="313" y="196" on="0"/>
        <pt x="338" y="169" on="1"/>
        <pt x="380" y="122" on="0"/>
        <pt x="496" y="122" on="0"/>
        <pt x="607" y="167" on="0"/>
        <pt x="652" y="199" on="1"/>
        <pt x="720" y="248" on="0"/>
        <pt x="784" y="324" on="1"/>
        <pt x="816" y="362" on="0"/>
        <pt x="864" y="362" on="0"/>
        <pt x="889" y="305" on="0"/>
        <pt x="889" y="273" on="1"/>
        <pt x="889" y="207" on="0"/>
        <pt x="846" y="152" on="0"/>
        <pt x="803" y="112" on="0"/>
        <pt x="774" y="92" on="1"/>
        <pt x="711" y="46" on="0"/>
        <pt x="634" y="20" on="1"/>
        <pt x="424" y="-144" on="0"/>
      </contour>
    </TTGlyph>
    <TTGlyph name="Eth" xMin="56" yMin="-10" xMax="1312" yMax="1555">
      <contour>
        <pt x="788" y="934" on="1"/>
        <pt x="832" y="934" on="0"/>
        <pt x="832" y="894" on="1"/>
        <pt x="832" y="852" on="0"/>
        <pt x="804" y="817" on="1"/>
        <pt x="752" y="754" on="0"/>
        <pt x="715" y="754" on="1"/>
        <pt x="477" y="762" on="1"/>
        <pt x="343" y="455" on="0"/>
        <pt x="304" y="250" on="1"/>
        <pt x="299" y="221" on="0"/>
        <pt x="290" y="178" on="0"/>
        <pt x="290" y="162" on="1"/>
        <pt x="290" y="129" on="0"/>
        <pt x="374" y="129" on="0"/>
        <pt x="478" y="168" on="0"/>
        <pt x="598" y="239" on="0"/>
        <pt x="727" y="341" on="0"/>
        <pt x="851" y="468" on="0"/>
        <pt x="961" y="616" on="0"/>
        <pt x="1002" y="698" on="1"/>
        <pt x="1093" y="878" on="0"/>
        <pt x="1093" y="1053" on="1"/>
        <pt x="1093" y="1293" on="0"/>
        <pt x="898" y="1372" on="1"/>
        <pt x="830" y="1399" on="0"/>
        <pt x="683" y="1399" on="0"/>
        <pt x="581" y="1380" on="0"/>
        <pt x="534" y="1363" on="1"/>
        <pt x="439" y="1329" on="0"/>
        <pt x="374" y="1272" on="1"/>
        <pt x="357" y="1262" on="0"/>
        <pt x="309" y="1262" on="0"/>
        <pt x="254" y="1290" on="0"/>
        <pt x="232" y="1311" on="1"/>
        <pt x="182" y="1360" on="0"/>
        <pt x="192" y="1405" on="1"/>
        <pt x="203" y="1469" on="0"/>
        <pt x="384" y="1516" on="1"/>
        <pt x="536" y="1555" on="0"/>
        <pt x="844" y="1555" on="0"/>
        <pt x="1091" y="1471" on="0"/>
        <pt x="1168" y="1400" on="1"/>
        <pt x="1312" y="1266" on="0"/>
        <pt x="1312" y="1041" on="1"/>
        <pt x="1312" y="743" on="0"/>
        <pt x="1106" y="466" on="1"/>
        <pt x="917" y="209" on="0"/>
        <pt x="656" y="76" on="1"/>
        <pt x="487" y="-10" on="0"/>
        <pt x="345" y="-10" on="1"/>
        <pt x="234" y="-10" on="0"/>
        <pt x="154" y="55" on="1"/>
        <pt x="68" y="124" on="0"/>
        <pt x="81" y="221" on="1"/>
        <pt x="116" y="461" on="0"/>
        <pt x="238" y="770" on="1"/>
        <pt x="113" y="774" on="1"/>
        <pt x="56" y="774" on="0"/>
        <pt x="56" y="813" on="1"/>
        <pt x="56" y="848" on="0"/>
        <pt x="85" y="879" on="1"/>
        <pt x="137" y="936" on="0"/>
        <pt x="166" y="934" on="1"/>
        <pt x="309" y="934" on="1"/>
        <pt x="434" y="1200" on="0"/>
        <pt x="474" y="1220" on="1"/>
        <pt x="504" y="1234" on="0"/>
        <pt x="608" y="1234" on="0"/>
        <pt x="661" y="1219" on="0"/>
        <pt x="676" y="1207" on="1"/>
        <pt x="706" y="1182" on="0"/>
        <pt x="686" y="1154" on="1"/>
        <pt x="620" y="1056" on="0"/>
        <pt x="558" y="934" on="1"/>
      </contour>
    </TTGlyph>
    <TTGlyph name="Euro" xMin="114" yMin="-10" xMax="1365" yMax="1555">
      <contour>
        <pt x="266" y="420" on="1"/>
        <pt x="267" y="449" on="1"/>
        <pt x="267" y="458" on="1"/>
        <pt x="130" y="468" on="0"/>
        <pt x="118" y="499" on="1"/>
        <pt x="114" y="508" on="0"/>
        <pt x="114" y="529" on="0"/>
        <pt x="133" y="557" on="0"/>
        <pt x="148" y="570" on="1"/>
        <pt x="183" y="599" on="0"/>
        <pt x="219" y="599" on="1"/>
        <pt x="281" y="599" on="1"/>
        <pt x="293" y="670" on="0"/>
        <pt x="311" y="742" on="1"/>
        <pt x="209" y="752" on="0"/>
        <pt x="200" y="780" on="1"/>
        <pt x="198" y="789" on="0"/>
        <pt x="198" y="809" on="0"/>
        <pt x="217" y="837" on="0"/>
        <pt x="232" y="850" on="1"/>
        <pt x="267" y="879" on="0"/>
        <pt x="303" y="879" on="1"/>
        <pt x="355" y="879" on="1"/>
        <pt x="471" y="1177" on="0"/>
        <pt x="686" y="1368" on="1"/>
        <pt x="897" y="1555" on="0"/>
        <pt x="1095" y="1555" on="1"/>
        <pt x="1226" y="1555" on="0"/>
        <pt x="1300" y="1464" on="1"/>
        <pt x="1365" y="1385" on="0"/>
        <pt x="1365" y="1272" on="1"/>
        <pt x="1365" y="1155" on="0"/>
        <pt x="1282" y="1040" on="1"/>
        <pt x="1203" y="928" on="0"/>
        <pt x="1134" y="928" on="1"/>
        <pt x="1081" y="928" on="0"/>
        <pt x="1040" y="970" on="1"/>
        <pt x="1003" y="1009" on="0"/>
        <pt x="1003" y="1071" on="0"/>
        <pt x="1049" y="1108" on="0"/>
        <pt x="1112" y="1168" on="0"/>
        <pt x="1138" y="1201" on="1"/>
        <pt x="1195" y="1275" on="0"/>
        <pt x="1195" y="1342" on="1"/>
        <pt x="1195" y="1417" on="0"/>
        <pt x="1053" y="1417" on="0"/>
        <pt x="907" y="1329" on="0"/>
        <pt x="838" y="1255" on="1"/>
        <pt x="699" y="1104" on="0"/>
        <pt x="604" y="881" on="1"/>
        <pt x="627" y="882" on="0"/>
        <pt x="647" y="882" on="1"/>
        <pt x="682" y="882" on="1"/>
        <pt x="741" y="882" on="0"/>
        <pt x="791" y="883" on="1"/>
        <pt x="864" y="884" on="1"/>
        <pt x="888" y="885" on="0"/>
        <pt x="945" y="885" on="0"/>
        <pt x="945" y="864" on="1"/>
        <pt x="945" y="800" on="0"/>
        <pt x="846" y="764" on="1"/>
        <pt x="755" y="732" on="0"/>
        <pt x="603" y="732" on="1"/>
        <pt x="549" y="732" on="1"/>
        <pt x="532" y="676" on="0"/>
        <pt x="518" y="601" on="1"/>
        <pt x="541" y="602" on="0"/>
        <pt x="562" y="602" on="1"/>
        <pt x="598" y="602" on="1"/>
        <pt x="657" y="602" on="0"/>
        <pt x="707" y="603" on="1"/>
        <pt x="780" y="604" on="1"/>
        <pt x="804" y="605" on="0"/>
        <pt x="861" y="605" on="0"/>
        <pt x="861" y="584" on="1"/>
        <pt x="861" y="520" on="0"/>
        <pt x="762" y="484" on="1"/>
        <pt x="671" y="452" on="0"/>
        <pt x="519" y="452" on="1"/>
        <pt x="504" y="452" on="1"/>
        <pt x="504" y="223" on="0"/>
        <pt x="598" y="151" on="1"/>
        <pt x="632" y="125" on="0"/>
        <pt x="728" y="125" on="0"/>
        <pt x="802" y="146" on="0"/>
        <pt x="873" y="185" on="0"/>
        <pt x="910" y="214" on="1"/>
        <pt x="995" y="281" on="1"/>
        <pt x="1027" y="306" on="0"/>
        <pt x="1048" y="274" on="1"/>
        <pt x="1066" y="248" on="0"/>
        <pt x="1066" y="214" on="1"/>
        <pt x="1066" y="157" on="0"/>
        <pt x="1035" y="116" on="0"/>
        <pt x="971" y="63" on="0"/>
        <pt x="923" y="41" on="1"/>
        <pt x="812" y="-10" on="0"/>
        <pt x="571" y="-10" on="0"/>
        <pt x="423" y="49" on="0"/>
        <pt x="372" y="104" on="1"/>
        <pt x="266" y="220" on="0"/>
      </contour>
    </TTGlyph>
    <TTGlyph name="F" xMin="62" yMin="-7" xMax="1273" yMax="1555">
      <contour>
        <pt x="957" y="655" on="1"/>
        <pt x="928" y="656" on="0"/>
        <pt x="865" y="661" on="0"/>
        <pt x="822" y="662" on="1"/>
        <pt x="728" y="664" on="0"/>
        <pt x="618" y="654" on="1"/>
        <pt x="593" y="568" on="0"/>
        <pt x="478" y="317" on="0"/>
        <pt x="422" y="230" on="1"/>
        <pt x="302" y="44" on="0"/>
        <pt x="178" y="0" on="1"/>
        <pt x="160" y="-7" on="0"/>
        <pt x="123" y="-7" on="0"/>
        <pt x="93" y="6" on="0"/>
        <pt x="83" y="16" on="1"/>
        <pt x="62" y="35" on="0"/>
        <pt x="62" y="81" on="0"/>
        <pt x="77" y="92" on="1"/>
        <pt x="219" y="195" on="0"/>
        <pt x="369" y="611" on="1"/>
        <pt x="358" y="608" on="0"/>
        <pt x="336" y="602" on="0"/>
        <pt x="320" y="596" on="0"/>
        <pt x="299" y="596" on="0"/>
        <pt x="274" y="609" on="0"/>
        <pt x="264" y="618" on="1"/>
        <pt x="242" y="638" on="0"/>
        <pt x="242" y="676" on="0"/>
        <pt x="277" y="709" on="0"/>
        <pt x="303" y="724" on="1"/>
        <pt x="351" y="752" on="0"/>
        <pt x="424" y="776" on="1"/>
        <pt x="478" y="944" on="1"/>
        <pt x="573" y="1239" on="0"/>
        <pt x="660" y="1353" on="1"/>
        <pt x="578" y="1360" on="0"/>
        <pt x="539" y="1360" on="1"/>
        <pt x="421" y="1360" on="0"/>
        <pt x="369" y="1327" on="1"/>
        <pt x="318" y="1294" on="0"/>
        <pt x="277" y="1217" on="0"/>
        <pt x="276" y="1202" on="1"/>
        <pt x="273" y="1174" on="0"/>
        <pt x="243" y="1159" on="0"/>
        <pt x="200" y="1159" on="0"/>
        <pt x="154" y="1190" on="0"/>
        <pt x="139" y="1214" on="1"/>
        <pt x="107" y="1263" on="0"/>
        <pt x="121" y="1386" on="0"/>
        <pt x="188" y="1475" on="0"/>
        <pt x="234" y="1503" on="1"/>
        <pt x="319" y="1555" on="0"/>
        <pt x="508" y="1555" on="0"/>
        <pt x="677" y="1536" on="0"/>
        <pt x="761" y="1524" on="1"/>
        <pt x="984" y="1494" on="0"/>
        <pt x="1106" y="1494" on="0"/>
        <pt x="1165" y="1508" on="0"/>
        <pt x="1207" y="1536" on="0"/>
        <pt x="1224" y="1545" on="0"/>
        <pt x="1243" y="1545" on="1"/>
        <pt x="1273" y="1545" on="0"/>
        <pt x="1265" y="1454" on="0"/>
        <pt x="1229" y="1389" on="0"/>
        <pt x="1200" y="1368" on="1"/>
        <pt x="1141" y="1325" on="0"/>
        <pt x="959" y="1325" on="0"/>
        <pt x="829" y="1337" on="1"/>
        <pt x="796" y="1270" on="0"/>
        <pt x="766" y="1161" on="1"/>
        <pt x="674" y="831" on="1"/>
        <pt x="768" y="846" on="0"/>
        <pt x="867" y="846" on="0"/>
        <pt x="931" y="826" on="0"/>
        <pt x="956" y="808" on="1"/>
        <pt x="1014" y="769" on="0"/>
        <pt x="1012" y="655" on="0"/>
      </contour>
    </TTGlyph>
    <TTGlyph name="G" xMin="103" yMin="-10" xMax="1250" yMax="1555">
      <contour>
        <pt x="103" y="419" on="1"/>
        <pt x="104" y="449" on="1"/>
        <pt x="115" y="748" on="0"/>
        <pt x="256" y="1014" on="1"/>
        <pt x="382" y="1255" on="0"/>
        <pt x="582" y="1407" on="1"/>
        <pt x="776" y="1555" on="0"/>
        <pt x="960" y="1555" on="1"/>
        <pt x="1100" y="1555" on="0"/>
        <pt x="1180" y="1458" on="1"/>
        <pt x="1250" y="1374" on="0"/>
        <pt x="1250" y="1252" on="1"/>
        <pt x="1250" y="1106" on="0"/>
        <pt x="1143" y="964" on="1"/>
        <pt x="1081" y="882" on="0"/>
        <pt x="1012" y="846" on="1"/>
        <pt x="978" y="828" on="0"/>
        <pt x="921" y="828" on="0"/>
        <pt x="873" y="852" on="0"/>
        <pt x="856" y="870" on="1"/>
        <pt x="818" y="909" on="0"/>
        <pt x="818" y="971" on="0"/>
        <pt x="834" y="983" on="1"/>
        <pt x="998" y="1101" on="0"/>
        <pt x="1058" y="1226" on="1"/>
        <pt x="1080" y="1274" on="0"/>
        <pt x="1080" y="1320" on="1"/>
        <pt x="1080" y="1417" on="0"/>
        <pt x="988" y="1417" on="1"/>
        <pt x="842" y="1417" on="0"/>
        <pt x="686" y="1252" on="1"/>
        <pt x="541" y="1099" on="0"/>
        <pt x="440" y="868" on="1"/>
        <pt x="338" y="631" on="0"/>
        <pt x="332" y="433" on="1"/>
        <pt x="322" y="222" on="0"/>
        <pt x="432" y="150" on="1"/>
        <pt x="470" y="125" on="0"/>
        <pt x="582" y="125" on="0"/>
        <pt x="683" y="179" on="0"/>
        <pt x="720" y="220" on="1"/>
        <pt x="798" y="310" on="0"/>
        <pt x="800" y="407" on="1"/>
        <pt x="802" y="480" on="0"/>
        <pt x="748" y="508" on="1"/>
        <pt x="726" y="519" on="0"/>
        <pt x="675" y="531" on="0"/>
        <pt x="642" y="548" on="0"/>
        <pt x="658" y="595" on="0"/>
        <pt x="680" y="620" on="1"/>
        <pt x="738" y="684" on="0"/>
        <pt x="807" y="684" on="1"/>
        <pt x="830" y="684" on="0"/>
        <pt x="876" y="674" on="1"/>
        <pt x="962" y="655" on="0"/>
        <pt x="1022" y="655" on="0"/>
        <pt x="1057" y="658" on="0"/>
        <pt x="1075" y="662" on="1"/>
        <pt x="1116" y="671" on="0"/>
        <pt x="1152" y="684" on="1"/>
        <pt x="1211" y="704" on="0"/>
        <pt x="1211" y="611" on="0"/>
        <pt x="1173" y="529" on="0"/>
        <pt x="1140" y="500" on="1"/>
        <pt x="1069" y="436" on="0"/>
        <pt x="964" y="438" on="1"/>
        <pt x="975" y="373" on="0"/>
        <pt x="918" y="270" on="1"/>
        <pt x="817" y="85" on="0"/>
        <pt x="628" y="15" on="1"/>
        <pt x="561" y="-10" on="0"/>
        <pt x="394" y="-10" on="0"/>
        <pt x="254" y="49" on="0"/>
        <pt x="204" y="104" on="1"/>
        <pt x="103" y="218" on="0"/>
      </contour>
    </TTGlyph>
    <TTGlyph name="Gbreve" xMin="103" yMin="-10" xMax="1467" yMax="1999">
      <contour>
        <pt x="103" y="419" on="1"/>
        <pt x="104" y="449" on="1"/>
        <pt x="115" y="748" on="0"/>
        <pt x="256" y="1014" on="1"/>
        <pt x="382" y="1255" on="0"/>
        <pt x="582" y="1407" on="1"/>
        <pt x="776" y="1555" on="0"/>
        <pt x="960" y="1555" on="1"/>
        <pt x="1100" y="1555" on="0"/>
        <pt x="1180" y="1458" on="1"/>
        <pt x="1250" y="1374" on="0"/>
        <pt x="1250" y="1252" on="1"/>
        <pt x="1250" y="1106" on="0"/>
        <pt x="1143" y="964" on="1"/>
        <pt x="1081" y="882" on="0"/>
        <pt x="1012" y="846" on="1"/>
        <pt x="978" y="828" on="0"/>
        <pt x="921" y="828" on="0"/>
        <pt x="873" y="852" on="0"/>
        <pt x="856" y="870" on="1"/>
        <pt x="818" y="909" on="0"/>
        <pt x="818" y="971" on="0"/>
        <pt x="834" y="983" on="1"/>
        <pt x="998" y="1101" on="0"/>
        <pt x="1058" y="1226" on="1"/>
        <pt x="1080" y="1274" on="0"/>
        <pt x="1080" y="1320" on="1"/>
        <pt x="1080" y="1417" on="0"/>
        <pt x="988" y="1417" on="1"/>
        <pt x="842" y="1417" on="0"/>
        <pt x="686" y="1252" on="1"/>
        <pt x="541" y="1099" on="0"/>
        <pt x="440" y="868" on="1"/>
        <pt x="338" y="631" on="0"/>
        <pt x="332" y="433" on="1"/>
        <pt x="322" y="222" on="0"/>
        <pt x="432" y="150" on="1"/>
        <pt x="470" y="125" on="0"/>
        <pt x="582" y="125" on="0"/>
        <pt x="683" y="179" on="0"/>
        <pt x="720" y="220" on="1"/>
        <pt x="798" y="310" on="0"/>
        <pt x="800" y="407" on="1"/>
        <pt x="802" y="480" on="0"/>
        <pt x="748" y="508" on="1"/>
        <pt x="726" y="519" on="0"/>
        <pt x="675" y="531" on="0"/>
        <pt x="642" y="548" on="0"/>
        <pt x="658" y="595" on="0"/>
        <pt x="680" y="620" on="1"/>
        <pt x="738" y="684" on="0"/>
        <pt x="807" y="684" on="1"/>
        <pt x="830" y="684" on="0"/>
        <pt x="876" y="674" on="1"/>
        <pt x="962" y="655" on="0"/>
        <pt x="1022" y="655" on="0"/>
        <pt x="1057" y="658" on="0"/>
        <pt x="1075" y="662" on="1"/>
        <pt x="1116" y="671" on="0"/>
        <pt x="1152" y="684" on="1"/>
        <pt x="1211" y="704" on="0"/>
        <pt x="1211" y="611" on="0"/>
        <pt x="1173" y="529" on="0"/>
        <pt x="1140" y="500" on="1"/>
        <pt x="1069" y="436" on="0"/>
        <pt x="964" y="438" on="1"/>
        <pt x="975" y="373" on="0"/>
        <pt x="918" y="270" on="1"/>
        <pt x="817" y="85" on="0"/>
        <pt x="628" y="15" on="1"/>
        <pt x="561" y="-10" on="0"/>
        <pt x="394" y="-10" on="0"/>
        <pt x="254" y="49" on="0"/>
        <pt x="204" y="104" on="1"/>
        <pt x="103" y="218" on="0"/>
      </contour>
      <contour>
        <pt x="1156" y="1658" on="1"/>
        <pt x="1106" y="1644" on="0"/>
        <pt x="1002" y="1644" on="0"/>
        <pt x="916" y="1673" on="0"/>
        <pt x="884" y="1700" on="1"/>
        <pt x="812" y="1761" on="0"/>
        <pt x="812" y="1855" on="1"/>
        <pt x="812" y="1925" on="0"/>
        <pt x="864" y="1967" on="1"/>
        <pt x="905" y="1999" on="0"/>
        <pt x="958" y="1999" on="0"/>
        <pt x="984" y="1992" on="0"/>
        <pt x="988" y="1942" on="0"/>
        <pt x="1002" y="1884" on="0"/>
        <pt x="1017" y="1862" on="1"/>
        <pt x="1051" y="1811" on="0"/>
        <pt x="1158" y="1811" on="0"/>
        <pt x="1240" y="1848" on="0"/>
        <pt x="1273" y="1874" on="1"/>
        <pt x="1338" y="1926" on="0"/>
        <pt x="1362" y="1975" on="1"/>
        <pt x="1372" y="1997" on="0"/>
        <pt x="1405" y="1997" on="0"/>
        <pt x="1421" y="1987" on="0"/>
        <pt x="1428" y="1977" on="1"/>
        <pt x="1467" y="1916" on="0"/>
        <pt x="1380" y="1807" on="1"/>
        <pt x="1292" y="1696" on="0"/>
      </contour>
    </TTGlyph>
    <TTGlyph name="Gcircumflex" xMin="103" yMin="-10" xMax="1404" yMax="2005">
      <contour>
        <pt x="103" y="419" on="1"/>
        <pt x="104" y="449" on="1"/>
        <pt x="115" y="748" on="0"/>
        <pt x="256" y="1014" on="1"/>
        <pt x="382" y="1255" on="0"/>
        <pt x="582" y="1407" on="1"/>
        <pt x="776" y="1555" on="0"/>
        <pt x="960" y="1555" on="1"/>
        <pt x="1100" y="1555" on="0"/>
        <pt x="1180" y="1458" on="1"/>
        <pt x="1250" y="1374" on="0"/>
        <pt x="1250" y="1252" on="1"/>
        <pt x="1250" y="1106" on="0"/>
        <pt x="1143" y="964" on="1"/>
        <pt x="1081" y="882" on="0"/>
        <pt x="1012" y="846" on="1"/>
        <pt x="978" y="828" on="0"/>
        <pt x="921" y="828" on="0"/>
        <pt x="873" y="852" on="0"/>
        <pt x="856" y="870" on="1"/>
        <pt x="818" y="909" on="0"/>
        <pt x="818" y="971" on="0"/>
        <pt x="834" y="983" on="1"/>
        <pt x="998" y="1101" on="0"/>
        <pt x="1058" y="1226" on="1"/>
        <pt x="1080" y="1274" on="0"/>
        <pt x="1080" y="1320" on="1"/>
        <pt x="1080" y="1417" on="0"/>
        <pt x="988" y="1417" on="1"/>
        <pt x="842" y="1417" on="0"/>
        <pt x="686" y="1252" on="1"/>
        <pt x="541" y="1099" on="0"/>
        <pt x="440" y="868" on="1"/>
        <pt x="338" y="631" on="0"/>
        <pt x="332" y="433" on="1"/>
        <pt x="322" y="222" on="0"/>
        <pt x="432" y="150" on="1"/>
        <pt x="470" y="125" on="0"/>
        <pt x="582" y="125" on="0"/>
        <pt x="683" y="179" on="0"/>
        <pt x="720" y="220" on="1"/>
        <pt x="798" y="310" on="0"/>
        <pt x="800" y="407" on="1"/>
        <pt x="802" y="480" on="0"/>
        <pt x="748" y="508" on="1"/>
        <pt x="726" y="519" on="0"/>
        <pt x="675" y="531" on="0"/>
        <pt x="642" y="548" on="0"/>
        <pt x="658" y="595" on="0"/>
        <pt x="680" y="620" on="1"/>
        <pt x="738" y="684" on="0"/>
        <pt x="807" y="684" on="1"/>
        <pt x="830" y="684" on="0"/>
        <pt x="876" y="674" on="1"/>
        <pt x="962" y="655" on="0"/>
        <pt x="1022" y="655" on="0"/>
        <pt x="1057" y="658" on="0"/>
        <pt x="1075" y="662" on="1"/>
        <pt x="1116" y="671" on="0"/>
        <pt x="1152" y="684" on="1"/>
        <pt x="1211" y="704" on="0"/>
        <pt x="1211" y="611" on="0"/>
        <pt x="1173" y="529" on="0"/>
        <pt x="1140" y="500" on="1"/>
        <pt x="1069" y="436" on="0"/>
        <pt x="964" y="438" on="1"/>
        <pt x="975" y="373" on="0"/>
        <pt x="918" y="270" on="1"/>
        <pt x="817" y="85" on="0"/>
        <pt x="628" y="15" on="1"/>
        <pt x="561" y="-10" on="0"/>
        <pt x="394" y="-10" on="0"/>
        <pt x="254" y="49" on="0"/>
        <pt x="204" y="104" on="1"/>
        <pt x="103" y="218" on="0"/>
      </contour>
      <contour>
        <pt x="1110" y="1793" on="1"/>
        <pt x="980" y="1683" on="0"/>
        <pt x="863" y="1641" on="1"/>
        <pt x="845" y="1633" on="0"/>
        <pt x="799" y="1633" on="0"/>
        <pt x="766" y="1645" on="0"/>
        <pt x="754" y="1654" on="1"/>
        <pt x="728" y="1675" on="0"/>
        <pt x="728" y="1722" on="0"/>
        <pt x="782" y="1739" on="0"/>
        <pt x="862" y="1777" on="0"/>
        <pt x="912" y="1808" on="1"/>
        <pt x="1025" y="1879" on="0"/>
        <pt x="1144" y="1992" on="1"/>
        <pt x="1157" y="2005" on="0"/>
        <pt x="1192" y="1986" on="1"/>
        <pt x="1258" y="1952" on="0"/>
        <pt x="1268" y="1896" on="0"/>
        <pt x="1295" y="1831" on="0"/>
        <pt x="1313" y="1800" on="1"/>
        <pt x="1346" y="1743" on="0"/>
        <pt x="1391" y="1687" on="1"/>
        <pt x="1404" y="1667" on="0"/>
        <pt x="1370" y="1648" on="1"/>
        <pt x="1336" y="1628" on="0"/>
        <pt x="1230" y="1636" on="0"/>
        <pt x="1130" y="1716" on="0"/>
      </contour>
    </TTGlyph>
    <TTGlyph name="Gcommaaccent" xMin="103" yMin="-529" xMax="1250" yMax="1555">
      <contour>
        <pt x="103" y="419" on="1"/>
        <pt x="104" y="449" on="1"/>
        <pt x="115" y="748" on="0"/>
        <pt x="256" y="1014" on="1"/>
        <pt x="382" y="1255" on="0"/>
        <pt x="582" y="1407" on="1"/>
        <pt x="776" y="1555" on="0"/>
        <pt x="960" y="1555" on="1"/>
        <pt x="1100" y="1555" on="0"/>
        <pt x="1180" y="1458" on="1"/>
        <pt x="1250" y="1374" on="0"/>
        <pt x="1250" y="1252" on="1"/>
        <pt x="1250" y="1106" on="0"/>
        <pt x="1143" y="964" on="1"/>
        <pt x="1081" y="882" on="0"/>
        <pt x="1012" y="846" on="1"/>
        <pt x="978" y="828" on="0"/>
        <pt x="921" y="828" on="0"/>
        <pt x="873" y="852" on="0"/>
        <pt x="856" y="870" on="1"/>
        <pt x="818" y="909" on="0"/>
        <pt x="818" y="971" on="0"/>
        <pt x="834" y="983" on="1"/>
        <pt x="998" y="1101" on="0"/>
        <pt x="1058" y="1226" on="1"/>
        <pt x="1080" y="1274" on="0"/>
        <pt x="1080" y="1320" on="1"/>
        <pt x="1080" y="1417" on="0"/>
        <pt x="988" y="1417" on="1"/>
        <pt x="842" y="1417" on="0"/>
        <pt x="686" y="1252" on="1"/>
        <pt x="541" y="1099" on="0"/>
        <pt x="440" y="868" on="1"/>
        <pt x="338" y="631" on="0"/>
        <pt x="332" y="433" on="1"/>
        <pt x="322" y="222" on="0"/>
        <pt x="432" y="150" on="1"/>
        <pt x="470" y="125" on="0"/>
        <pt x="582" y="125" on="0"/>
        <pt x="683" y="179" on="0"/>
        <pt x="720" y="220" on="1"/>
        <pt x="798" y="310" on="0"/>
        <pt x="800" y="407" on="1"/>
        <pt x="802" y="480" on="0"/>
        <pt x="748" y="508" on="1"/>
        <pt x="726" y="519" on="0"/>
        <pt x="675" y="531" on="0"/>
        <pt x="642" y="548" on="0"/>
        <pt x="658" y="595" on="0"/>
        <pt x="680" y="620" on="1"/>
        <pt x="738" y="684" on="0"/>
        <pt x="807" y="684" on="1"/>
        <pt x="830" y="684" on="0"/>
        <pt x="876" y="674" on="1"/>
        <pt x="962" y="655" on="0"/>
        <pt x="1022" y="655" on="0"/>
        <pt x="1057" y="658" on="0"/>
        <pt x="1075" y="662" on="1"/>
        <pt x="1116" y="671" on="0"/>
        <pt x="1152" y="684" on="1"/>
        <pt x="1211" y="704" on="0"/>
        <pt x="1211" y="611" on="0"/>
        <pt x="1173" y="529" on="0"/>
        <pt x="1140" y="500" on="1"/>
        <pt x="1069" y="436" on="0"/>
        <pt x="964" y="438" on="1"/>
        <pt x="975" y="373" on="0"/>
        <pt x="918" y="270" on="1"/>
        <pt x="817" y="85" on="0"/>
        <pt x="628" y="15" on="1"/>
        <pt x="561" y="-10" on="0"/>
        <pt x="394" y="-10" on="0"/>
        <pt x="254" y="49" on="0"/>
        <pt x="204" y="104" on="1"/>
        <pt x="103" y="218" on="0"/>
      </contour>
      <contour>
        <pt x="274" y="-504" on="0"/>
        <pt x="210" y="-529" on="0"/>
        <pt x="154" y="-529" on="0"/>
        <pt x="154" y="-503" on="1"/>
        <pt x="154" y="-480" on="0"/>
        <pt x="174" y="-464" on="1"/>
        <pt x="208" y="-428" on="1"/>
        <pt x="276" y="-354" on="0"/>
        <pt x="276" y="-295" on="1"/>
        <pt x="276" y="-261" on="0"/>
        <pt x="233" y="-218" on="0"/>
        <pt x="217" y="-197" on="0"/>
        <pt x="226" y="-164" on="0"/>
        <pt x="255" y="-132" on="0"/>
        <pt x="274" y="-120" on="1"/>
        <pt x="317" y="-94" on="0"/>
        <pt x="416" y="-94" on="0"/>
        <pt x="483" y="-159" on="0"/>
        <pt x="483" y="-250" on="0"/>
        <pt x="453" y="-328" on="0"/>
        <pt x="403" y="-399" on="0"/>
        <pt x="340" y="-459" on="0"/>
      </contour>
    </TTGlyph>
    <TTGlyph name="Gdotaccent" xMin="103" yMin="-10" xMax="1250" yMax="1966">
      <contour>
        <pt x="103" y="419" on="1"/>
        <pt x="104" y="449" on="1"/>
        <pt x="115" y="748" on="0"/>
        <pt x="256" y="1014" on="1"/>
        <pt x="382" y="1255" on="0"/>
        <pt x="582" y="1407" on="1"/>
        <pt x="776" y="1555" on="0"/>
        <pt x="960" y="1555" on="1"/>
        <pt x="1100" y="1555" on="0"/>
        <pt x="1180" y="1458" on="1"/>
        <pt x="1250" y="1374" on="0"/>
        <pt x="1250" y="1252" on="1"/>
        <pt x="1250" y="1106" on="0"/>
        <pt x="1143" y="964" on="1"/>
        <pt x="1081" y="882" on="0"/>
        <pt x="1012" y="846" on="1"/>
        <pt x="978" y="828" on="0"/>
        <pt x="921" y="828" on="0"/>
        <pt x="873" y="852" on="0"/>
        <pt x="856" y="870" on="1"/>
        <pt x="818" y="909" on="0"/>
        <pt x="818" y="971" on="0"/>
        <pt x="834" y="983" on="1"/>
        <pt x="998" y="1101" on="0"/>
        <pt x="1058" y="1226" on="1"/>
        <pt x="1080" y="1274" on="0"/>
        <pt x="1080" y="1320" on="1"/>
        <pt x="1080" y="1417" on="0"/>
        <pt x="988" y="1417" on="1"/>
        <pt x="842" y="1417" on="0"/>
        <pt x="686" y="1252" on="1"/>
        <pt x="541" y="1099" on="0"/>
        <pt x="440" y="868" on="1"/>
        <pt x="338" y="631" on="0"/>
        <pt x="332" y="433" on="1"/>
        <pt x="322" y="222" on="0"/>
        <pt x="432" y="150" on="1"/>
        <pt x="470" y="125" on="0"/>
        <pt x="582" y="125" on="0"/>
        <pt x="683" y="179" on="0"/>
        <pt x="720" y="220" on="1"/>
        <pt x="798" y="310" on="0"/>
        <pt x="800" y="407" on="1"/>
        <pt x="802" y="480" on="0"/>
        <pt x="748" y="508" on="1"/>
        <pt x="726" y="519" on="0"/>
        <pt x="675" y="531" on="0"/>
        <pt x="642" y="548" on="0"/>
        <pt x="658" y="595" on="0"/>
        <pt x="680" y="620" on="1"/>
        <pt x="738" y="684" on="0"/>
        <pt x="807" y="684" on="1"/>
        <pt x="830" y="684" on="0"/>
        <pt x="876" y="674" on="1"/>
        <pt x="962" y="655" on="0"/>
        <pt x="1022" y="655" on="0"/>
        <pt x="1057" y="658" on="0"/>
        <pt x="1075" y="662" on="1"/>
        <pt x="1116" y="671" on="0"/>
        <pt x="1152" y="684" on="1"/>
        <pt x="1211" y="704" on="0"/>
        <pt x="1211" y="611" on="0"/>
        <pt x="1173" y="529" on="0"/>
        <pt x="1140" y="500" on="1"/>
        <pt x="1069" y="436" on="0"/>
        <pt x="964" y="438" on="1"/>
        <pt x="975" y="373" on="0"/>
        <pt x="918" y="270" on="1"/>
        <pt x="817" y="85" on="0"/>
        <pt x="628" y="15" on="1"/>
        <pt x="561" y="-10" on="0"/>
        <pt x="394" y="-10" on="0"/>
        <pt x="254" y="49" on="0"/>
        <pt x="204" y="104" on="1"/>
        <pt x="103" y="218" on="0"/>
      </contour>
      <contour>
        <pt x="1098" y="1702" on="0"/>
        <pt x="1042" y="1673" on="0"/>
        <pt x="980" y="1666" on="0"/>
        <pt x="925" y="1692" on="0"/>
        <pt x="905" y="1716" on="1"/>
        <pt x="862" y="1766" on="0"/>
        <pt x="862" y="1868" on="0"/>
        <pt x="895" y="1919" on="0"/>
        <pt x="920" y="1935" on="1"/>
        <pt x="968" y="1966" on="0"/>
        <pt x="1053" y="1966" on="0"/>
        <pt x="1100" y="1954" on="0"/>
        <pt x="1121" y="1940" on="1"/>
        <pt x="1169" y="1907" on="0"/>
        <pt x="1169" y="1812" on="0"/>
        <pt x="1142" y="1749" on="0"/>
      </contour>
    </TTGlyph>
    <TTGlyph name="H" xMin="-73" yMin="-9" xMax="1443" yMax="1555">
      <contour>
        <pt x="1005" y="735" on="1"/>
        <pt x="882" y="746" on="0"/>
        <pt x="647" y="746" on="0"/>
        <pt x="521" y="731" on="1"/>
        <pt x="362" y="287" on="0"/>
        <pt x="180" y="96" on="1"/>
        <pt x="113" y="25" on="0"/>
        <pt x="41" y="0" on="1"/>
        <pt x="23" y="-7" on="0"/>
        <pt x="-14" y="-7" on="0"/>
        <pt x="-43" y="6" on="0"/>
        <pt x="-52" y="16" on="1"/>
        <pt x="-73" y="36" on="0"/>
        <pt x="-73" y="81" on="0"/>
        <pt x="-58" y="92" on="1"/>
        <pt x="101" y="206" on="0"/>
        <pt x="279" y="685" on="1"/>
        <pt x="271" y="683" on="0"/>
        <pt x="257" y="679" on="0"/>
        <pt x="237" y="673" on="0"/>
        <pt x="209" y="691" on="0"/>
        <pt x="198" y="706" on="1"/>
        <pt x="172" y="742" on="0"/>
        <pt x="191" y="759" on="1"/>
        <pt x="226" y="790" on="0"/>
        <pt x="325" y="818" on="1"/>
        <pt x="459" y="1233" on="0"/>
        <pt x="464" y="1406" on="1"/>
        <pt x="423" y="1404" on="0"/>
        <pt x="388" y="1384" on="1"/>
        <pt x="312" y="1341" on="1"/>
        <pt x="281" y="1324" on="0"/>
        <pt x="230" y="1368" on="1"/>
        <pt x="180" y="1410" on="0"/>
        <pt x="186" y="1448" on="1"/>
        <pt x="193" y="1505" on="0"/>
        <pt x="346" y="1542" on="1"/>
        <pt x="400" y="1555" on="0"/>
        <pt x="462" y="1555" on="0"/>
        <pt x="523" y="1552" on="0"/>
        <pt x="548" y="1546" on="1"/>
        <pt x="648" y="1522" on="0"/>
        <pt x="671" y="1460" on="1"/>
        <pt x="681" y="1432" on="0"/>
        <pt x="681" y="1353" on="0"/>
        <pt x="665" y="1246" on="0"/>
        <pt x="650" y="1178" on="1"/>
        <pt x="618" y="1030" on="0"/>
        <pt x="565" y="862" on="1"/>
        <pt x="783" y="888" on="0"/>
        <pt x="1016" y="888" on="1"/>
        <pt x="1059" y="888" on="1"/>
        <pt x="1114" y="1052" on="1"/>
        <pt x="1206" y="1329" on="0"/>
        <pt x="1227" y="1471" on="1"/>
        <pt x="1240" y="1555" on="0"/>
        <pt x="1311" y="1555" on="1"/>
        <pt x="1357" y="1555" on="0"/>
        <pt x="1387" y="1532" on="1"/>
        <pt x="1443" y="1491" on="0"/>
        <pt x="1439" y="1396" on="0"/>
        <pt x="1409" y="1278" on="0"/>
        <pt x="1361" y="1132" on="0"/>
        <pt x="1330" y="1048" on="1"/>
        <pt x="1267" y="879" on="1"/>
        <pt x="1291" y="877" on="1"/>
        <pt x="1306" y="875" on="0"/>
        <pt x="1333" y="872" on="0"/>
        <pt x="1343" y="868" on="1"/>
        <pt x="1364" y="860" on="0"/>
        <pt x="1364" y="821" on="0"/>
        <pt x="1341" y="778" on="0"/>
        <pt x="1320" y="759" on="1"/>
        <pt x="1269" y="713" on="0"/>
        <pt x="1202" y="711" on="1"/>
        <pt x="1080" y="390" on="0"/>
        <pt x="1040" y="245" on="0"/>
        <pt x="1040" y="219" on="1"/>
        <pt x="1040" y="165" on="0"/>
        <pt x="1083" y="165" on="1"/>
        <pt x="1123" y="165" on="0"/>
        <pt x="1148" y="178" on="1"/>
        <pt x="1184" y="196" on="1"/>
        <pt x="1195" y="201" on="0"/>
        <pt x="1205" y="201" on="1"/>
        <pt x="1226" y="201" on="0"/>
        <pt x="1226" y="180" on="1"/>
        <pt x="1226" y="91" on="0"/>
        <pt x="1123" y="31" on="1"/>
        <pt x="1055" y="-9" on="0"/>
        <pt x="982" y="-9" on="1"/>
        <pt x="880" y="-9" on="0"/>
        <pt x="840" y="82" on="1"/>
        <pt x="826" y="113" on="0"/>
        <pt x="826" y="141" on="1"/>
        <pt x="826" y="206" on="0"/>
        <pt x="866" y="339" on="0"/>
        <pt x="890" y="408" on="1"/>
      </contour>
    </TTGlyph>
    <TTGlyph name="Hbar" xMin="-73" yMin="-9" xMax="1582" yMax="1555">
      <contour>
        <pt x="1005" y="735" on="1"/>
        <pt x="882" y="746" on="0"/>
        <pt x="647" y="746" on="0"/>
        <pt x="521" y="731" on="1"/>
        <pt x="362" y="287" on="0"/>
        <pt x="180" y="96" on="1"/>
        <pt x="113" y="25" on="0"/>
        <pt x="41" y="0" on="1"/>
        <pt x="23" y="-7" on="0"/>
        <pt x="-14" y="-7" on="0"/>
        <pt x="-43" y="6" on="0"/>
        <pt x="-52" y="16" on="1"/>
        <pt x="-73" y="36" on="0"/>
        <pt x="-73" y="81" on="0"/>
        <pt x="-58" y="92" on="1"/>
        <pt x="101" y="206" on="0"/>
        <pt x="279" y="685" on="1"/>
        <pt x="271" y="683" on="0"/>
        <pt x="257" y="679" on="0"/>
        <pt x="237" y="673" on="0"/>
        <pt x="209" y="691" on="0"/>
        <pt x="198" y="706" on="1"/>
        <pt x="172" y="742" on="0"/>
        <pt x="191" y="759" on="1"/>
        <pt x="226" y="790" on="0"/>
        <pt x="325" y="818" on="1"/>
        <pt x="325" y="818" on="0"/>
        <pt x="360" y="930" on="1"/>
        <pt x="377" y="985" on="0"/>
        <pt x="391" y="1038" on="1"/>
        <pt x="303" y="1028" on="1"/>
        <pt x="260" y="1023" on="0"/>
        <pt x="203" y="1014" on="0"/>
        <pt x="164" y="1037" on="0"/>
        <pt x="150" y="1053" on="1"/>
        <pt x="114" y="1094" on="0"/>
        <pt x="137" y="1108" on="1"/>
        <pt x="204" y="1149" on="0"/>
        <pt x="426" y="1178" on="1"/>
        <pt x="462" y="1342" on="0"/>
        <pt x="464" y="1406" on="1"/>
        <pt x="423" y="1404" on="0"/>
        <pt x="388" y="1384" on="1"/>
        <pt x="312" y="1341" on="1"/>
        <pt x="281" y="1324" on="0"/>
        <pt x="230" y="1368" on="1"/>
        <pt x="180" y="1410" on="0"/>
        <pt x="186" y="1448" on="1"/>
        <pt x="193" y="1505" on="0"/>
        <pt x="346" y="1542" on="1"/>
        <pt x="400" y="1555" on="0"/>
        <pt x="462" y="1555" on="0"/>
        <pt x="523" y="1552" on="0"/>
        <pt x="548" y="1546" on="1"/>
        <pt x="648" y="1522" on="0"/>
        <pt x="671" y="1460" on="1"/>
        <pt x="681" y="1432" on="0"/>
        <pt x="681" y="1321" on="0"/>
        <pt x="655" y="1201" on="1"/>
        <pt x="893" y="1218" on="0"/>
        <pt x="1166" y="1218" on="1"/>
        <pt x="1211" y="1368" on="0"/>
        <pt x="1234" y="1516" on="0"/>
        <pt x="1275" y="1555" on="0"/>
        <pt x="1330" y="1555" on="0"/>
        <pt x="1377" y="1540" on="0"/>
        <pt x="1397" y="1525" on="1"/>
        <pt x="1443" y="1491" on="0"/>
        <pt x="1441" y="1444" on="1"/>
        <pt x="1438" y="1365" on="0"/>
        <pt x="1388" y="1214" on="1"/>
        <pt x="1421" y="1212" on="0"/>
        <pt x="1481" y="1209" on="0"/>
        <pt x="1538" y="1204" on="0"/>
        <pt x="1582" y="1192" on="0"/>
        <pt x="1582" y="1148" on="0"/>
        <pt x="1559" y="1103" on="0"/>
        <pt x="1538" y="1084" on="1"/>
        <pt x="1489" y="1040" on="0"/>
        <pt x="1419" y="1040" on="1"/>
        <pt x="1406" y="1040" on="0"/>
        <pt x="1390" y="1042" on="1"/>
        <pt x="1330" y="1048" on="1"/>
        <pt x="1287" y="930" on="0"/>
        <pt x="1267" y="879" on="1"/>
        <pt x="1291" y="877" on="1"/>
        <pt x="1306" y="875" on="0"/>
        <pt x="1333" y="872" on="0"/>
        <pt x="1343" y="868" on="1"/>
        <pt x="1364" y="860" on="0"/>
        <pt x="1364" y="821" on="0"/>
        <pt x="1341" y="778" on="0"/>
        <pt x="1320" y="759" on="1"/>
        <pt x="1269" y="713" on="0"/>
        <pt x="1202" y="711" on="1"/>
        <pt x="1080" y="390" on="0"/>
        <pt x="1040" y="245" on="0"/>
        <pt x="1040" y="219" on="1"/>
        <pt x="1040" y="165" on="0"/>
        <pt x="1083" y="165" on="1"/>
        <pt x="1123" y="165" on="0"/>
        <pt x="1148" y="178" on="1"/>
        <pt x="1184" y="196" on="1"/>
        <pt x="1195" y="201" on="0"/>
        <pt x="1205" y="201" on="1"/>
        <pt x="1226" y="201" on="0"/>
        <pt x="1226" y="180" on="1"/>
        <pt x="1226" y="91" on="0"/>
        <pt x="1123" y="31" on="1"/>
        <pt x="1055" y="-9" on="0"/>
        <pt x="982" y="-9" on="1"/>
        <pt x="880" y="-9" on="0"/>
        <pt x="840" y="82" on="1"/>
        <pt x="826" y="113" on="0"/>
        <pt x="826" y="141" on="1"/>
        <pt x="826" y="206" on="0"/>
        <pt x="866" y="339" on="0"/>
        <pt x="890" y="408" on="1"/>
      </contour>
      <contour>
        <pt x="565" y="862" on="1"/>
        <pt x="783" y="888" on="0"/>
        <pt x="1016" y="888" on="1"/>
        <pt x="1059" y="888" on="1"/>
        <pt x="1117" y="1061" on="1"/>
        <pt x="1024" y="1064" on="0"/>
        <pt x="938" y="1064" on="1"/>
        <pt x="743" y="1064" on="0"/>
        <pt x="621" y="1056" on="1"/>
        <pt x="596" y="962" on="0"/>
      </contour>
    </TTGlyph>
    <TTGlyph name="Hcircumflex" xMin="-73" yMin="-9" xMax="1443" yMax="2005">
      <contour>
        <pt x="1005" y="735" on="1"/>
        <pt x="882" y="746" on="0"/>
        <pt x="647" y="746" on="0"/>
        <pt x="521" y="731" on="1"/>
        <pt x="362" y="287" on="0"/>
        <pt x="180" y="96" on="1"/>
        <pt x="113" y="25" on="0"/>
        <pt x="41" y="0" on="1"/>
        <pt x="23" y="-7" on="0"/>
        <pt x="-14" y="-7" on="0"/>
        <pt x="-43" y="6" on="0"/>
        <pt x="-52" y="16" on="1"/>
        <pt x="-73" y="36" on="0"/>
        <pt x="-73" y="81" on="0"/>
        <pt x="-58" y="92" on="1"/>
        <pt x="101" y="206" on="0"/>
        <pt x="279" y="685" on="1"/>
        <pt x="271" y="683" on="0"/>
        <pt x="257" y="679" on="0"/>
        <pt x="237" y="673" on="0"/>
        <pt x="209" y="691" on="0"/>
        <pt x="198" y="706" on="1"/>
        <pt x="172" y="742" on="0"/>
        <pt x="191" y="759" on="1"/>
        <pt x="226" y="790" on="0"/>
        <pt x="325" y="818" on="1"/>
        <pt x="459" y="1233" on="0"/>
        <pt x="464" y="1406" on="1"/>
        <pt x="423" y="1404" on="0"/>
        <pt x="388" y="1384" on="1"/>
        <pt x="312" y="1341" on="1"/>
        <pt x="281" y="1324" on="0"/>
        <pt x="230" y="1368" on="1"/>
        <pt x="180" y="1410" on="0"/>
        <pt x="186" y="1448" on="1"/>
        <pt x="193" y="1505" on="0"/>
        <pt x="346" y="1542" on="1"/>
        <pt x="400" y="1555" on="0"/>
        <pt x="462" y="1555" on="0"/>
        <pt x="523" y="1552" on="0"/>
        <pt x="548" y="1546" on="1"/>
        <pt x="648" y="1522" on="0"/>
        <pt x="671" y="1460" on="1"/>
        <pt x="681" y="1432" on="0"/>
        <pt x="681" y="1353" on="0"/>
        <pt x="665" y="1246" on="0"/>
        <pt x="650" y="1178" on="1"/>
        <pt x="618" y="1030" on="0"/>
        <pt x="565" y="862" on="1"/>
        <pt x="783" y="888" on="0"/>
        <pt x="1016" y="888" on="1"/>
        <pt x="1059" y="888" on="1"/>
        <pt x="1114" y="1052" on="1"/>
        <pt x="1206" y="1329" on="0"/>
        <pt x="1227" y="1471" on="1"/>
        <pt x="1240" y="1555" on="0"/>
        <pt x="1311" y="1555" on="1"/>
        <pt x="1357" y="1555" on="0"/>
        <pt x="1387" y="1532" on="1"/>
        <pt x="1443" y="1491" on="0"/>
        <pt x="1439" y="1396" on="0"/>
        <pt x="1409" y="1278" on="0"/>
        <pt x="1361" y="1132" on="0"/>
        <pt x="1330" y="1048" on="1"/>
        <pt x="1267" y="879" on="1"/>
        <pt x="1291" y="877" on="1"/>
        <pt x="1306" y="875" on="0"/>
        <pt x="1333" y="872" on="0"/>
        <pt x="1343" y="868" on="1"/>
        <pt x="1364" y="860" on="0"/>
        <pt x="1364" y="821" on="0"/>
        <pt x="1341" y="778" on="0"/>
        <pt x="1320" y="759" on="1"/>
        <pt x="1269" y="713" on="0"/>
        <pt x="1202" y="711" on="1"/>
        <pt x="1080" y="390" on="0"/>
        <pt x="1040" y="245" on="0"/>
        <pt x="1040" y="219" on="1"/>
        <pt x="1040" y="165" on="0"/>
        <pt x="1083" y="165" on="1"/>
        <pt x="1123" y="165" on="0"/>
        <pt x="1148" y="178" on="1"/>
        <pt x="1184" y="196" on="1"/>
        <pt x="1195" y="201" on="0"/>
        <pt x="1205" y="201" on="1"/>
        <pt x="1226" y="201" on="0"/>
        <pt x="1226" y="180" on="1"/>
        <pt x="1226" y="91" on="0"/>
        <pt x="1123" y="31" on="1"/>
        <pt x="1055" y="-9" on="0"/>
        <pt x="982" y="-9" on="1"/>
        <pt x="880" y="-9" on="0"/>
        <pt x="840" y="82" on="1"/>
        <pt x="826" y="113" on="0"/>
        <pt x="826" y="141" on="1"/>
        <pt x="826" y="206" on="0"/>
        <pt x="866" y="339" on="0"/>
        <pt x="890" y="408" on="1"/>
      </contour>
      <contour>
        <pt x="1002" y="1793" on="1"/>
        <pt x="872" y="1683" on="0"/>
        <pt x="755" y="1641" on="1"/>
        <pt x="737" y="1633" on="0"/>
        <pt x="691" y="1633" on="0"/>
        <pt x="658" y="1645" on="0"/>
        <pt x="646" y="1654" on="1"/>
        <pt x="620" y="1675" on="0"/>
        <pt x="620" y="1722" on="0"/>
        <pt x="674" y="1739" on="0"/>
        <pt x="754" y="1777" on="0"/>
        <pt x="804" y="1808" on="1"/>
        <pt x="917" y="1879" on="0"/>
        <pt x="1036" y="1992" on="1"/>
        <pt x="1049" y="2005" on="0"/>
        <pt x="1084" y="1986" on="1"/>
        <pt x="1150" y="1952" on="0"/>
        <pt x="1160" y="1896" on="0"/>
        <pt x="1187" y="1831" on="0"/>
        <pt x="1205" y="1800" on="1"/>
        <pt x="1238" y="1743" on="0"/>
        <pt x="1283" y="1687" on="1"/>
        <pt x="1296" y="1667" on="0"/>
        <pt x="1262" y="1648" on="1"/>
        <pt x="1228" y="1628" on="0"/>
        <pt x="1122" y="1636" on="0"/>
        <pt x="1022" y="1716" on="0"/>
      </contour>
    </TTGlyph>
    <TTGlyph name="I" xMin="-23" yMin="-7" xMax="715" yMax="1555">
      <contour>
        <pt x="-8" y="92" on="1"/>
        <pt x="165" y="219" on="0"/>
        <pt x="341" y="746" on="1"/>
        <pt x="443" y="1053" on="0"/>
        <pt x="483" y="1300" on="1"/>
        <pt x="494" y="1369" on="0"/>
        <pt x="494" y="1406" on="1"/>
        <pt x="453" y="1404" on="0"/>
        <pt x="418" y="1384" on="1"/>
        <pt x="343" y="1341" on="1"/>
        <pt x="312" y="1324" on="0"/>
        <pt x="209" y="1412" on="0"/>
        <pt x="218" y="1473" on="0"/>
        <pt x="277" y="1512" on="0"/>
        <pt x="316" y="1526" on="1"/>
        <pt x="398" y="1555" on="0"/>
        <pt x="509" y="1555" on="0"/>
        <pt x="594" y="1538" on="0"/>
        <pt x="629" y="1518" on="1"/>
        <pt x="709" y="1472" on="0"/>
        <pt x="711" y="1386" on="1"/>
        <pt x="715" y="1237" on="0"/>
        <pt x="610" y="880" on="1"/>
        <pt x="444" y="315" on="0"/>
        <pt x="220" y="86" on="1"/>
        <pt x="159" y="23" on="0"/>
        <pt x="93" y="0" on="1"/>
        <pt x="75" y="-7" on="0"/>
        <pt x="38" y="-7" on="0"/>
        <pt x="8" y="6" on="0"/>
        <pt x="-2" y="16" on="1"/>
        <pt x="-23" y="35" on="0"/>
        <pt x="-23" y="81" on="0"/>
      </contour>
    </TTGlyph>
    <TTGlyph name="IJ" xMin="-23" yMin="-560" xMax="1539" yMax="1555">
      <contour>
        <pt x="-8" y="92" on="1"/>
        <pt x="165" y="219" on="0"/>
        <pt x="341" y="746" on="1"/>
        <pt x="443" y="1053" on="0"/>
        <pt x="483" y="1300" on="1"/>
        <pt x="494" y="1369" on="0"/>
        <pt x="494" y="1406" on="1"/>
        <pt x="453" y="1404" on="0"/>
        <pt x="418" y="1384" on="1"/>
        <pt x="343" y="1341" on="1"/>
        <pt x="312" y="1324" on="0"/>
        <pt x="209" y="1412" on="0"/>
        <pt x="218" y="1473" on="0"/>
        <pt x="277" y="1512" on="0"/>
        <pt x="316" y="1526" on="1"/>
        <pt x="398" y="1555" on="0"/>
        <pt x="509" y="1555" on="0"/>
        <pt x="594" y="1538" on="0"/>
        <pt x="629" y="1518" on="1"/>
        <pt x="709" y="1472" on="0"/>
        <pt x="711" y="1386" on="1"/>
        <pt x="715" y="1237" on="0"/>
        <pt x="610" y="880" on="1"/>
        <pt x="444" y="315" on="0"/>
        <pt x="220" y="86" on="1"/>
        <pt x="159" y="23" on="0"/>
        <pt x="93" y="0" on="1"/>
        <pt x="75" y="-7" on="0"/>
        <pt x="38" y="-7" on="0"/>
        <pt x="8" y="6" on="0"/>
        <pt x="-2" y="16" on="1"/>
        <pt x="-23" y="35" on="0"/>
        <pt x="-23" y="81" on="0"/>
      </contour>
      <contour>
        <pt x="320" y="-512" on="1"/>
        <pt x="320" y="-482" on="0"/>
        <pt x="359" y="-468" on="1"/>
        <pt x="637" y="-360" on="0"/>
        <pt x="915" y="192" on="1"/>
        <pt x="1133" y="624" on="0"/>
        <pt x="1257" y="1102" on="1"/>
        <pt x="1306" y="1291" on="0"/>
        <pt x="1306" y="1375" on="1"/>
        <pt x="1306" y="1406" on="0"/>
        <pt x="1292" y="1406" on="1"/>
        <pt x="1160" y="1406" on="0"/>
        <pt x="958" y="1204" on="1"/>
        <pt x="938" y="1184" on="0"/>
        <pt x="889" y="1184" on="0"/>
        <pt x="842" y="1204" on="0"/>
        <pt x="823" y="1220" on="1"/>
        <pt x="778" y="1255" on="0"/>
        <pt x="778" y="1328" on="0"/>
        <pt x="824" y="1390" on="0"/>
        <pt x="902" y="1448" on="0"/>
        <pt x="1002" y="1497" on="0"/>
        <pt x="1057" y="1516" on="1"/>
        <pt x="1173" y="1555" on="0"/>
        <pt x="1298" y="1555" on="0"/>
        <pt x="1392" y="1540" on="0"/>
        <pt x="1435" y="1522" on="1"/>
        <pt x="1539" y="1477" on="0"/>
        <pt x="1539" y="1393" on="1"/>
        <pt x="1539" y="1243" on="0"/>
        <pt x="1445" y="914" on="1"/>
        <pt x="1345" y="566" on="0"/>
        <pt x="1183" y="233" on="1"/>
        <pt x="949" y="-235" on="0"/>
        <pt x="689" y="-440" on="1"/>
        <pt x="537" y="-560" on="0"/>
        <pt x="401" y="-560" on="1"/>
        <pt x="350" y="-560" on="0"/>
        <pt x="327" y="-533" on="1"/>
        <pt x="320" y="-524" on="0"/>
      </contour>
    </TTGlyph>
    <TTGlyph name="Iacute" xMin="-23" yMin="-7" xMax="952" yMax="2005">
      <contour>
        <pt x="-8" y="92" on="1"/>
        <pt x="165" y="219" on="0"/>
        <pt x="341" y="746" on="1"/>
        <pt x="443" y="1053" on="0"/>
        <pt x="483" y="1300" on="1"/>
        <pt x="494" y="1369" on="0"/>
        <pt x="494" y="1406" on="1"/>
        <pt x="453" y="1404" on="0"/>
        <pt x="418" y="1384" on="1"/>
        <pt x="343" y="1341" on="1"/>
        <pt x="312" y="1324" on="0"/>
        <pt x="209" y="1412" on="0"/>
        <pt x="218" y="1473" on="0"/>
        <pt x="277" y="1512" on="0"/>
        <pt x="316" y="1526" on="1"/>
        <pt x="398" y="1555" on="0"/>
        <pt x="509" y="1555" on="0"/>
        <pt x="594" y="1538" on="0"/>
        <pt x="629" y="1518" on="1"/>
        <pt x="709" y="1472" on="0"/>
        <pt x="711" y="1386" on="1"/>
        <pt x="715" y="1237" on="0"/>
        <pt x="610" y="880" on="1"/>
        <pt x="444" y="315" on="0"/>
        <pt x="220" y="86" on="1"/>
        <pt x="159" y="23" on="0"/>
        <pt x="93" y="0" on="1"/>
        <pt x="75" y="-7" on="0"/>
        <pt x="38" y="-7" on="0"/>
        <pt x="8" y="6" on="0"/>
        <pt x="-2" y="16" on="1"/>
        <pt x="-23" y="35" on="0"/>
        <pt x="-23" y="81" on="0"/>
      </contour>
      <contour>
        <pt x="756" y="1671" on="0"/>
        <pt x="644" y="1630" on="0"/>
        <pt x="571" y="1628" on="0"/>
        <pt x="562" y="1640" on="1"/>
        <pt x="543" y="1666" on="0"/>
        <pt x="565" y="1687" on="1"/>
        <pt x="611" y="1731" on="1"/>
        <pt x="705" y="1817" on="0"/>
        <pt x="739" y="1910" on="1"/>
        <pt x="758" y="1965" on="1"/>
        <pt x="771" y="2005" on="0"/>
        <pt x="833" y="1998" on="1"/>
        <pt x="886" y="1992" on="0"/>
        <pt x="952" y="1911" on="0"/>
        <pt x="934" y="1819" on="0"/>
        <pt x="858" y="1737" on="0"/>
      </contour>
    </TTGlyph>
    <TTGlyph name="Ibreve" xMin="-23" yMin="-7" xMax="1034" yMax="1999">
      <contour>
        <pt x="-8" y="92" on="1"/>
        <pt x="165" y="219" on="0"/>
        <pt x="341" y="746" on="1"/>
        <pt x="443" y="1053" on="0"/>
        <pt x="483" y="1300" on="1"/>
        <pt x="494" y="1369" on="0"/>
        <pt x="494" y="1406" on="1"/>
        <pt x="453" y="1404" on="0"/>
        <pt x="418" y="1384" on="1"/>
        <pt x="343" y="1341" on="1"/>
        <pt x="312" y="1324" on="0"/>
        <pt x="209" y="1412" on="0"/>
        <pt x="218" y="1473" on="0"/>
        <pt x="277" y="1512" on="0"/>
        <pt x="316" y="1526" on="1"/>
        <pt x="398" y="1555" on="0"/>
        <pt x="509" y="1555" on="0"/>
        <pt x="594" y="1538" on="0"/>
        <pt x="629" y="1518" on="1"/>
        <pt x="709" y="1472" on="0"/>
        <pt x="711" y="1386" on="1"/>
        <pt x="715" y="1237" on="0"/>
        <pt x="610" y="880" on="1"/>
        <pt x="444" y="315" on="0"/>
        <pt x="220" y="86" on="1"/>
        <pt x="159" y="23" on="0"/>
        <pt x="93" y="0" on="1"/>
        <pt x="75" y="-7" on="0"/>
        <pt x="38" y="-7" on="0"/>
        <pt x="8" y="6" on="0"/>
        <pt x="-2" y="16" on="1"/>
        <pt x="-23" y="35" on="0"/>
        <pt x="-23" y="81" on="0"/>
      </contour>
      <contour>
        <pt x="723" y="1658" on="1"/>
        <pt x="673" y="1644" on="0"/>
        <pt x="569" y="1644" on="0"/>
        <pt x="483" y="1673" on="0"/>
        <pt x="451" y="1700" on="1"/>
        <pt x="379" y="1761" on="0"/>
        <pt x="379" y="1855" on="1"/>
        <pt x="379" y="1925" on="0"/>
        <pt x="431" y="1967" on="1"/>
        <pt x="472" y="1999" on="0"/>
        <pt x="525" y="1999" on="0"/>
        <pt x="551" y="1992" on="0"/>
        <pt x="555" y="1942" on="0"/>
        <pt x="569" y="1884" on="0"/>
        <pt x="584" y="1862" on="1"/>
        <pt x="618" y="1811" on="0"/>
        <pt x="725" y="1811" on="0"/>
        <pt x="807" y="1848" on="0"/>
        <pt x="840" y="1874" on="1"/>
        <pt x="905" y="1926" on="0"/>
        <pt x="929" y="1975" on="1"/>
        <pt x="939" y="1997" on="0"/>
        <pt x="972" y="1997" on="0"/>
        <pt x="988" y="1987" on="0"/>
        <pt x="995" y="1977" on="1"/>
        <pt x="1034" y="1916" on="0"/>
        <pt x="947" y="1807" on="1"/>
        <pt x="859" y="1696" on="0"/>
      </contour>
    </TTGlyph>
    <TTGlyph name="Icircumflex" xMin="-23" yMin="-7" xMax="971" yMax="2005">
      <contour>
        <pt x="-8" y="92" on="1"/>
        <pt x="165" y="219" on="0"/>
        <pt x="341" y="746" on="1"/>
        <pt x="443" y="1053" on="0"/>
        <pt x="483" y="1300" on="1"/>
        <pt x="494" y="1369" on="0"/>
        <pt x="494" y="1406" on="1"/>
        <pt x="453" y="1404" on="0"/>
        <pt x="418" y="1384" on="1"/>
        <pt x="343" y="1341" on="1"/>
        <pt x="312" y="1324" on="0"/>
        <pt x="209" y="1412" on="0"/>
        <pt x="218" y="1473" on="0"/>
        <pt x="277" y="1512" on="0"/>
        <pt x="316" y="1526" on="1"/>
        <pt x="398" y="1555" on="0"/>
        <pt x="509" y="1555" on="0"/>
        <pt x="594" y="1538" on="0"/>
        <pt x="629" y="1518" on="1"/>
        <pt x="709" y="1472" on="0"/>
        <pt x="711" y="1386" on="1"/>
        <pt x="715" y="1237" on="0"/>
        <pt x="610" y="880" on="1"/>
        <pt x="444" y="315" on="0"/>
        <pt x="220" y="86" on="1"/>
        <pt x="159" y="23" on="0"/>
        <pt x="93" y="0" on="1"/>
        <pt x="75" y="-7" on="0"/>
        <pt x="38" y="-7" on="0"/>
        <pt x="8" y="6" on="0"/>
        <pt x="-2" y="16" on="1"/>
        <pt x="-23" y="35" on="0"/>
        <pt x="-23" y="81" on="0"/>
      </contour>
      <contour>
        <pt x="677" y="1793" on="1"/>
        <pt x="547" y="1683" on="0"/>
        <pt x="430" y="1641" on="1"/>
        <pt x="412" y="1633" on="0"/>
        <pt x="366" y="1633" on="0"/>
        <pt x="333" y="1645" on="0"/>
        <pt x="321" y="1654" on="1"/>
        <pt x="295" y="1675" on="0"/>
        <pt x="295" y="1722" on="0"/>
        <pt x="349" y="1739" on="0"/>
        <pt x="429" y="1777" on="0"/>
        <pt x="479" y="1808" on="1"/>
        <pt x="592" y="1879" on="0"/>
        <pt x="711" y="1992" on="1"/>
        <pt x="724" y="2005" on="0"/>
        <pt x="759" y="1986" on="1"/>
        <pt x="825" y="1952" on="0"/>
        <pt x="835" y="1896" on="0"/>
        <pt x="862" y="1831" on="0"/>
        <pt x="880" y="1800" on="1"/>
        <pt x="913" y="1743" on="0"/>
        <pt x="958" y="1687" on="1"/>
        <pt x="971" y="1667" on="0"/>
        <pt x="937" y="1648" on="1"/>
        <pt x="903" y="1628" on="0"/>
        <pt x="797" y="1636" on="0"/>
        <pt x="697" y="1716" on="0"/>
      </contour>
    </TTGlyph>
    <TTGlyph name="Idieresis" xMin="-23" yMin="-7" xMax="1041" yMax="1957">
      <contour>
        <pt x="-8" y="92" on="1"/>
        <pt x="165" y="219" on="0"/>
        <pt x="341" y="746" on="1"/>
        <pt x="443" y="1053" on="0"/>
        <pt x="483" y="1300" on="1"/>
        <pt x="494" y="1369" on="0"/>
        <pt x="494" y="1406" on="1"/>
        <pt x="453" y="1404" on="0"/>
        <pt x="418" y="1384" on="1"/>
        <pt x="343" y="1341" on="1"/>
        <pt x="312" y="1324" on="0"/>
        <pt x="209" y="1412" on="0"/>
        <pt x="218" y="1473" on="0"/>
        <pt x="277" y="1512" on="0"/>
        <pt x="316" y="1526" on="1"/>
        <pt x="398" y="1555" on="0"/>
        <pt x="509" y="1555" on="0"/>
        <pt x="594" y="1538" on="0"/>
        <pt x="629" y="1518" on="1"/>
        <pt x="709" y="1472" on="0"/>
        <pt x="711" y="1386" on="1"/>
        <pt x="715" y="1237" on="0"/>
        <pt x="610" y="880" on="1"/>
        <pt x="444" y="315" on="0"/>
        <pt x="220" y="86" on="1"/>
        <pt x="159" y="23" on="0"/>
        <pt x="93" y="0" on="1"/>
        <pt x="75" y="-7" on="0"/>
        <pt x="38" y="-7" on="0"/>
        <pt x="8" y="6" on="0"/>
        <pt x="-2" y="16" on="1"/>
        <pt x="-23" y="35" on="0"/>
        <pt x="-23" y="81" on="0"/>
      </contour>
      <contour>
        <pt x="970" y="1693" on="0"/>
        <pt x="914" y="1664" on="0"/>
        <pt x="852" y="1657" on="0"/>
        <pt x="797" y="1683" on="0"/>
        <pt x="777" y="1706" on="1"/>
        <pt x="734" y="1757" on="0"/>
        <pt x="734" y="1859" on="0"/>
        <pt x="767" y="1910" on="0"/>
        <pt x="792" y="1926" on="1"/>
        <pt x="840" y="1957" on="0"/>
        <pt x="925" y="1957" on="0"/>
        <pt x="972" y="1945" on="0"/>
        <pt x="993" y="1931" on="1"/>
        <pt x="1041" y="1898" on="0"/>
        <pt x="1041" y="1803" on="0"/>
        <pt x="1014" y="1740" on="0"/>
      </contour>
      <contour>
        <pt x="510" y="1693" on="0"/>
        <pt x="454" y="1664" on="0"/>
        <pt x="392" y="1657" on="0"/>
        <pt x="337" y="1683" on="0"/>
        <pt x="317" y="1706" on="1"/>
        <pt x="274" y="1757" on="0"/>
        <pt x="274" y="1859" on="0"/>
        <pt x="307" y="1910" on="0"/>
        <pt x="332" y="1926" on="1"/>
        <pt x="380" y="1957" on="0"/>
        <pt x="465" y="1957" on="0"/>
        <pt x="512" y="1945" on="0"/>
        <pt x="533" y="1931" on="1"/>
        <pt x="581" y="1898" on="0"/>
        <pt x="581" y="1803" on="0"/>
        <pt x="554" y="1740" on="0"/>
      </contour>
    </TTGlyph>
    <TTGlyph name="Idotaccent" xMin="-23" yMin="-7" xMax="736" yMax="1966">
      <contour>
        <pt x="-8" y="92" on="1"/>
        <pt x="165" y="219" on="0"/>
        <pt x="341" y="746" on="1"/>
        <pt x="443" y="1053" on="0"/>
        <pt x="483" y="1300" on="1"/>
        <pt x="494" y="1369" on="0"/>
        <pt x="494" y="1406" on="1"/>
        <pt x="453" y="1404" on="0"/>
        <pt x="418" y="1384" on="1"/>
        <pt x="343" y="1341" on="1"/>
        <pt x="312" y="1324" on="0"/>
        <pt x="209" y="1412" on="0"/>
        <pt x="218" y="1473" on="0"/>
        <pt x="277" y="1512" on="0"/>
        <pt x="316" y="1526" on="1"/>
        <pt x="398" y="1555" on="0"/>
        <pt x="509" y="1555" on="0"/>
        <pt x="594" y="1538" on="0"/>
        <pt x="629" y="1518" on="1"/>
        <pt x="709" y="1472" on="0"/>
        <pt x="711" y="1386" on="1"/>
        <pt x="715" y="1237" on="0"/>
        <pt x="610" y="880" on="1"/>
        <pt x="444" y="315" on="0"/>
        <pt x="220" y="86" on="1"/>
        <pt x="159" y="23" on="0"/>
        <pt x="93" y="0" on="1"/>
        <pt x="75" y="-7" on="0"/>
        <pt x="38" y="-7" on="0"/>
        <pt x="8" y="6" on="0"/>
        <pt x="-2" y="16" on="1"/>
        <pt x="-23" y="35" on="0"/>
        <pt x="-23" y="81" on="0"/>
      </contour>
      <contour>
        <pt x="665" y="1702" on="0"/>
        <pt x="609" y="1673" on="0"/>
        <pt x="547" y="1666" on="0"/>
        <pt x="492" y="1692" on="0"/>
        <pt x="472" y="1716" on="1"/>
        <pt x="429" y="1766" on="0"/>
        <pt x="429" y="1868" on="0"/>
        <pt x="462" y="1919" on="0"/>
        <pt x="487" y="1935" on="1"/>
        <pt x="535" y="1966" on="0"/>
        <pt x="620" y="1966" on="0"/>
        <pt x="667" y="1954" on="0"/>
        <pt x="688" y="1940" on="1"/>
        <pt x="736" y="1907" on="0"/>
        <pt x="736" y="1812" on="0"/>
        <pt x="709" y="1749" on="0"/>
      </contour>
    </TTGlyph>
    <TTGlyph name="Igrave" xMin="-23" yMin="-7" xMax="764" yMax="1999">
      <contour>
        <pt x="-8" y="92" on="1"/>
        <pt x="165" y="219" on="0"/>
        <pt x="341" y="746" on="1"/>
        <pt x="443" y="1053" on="0"/>
        <pt x="483" y="1300" on="1"/>
        <pt x="494" y="1369" on="0"/>
        <pt x="494" y="1406" on="1"/>
        <pt x="453" y="1404" on="0"/>
        <pt x="418" y="1384" on="1"/>
        <pt x="343" y="1341" on="1"/>
        <pt x="312" y="1324" on="0"/>
        <pt x="209" y="1412" on="0"/>
        <pt x="218" y="1473" on="0"/>
        <pt x="277" y="1512" on="0"/>
        <pt x="316" y="1526" on="1"/>
        <pt x="398" y="1555" on="0"/>
        <pt x="509" y="1555" on="0"/>
        <pt x="594" y="1538" on="0"/>
        <pt x="629" y="1518" on="1"/>
        <pt x="709" y="1472" on="0"/>
        <pt x="711" y="1386" on="1"/>
        <pt x="715" y="1237" on="0"/>
        <pt x="610" y="880" on="1"/>
        <pt x="444" y="315" on="0"/>
        <pt x="220" y="86" on="1"/>
        <pt x="159" y="23" on="0"/>
        <pt x="93" y="0" on="1"/>
        <pt x="75" y="-7" on="0"/>
        <pt x="38" y="-7" on="0"/>
        <pt x="8" y="6" on="0"/>
        <pt x="-2" y="16" on="1"/>
        <pt x="-23" y="35" on="0"/>
        <pt x="-23" y="81" on="0"/>
      </contour>
      <contour>
        <pt x="764" y="1670" on="1"/>
        <pt x="764" y="1633" on="0"/>
        <pt x="722" y="1633" on="1"/>
        <pt x="618" y="1633" on="0"/>
        <pt x="514" y="1698" on="1"/>
        <pt x="400" y="1768" on="0"/>
        <pt x="397" y="1855" on="1"/>
        <pt x="397" y="1909" on="0"/>
        <pt x="427" y="1941" on="1"/>
        <pt x="480" y="1999" on="0"/>
        <pt x="542" y="1999" on="1"/>
        <pt x="581" y="1999" on="0"/>
        <pt x="591" y="1955" on="1"/>
        <pt x="622" y="1810" on="0"/>
        <pt x="730" y="1718" on="1"/>
        <pt x="764" y="1689" on="0"/>
      </contour>
    </TTGlyph>
    <TTGlyph name="Imacron" xMin="-23" yMin="-7" xMax="994" yMax="1882">
      <contour>
        <pt x="-8" y="92" on="1"/>
        <pt x="165" y="219" on="0"/>
        <pt x="341" y="746" on="1"/>
        <pt x="443" y="1053" on="0"/>
        <pt x="483" y="1300" on="1"/>
        <pt x="494" y="1369" on="0"/>
        <pt x="494" y="1406" on="1"/>
        <pt x="453" y="1404" on="0"/>
        <pt x="418" y="1384" on="1"/>
        <pt x="343" y="1341" on="1"/>
        <pt x="312" y="1324" on="0"/>
        <pt x="209" y="1412" on="0"/>
        <pt x="218" y="1473" on="0"/>
        <pt x="277" y="1512" on="0"/>
        <pt x="316" y="1526" on="1"/>
        <pt x="398" y="1555" on="0"/>
        <pt x="509" y="1555" on="0"/>
        <pt x="594" y="1538" on="0"/>
        <pt x="629" y="1518" on="1"/>
        <pt x="709" y="1472" on="0"/>
        <pt x="711" y="1386" on="1"/>
        <pt x="715" y="1237" on="0"/>
        <pt x="610" y="880" on="1"/>
        <pt x="444" y="315" on="0"/>
        <pt x="220" y="86" on="1"/>
        <pt x="159" y="23" on="0"/>
        <pt x="93" y="0" on="1"/>
        <pt x="75" y="-7" on="0"/>
        <pt x="38" y="-7" on="0"/>
        <pt x="8" y="6" on="0"/>
        <pt x="-2" y="16" on="1"/>
        <pt x="-23" y="35" on="0"/>
        <pt x="-23" y="81" on="0"/>
      </contour>
      <contour>
        <pt x="276" y="1740" on="1"/>
        <pt x="276" y="1779" on="0"/>
        <pt x="305" y="1811" on="1"/>
        <pt x="360" y="1870" on="0"/>
        <pt x="412" y="1870" on="1"/>
        <pt x="938" y="1880" on="1"/>
        <pt x="994" y="1882" on="0"/>
        <pt x="994" y="1839" on="1"/>
        <pt x="994" y="1799" on="0"/>
        <pt x="960" y="1762" on="1"/>
        <pt x="900" y="1695" on="0"/>
        <pt x="829" y="1695" on="0"/>
        <pt x="745" y="1696" on="0"/>
        <pt x="645" y="1697" on="0"/>
        <pt x="590" y="1698" on="1"/>
        <pt x="482" y="1702" on="1"/>
        <pt x="360" y="1705" on="0"/>
        <pt x="276" y="1712" on="0"/>
      </contour>
    </TTGlyph>
    <TTGlyph name="Iogonek" xMin="-285" yMin="-505" xMax="714" yMax="1555">
      <contour>
        <pt x="-74" y="-275" on="1"/>
        <pt x="-74" y="-337" on="0"/>
        <pt x="-28" y="-337" on="1"/>
        <pt x="-15" y="-337" on="0"/>
        <pt x="-1" y="-330" on="1"/>
        <pt x="27" y="-316" on="1"/>
        <pt x="86" y="-284" on="0"/>
        <pt x="89" y="-326" on="1"/>
        <pt x="91" y="-363" on="0"/>
        <pt x="35" y="-437" on="0"/>
        <pt x="6" y="-458" on="1"/>
        <pt x="-60" y="-505" on="0"/>
        <pt x="-149" y="-505" on="1"/>
        <pt x="-244" y="-505" on="0"/>
        <pt x="-276" y="-422" on="1"/>
        <pt x="-285" y="-396" on="0"/>
        <pt x="-285" y="-313" on="0"/>
        <pt x="-237" y="-203" on="0"/>
        <pt x="-198" y="-152" on="1"/>
        <pt x="-120" y="-51" on="0"/>
        <pt x="-8" y="23" on="1"/>
        <pt x="-23" y="41" on="0"/>
        <pt x="-23" y="80" on="0"/>
        <pt x="-8" y="92" on="1"/>
        <pt x="165" y="219" on="0"/>
        <pt x="341" y="746" on="1"/>
        <pt x="443" y="1053" on="0"/>
        <pt x="483" y="1300" on="1"/>
        <pt x="494" y="1369" on="0"/>
        <pt x="494" y="1406" on="1"/>
        <pt x="453" y="1404" on="0"/>
        <pt x="418" y="1384" on="1"/>
        <pt x="343" y="1341" on="1"/>
        <pt x="312" y="1324" on="0"/>
        <pt x="209" y="1412" on="0"/>
        <pt x="218" y="1473" on="0"/>
        <pt x="277" y="1512" on="0"/>
        <pt x="316" y="1526" on="1"/>
        <pt x="398" y="1555" on="0"/>
        <pt x="509" y="1555" on="0"/>
        <pt x="594" y="1538" on="0"/>
        <pt x="629" y="1518" on="1"/>
        <pt x="709" y="1472" on="0"/>
        <pt x="711" y="1386" on="1"/>
        <pt x="714" y="1247" on="0"/>
        <pt x="618" y="907" on="1"/>
        <pt x="464" y="368" on="0"/>
        <pt x="254" y="122" on="1"/>
        <pt x="196" y="54" on="0"/>
        <pt x="134" y="19" on="1"/>
        <pt x="100" y="-8" on="1"/>
        <pt x="-22" y="-101" on="0"/>
        <pt x="-62" y="-212" on="1"/>
        <pt x="-74" y="-244" on="0"/>
      </contour>
    </TTGlyph>
    <TTGlyph name="Itilde" xMin="-23" yMin="-7" xMax="1051" yMax="1980">
      <contour>
        <pt x="-8" y="92" on="1"/>
        <pt x="165" y="219" on="0"/>
        <pt x="341" y="746" on="1"/>
        <pt x="443" y="1053" on="0"/>
        <pt x="483" y="1300" on="1"/>
        <pt x="494" y="1369" on="0"/>
        <pt x="494" y="1406" on="1"/>
        <pt x="453" y="1404" on="0"/>
        <pt x="418" y="1384" on="1"/>
        <pt x="343" y="1341" on="1"/>
        <pt x="312" y="1324" on="0"/>
        <pt x="209" y="1412" on="0"/>
        <pt x="218" y="1473" on="0"/>
        <pt x="277" y="1512" on="0"/>
        <pt x="316" y="1526" on="1"/>
        <pt x="398" y="1555" on="0"/>
        <pt x="509" y="1555" on="0"/>
        <pt x="594" y="1538" on="0"/>
        <pt x="629" y="1518" on="1"/>
        <pt x="709" y="1472" on="0"/>
        <pt x="711" y="1386" on="1"/>
        <pt x="715" y="1237" on="0"/>
        <pt x="610" y="880" on="1"/>
        <pt x="444" y="315" on="0"/>
        <pt x="220" y="86" on="1"/>
        <pt x="159" y="23" on="0"/>
        <pt x="93" y="0" on="1"/>
        <pt x="75" y="-7" on="0"/>
        <pt x="38" y="-7" on="0"/>
        <pt x="8" y="6" on="0"/>
        <pt x="-2" y="16" on="1"/>
        <pt x="-23" y="35" on="0"/>
        <pt x="-23" y="81" on="0"/>
      </contour>
      <contour>
        <pt x="315" y="1656" on="1"/>
        <pt x="266" y="1656" on="0"/>
        <pt x="272" y="1761" on="0"/>
        <pt x="327" y="1854" on="0"/>
        <pt x="370" y="1892" on="1"/>
        <pt x="466" y="1980" on="0"/>
        <pt x="566" y="1980" on="1"/>
        <pt x="650" y="1980" on="0"/>
        <pt x="714" y="1904" on="1"/>
        <pt x="746" y="1868" on="1"/>
        <pt x="781" y="1829" on="0"/>
        <pt x="843" y="1829" on="0"/>
        <pt x="888" y="1849" on="0"/>
        <pt x="906" y="1864" on="1"/>
        <pt x="931" y="1885" on="0"/>
        <pt x="962" y="1933" on="1"/>
        <pt x="975" y="1967" on="0"/>
        <pt x="999" y="1967" on="1"/>
        <pt x="1051" y="1967" on="0"/>
        <pt x="1047" y="1905" on="1"/>
        <pt x="1041" y="1815" on="0"/>
        <pt x="942" y="1729" on="1"/>
        <pt x="842" y="1642" on="0"/>
        <pt x="739" y="1642" on="1"/>
        <pt x="654" y="1642" on="0"/>
        <pt x="592" y="1718" on="1"/>
        <pt x="561" y="1754" on="1"/>
        <pt x="527" y="1793" on="0"/>
        <pt x="465" y="1793" on="0"/>
        <pt x="425" y="1773" on="0"/>
        <pt x="409" y="1758" on="1"/>
        <pt x="384" y="1734" on="0"/>
        <pt x="337" y="1656" on="0"/>
      </contour>
    </TTGlyph>
    <TTGlyph name="J" xMin="-351" yMin="-560" xMax="868" yMax="1555">
      <contour>
        <pt x="-351" y="-512" on="1"/>
        <pt x="-351" y="-482" on="0"/>
        <pt x="-312" y="-468" on="1"/>
        <pt x="-34" y="-360" on="0"/>
        <pt x="244" y="192" on="1"/>
        <pt x="462" y="624" on="0"/>
        <pt x="586" y="1102" on="1"/>
        <pt x="635" y="1291" on="0"/>
        <pt x="635" y="1375" on="1"/>
        <pt x="635" y="1406" on="0"/>
        <pt x="621" y="1406" on="1"/>
        <pt x="489" y="1406" on="0"/>
        <pt x="287" y="1204" on="1"/>
        <pt x="267" y="1184" on="0"/>
        <pt x="218" y="1184" on="0"/>
        <pt x="171" y="1204" on="0"/>
        <pt x="152" y="1220" on="1"/>
        <pt x="107" y="1255" on="0"/>
        <pt x="107" y="1328" on="0"/>
        <pt x="153" y="1390" on="0"/>
        <pt x="231" y="1448" on="0"/>
        <pt x="331" y="1497" on="0"/>
        <pt x="386" y="1516" on="1"/>
        <pt x="502" y="1555" on="0"/>
        <pt x="627" y="1555" on="0"/>
        <pt x="721" y="1540" on="0"/>
        <pt x="764" y="1522" on="1"/>
        <pt x="868" y="1477" on="0"/>
        <pt x="868" y="1393" on="1"/>
        <pt x="868" y="1243" on="0"/>
        <pt x="774" y="914" on="1"/>
        <pt x="674" y="566" on="0"/>
        <pt x="512" y="233" on="1"/>
        <pt x="278" y="-235" on="0"/>
        <pt x="18" y="-440" on="1"/>
        <pt x="-134" y="-560" on="0"/>
        <pt x="-270" y="-560" on="1"/>
        <pt x="-321" y="-560" on="0"/>
        <pt x="-344" y="-533" on="1"/>
        <pt x="-351" y="-524" on="0"/>
      </contour>
    </TTGlyph>
</ttFont>
